{
.appVersion = "1352";
DisplayStrings = (

glyphs = (
{
glyphname = A;
lastChange = "2021-09-23 20:32:39 +0000";
layers = (
{
hints = (
{
horizontal = 1;
place = "{-228, 16}";
type = Stem;
},
{
horizontal = 1;
place = "{-6, 18}";
type = Stem;
},
{
horizontal = 1;
place = "{175, 13}";
type = Stem;
},
{
horizontal = 1;
place = "{354, 37}";
type = Stem;
},
{
horizontal = 1;
place = "{778, 21}";
target = up;
type = BottomGhost;
},
{
place = "{-215, 14}";
type = Stem;
},
{
place = "{36, 21}";
type = Stem;
},
{
place = "{175, 41}";
type = Stem;
},
{
place = "{522, 13}";
type = Stem;
},
{
place = "{720, 50}";
type = Stem;
},
{
place = "{1230, 12}";
type = Stem;
}
);
layerId = "32B14CDE-4F96-422E-BD5E-1145416534B1";
paths = (
{
closed = 1;
nodes = (
"192 -163 OFFCURVE",
"275 -92 OFFCURVE",
"346 -18 CURVE",
"465 10 OFFCURVE",
"600 105 OFFCURVE",
"711 286 CURVE SMOOTH",
"729 316 OFFCURVE",
"744 344 OFFCURVE",
"755 372 CURVE",
"788 377 OFFCURVE",
"819 383 OFFCURVE",
"851 390 CURVE",
"777 292 OFFCURVE",
"721 188 OFFCURVE",
"720 86 CURVE SMOOTH",
"720 40 OFFCURVE",
"737 7 OFFCURVE",
"774 -3 CURVE SMOOTH",
"854 -25 OFFCURVE",
"928 69 OFFCURVE",
"987 189 CURVE SMOOTH",
"991 197 OFFCURVE",
"980 201 OFFCURVE",
"976 192 CURVE SMOOTH",
"917 68 OFFCURVE",
"832 -8 OFFCURVE",
"788 16 CURVE SMOOTH",
"720 52 OFFCURVE",
"869 315 OFFCURVE",
"904 372 CURVE SMOOTH",
"929 413 LINE",
"985 432 OFFCURVE",
"1039 458 OFFCURVE",
"1090 493 CURVE SMOOTH",
"1384 695 OFFCURVE",
"1197 881 OFFCURVE",
"980 753 CURVE SMOOTH",
"922 720 OFFCURVE",
"858 657 OFFCURVE",
"789 581 CURVE",
"768 714 OFFCURVE",
"652 793 OFFCURVE",
"507 799 CURVE SMOOTH",
"196 811 OFFCURVE",
"48 568 OFFCURVE",
"88 400 CURVE",
"9 251 OFFCURVE",
"7 66 OFFCURVE",
"174 -8 CURVE SMOOTH",
"211 -23 OFFCURVE",
"254 -30 OFFCURVE",
"301 -25 CURVE",
"240 -93 OFFCURVE",
"172 -155 OFFCURVE",
"94 -188 CURVE SMOOTH",
"-22 -237 OFFCURVE",
"-218 -216 OFFCURVE",
"-199 -71 CURVE SMOOTH",
"-198 -62 OFFCURVE",
"-211 -61 OFFCURVE",
"-212 -70 CURVE SMOOTH",
"-242 -247 OFFCURVE",
"-28 -250 OFFCURVE",
"99 -200 CURVE SMOOTH"
);
},
{
closed = 1;
nodes = (
"265 -16 OFFCURVE",
"219 -11 OFFCURVE",
"180 6 CURVE SMOOTH",
"34 68 OFFCURVE",
"33 229 OFFCURVE",
"99 366 CURVE",
"115 329 OFFCURVE",
"141 297 OFFCURVE",
"179 276 CURVE",
"154 202 OFFCURVE",
"238 130 OFFCURVE",
"366 210 CURVE SMOOTH",
"433 252 OFFCURVE",
"476 299 OFFCURVE",
"502 346 CURVE",
"536 348 OFFCURVE",
"571 351 OFFCURVE",
"605 354 CURVE",
"531 259 OFFCURVE",
"457 161 OFFCURVE",
"385 74 CURVE SMOOTH",
"363 47 OFFCURVE",
"340 19 OFFCURVE",
"316 -9 CURVE"
);
},
{
closed = 1;
nodes = (
"245 153 OFFCURVE",
"191 201 OFFCURVE",
"228 256 CURVE",
"254 248 OFFCURVE",
"285 245 OFFCURVE",
"318 246 CURVE SMOOTH",
"332 246 OFFCURVE",
"330 256 OFFCURVE",
"317 256 CURVE SMOOTH",
"286 255 OFFCURVE",
"259 258 OFFCURVE",
"235 265 CURVE",
"263 297 OFFCURVE",
"322 329 OFFCURVE",
"419 338 CURVE SMOOTH",
"487 344 LINE",
"462 303 OFFCURVE",
"421 260 OFFCURVE",
"358 222 CURVE SMOOTH"
);
},
{
closed = 1;
nodes = (
"381 20 OFFCURVE",
"396 38 OFFCURVE",
"411 55 CURVE SMOOTH",
"491 149 OFFCURVE",
"574 257 OFFCURVE",
"655 359 CURVE",
"732 368 LINE",
"720 343 OFFCURVE",
"706 316 OFFCURVE",
"689 288 CURVE SMOOTH",
"590 124 OFFCURVE",
"471 35 OFFCURVE",
"365 3 CURVE"
);
},
{
closed = 1;
nodes = (
"147 313 OFFCURVE",
"124 350 OFFCURVE",
"113 393 CURVE",
"281 693 OFFCURVE",
"590 617 OFFCURVE",
"509 391 CURVE",
"462 389 OFFCURVE",
"416 386 OFFCURVE",
"372 382 CURVE SMOOTH",
"265 371 OFFCURVE",
"206 331 OFFCURVE",
"185 288 CURVE"
);
},
{
closed = 1;
nodes = (
"604 630 OFFCURVE",
"282 713 OFFCURVE",
"107 433 CURVE",
"96 590 OFFCURVE",
"238 792 OFFCURVE",
"505 778 CURVE SMOOTH",
"645 770 OFFCURVE",
"757 693 OFFCURVE",
"770 558 CURVE",
"727 508 OFFCURVE",
"683 453 OFFCURVE",
"638 396 CURVE",
"522 391 LINE"
);
},
{
closed = 1;
nodes = (
"715 434 OFFCURVE",
"742 468 OFFCURVE",
"769 500 CURVE",
"766 470 OFFCURVE",
"759 438 OFFCURVE",
"746 404 CURVE",
"687 399 LINE"
);
},
{
closed = 1;
nodes = (
"784 450 OFFCURVE",
"792 490 OFFCURVE",
"793 527 CURVE",
"865 610 OFFCURVE",
"934 678 OFFCURVE",
"996 715 CURVE SMOOTH",
"1212 841 OFFCURVE",
"1352 675 OFFCURVE",
"1078 503 CURVE SMOOTH",
"1038 478 OFFCURVE",
"994 459 OFFCURVE",
"949 444 CURVE",
"1015 545 OFFCURVE",
"1088 640 OFFCURVE",
"1143 694 CURVE",
"1152 700 OFFCURVE",
"1146 715 OFFCURVE",
"1134 703 CURVE SMOOTH",
"1064 626 OFFCURVE",
"962 530 OFFCURVE",
"877 425 CURVE",
"842 417 OFFCURVE",
"806 411 OFFCURVE",
"769 407 CURVE"
);
}
);
width = 917;
}
);
note = A;
unicode = 0041;
},
{
glyphname = AE;
lastChange = "2021-09-23 18:48:50 +0000";
layers = (
{
hints = (
{
horizontal = 1;
place = "{-133, 28}";
type = Stem;
},
{
horizontal = 1;
place = "{59, 10}";
type = Stem;
},
{
horizontal = 1;
place = "{288, 13}";
type = Stem;
},
{
horizontal = 1;
place = "{316, 18}";
type = Stem;
},
{
horizontal = 1;
place = "{357, 14}";
type = Stem;
},
{
horizontal = 1;
place = "{444, 21}";
target = up;
type = BottomGhost;
},
{
horizontal = 1;
place = "{533, 14}";
type = Stem;
},
{
horizontal = 1;
place = "{713, 14}";
type = Stem;
},
{
place = "{3, 38}";
type = Stem;
},
{
place = "{424, 24}";
type = Stem;
},
{
place = "{457, 37}";
type = Stem;
},
{
place = "{852, 16}";
type = Stem;
},
{
place = "{984, 71}";
type = Stem;
},
{
place = "{1404, 25}";
type = Stem;
},
{
place = "{1584, 45}";
type = Stem;
},
{
place = "{1635, 25}";
type = Stem;
}
);
layerId = "32B14CDE-4F96-422E-BD5E-1145416534B1";
paths = (
{
closed = 1;
nodes = (
"539 -133 OFFCURVE",
"709 93 OFFCURVE",
"846 288 CURVE",
"1030 288 LINE",
"1003 241 OFFCURVE",
"984 195 OFFCURVE",
"984 139 CURVE SMOOTH",
"984 -13 OFFCURVE",
"1110 -91 OFFCURVE",
"1250 -91 CURVE SMOOTH",
"1407 -91 OFFCURVE",
"1629 4 OFFCURVE",
"1629 188 CURVE SMOOTH",
"1629 261 OFFCURVE",
"1586 313 OFFCURVE",
"1510 313 CURVE SMOOTH",
"1465 313 OFFCURVE",
"1420 296 OFFCURVE",
"1404 250 CURVE",
"1403 245 OFFCURVE",
"1399 232 OFFCURVE",
"1399 227 CURVE SMOOTH",
"1399 223 OFFCURVE",
"1401 207 OFFCURVE",
"1409 207 CURVE SMOOTH",
"1415 207 OFFCURVE",
"1413 224 OFFCURVE",
"1413 227 CURVE SMOOTH",
"1413 273 OFFCURVE",
"1456 298 OFFCURVE",
"1497 298 CURVE SMOOTH",
"1559 298 OFFCURVE",
"1584 254 OFFCURVE",
"1584 197 CURVE SMOOTH",
"1584 37 OFFCURVE",
"1417 -73 OFFCURVE",
"1269 -73 CURVE SMOOTH",
"1144 -73 OFFCURVE",
"1055 8 OFFCURVE",
"1055 135 CURVE SMOOTH",
"1055 175 OFFCURVE",
"1065 216 OFFCURVE",
"1082 253 CURVE SMOOTH",
"1131 365 OFFCURVE",
"1235 423 OFFCURVE",
"1350 444 CURVE",
"1385 418 OFFCURVE",
"1430 403 OFFCURVE",
"1474 403 CURVE SMOOTH",
"1489 403 OFFCURVE",
"1518 407 OFFCURVE",
"1518 428 CURVE SMOOTH",
"1518 465 OFFCURVE",
"1410 465 OFFCURVE",
"1383 465 CURVE SMOOTH",
"1373 465 OFFCURVE",
"1363 465 OFFCURVE",
"1353 464 CURVE",
"1339 482 OFFCURVE",
"1334 495 OFFCURVE",
"1334 518 CURVE",
"1376 516 OFFCURVE",
"1429 537 OFFCURVE",
"1429 586 CURVE SMOOTH",
"1429 614 OFFCURVE",
"1403 639 OFFCURVE",
"1379 650 CURVE",
"1417 695 OFFCURVE",
"1471 713 OFFCURVE",
"1529 713 CURVE SMOOTH",
"1581 713 OFFCURVE",
"1636 689 OFFCURVE",
"1636 629 CURVE SMOOTH",
"1636 579 OFFCURVE",
"1584 547 OFFCURVE",
"1538 547 CURVE SMOOTH",
"1525 547 OFFCURVE",
"1514 558 OFFCURVE",
"1514 570 CURVE SMOOTH",
"1514 576 OFFCURVE",
"1518 580 OFFCURVE",
"1518 585 CURVE SMOOTH",
"1518 587 OFFCURVE",
"1517 589 OFFCURVE",
"1514 589 CURVE SMOOTH",
"1511 589 OFFCURVE",
"1509 585 OFFCURVE",
"1509 582 CURVE",
"1507 579 OFFCURVE",
"1507 575 OFFCURVE",
"1507 571 CURVE SMOOTH",
"1507 544 OFFCURVE",
"1542 533 OFFCURVE",
"1563 533 CURVE SMOOTH",
"1615 533 OFFCURVE",
"1660 579 OFFCURVE",
"1660 630 CURVE SMOOTH",
"1660 711 OFFCURVE",
"1585 727 OFFCURVE",
"1519 727 CURVE SMOOTH",
"1457 727 OFFCURVE",
"1380 708 OFFCURVE",
"1337 658 CURVE",
"1276 663 OFFCURVE",
"1191 645 OFFCURVE",
"1141 606 CURVE",
"1120 620 OFFCURVE",
"1097 632 OFFCURVE",
"1074 643 CURVE SMOOTH",
"977 691 OFFCURVE",
"865 732 OFFCURVE",
"757 742 CURVE SMOOTH",
"748 743 OFFCURVE",
"739 743 OFFCURVE",
"729 743 CURVE SMOOTH",
"595 743 OFFCURVE",
"457 659 OFFCURVE",
"457 512 CURVE SMOOTH",
"457 396 OFFCURVE",
"550 316 OFFCURVE",
"663 316 CURVE SMOOTH",
"687 316 OFFCURVE",
"711 319 OFFCURVE",
"734 325 CURVE SMOOTH",
"800 342 OFFCURVE",
"868 400 OFFCURVE",
"868 473 CURVE SMOOTH",
"868 501 OFFCURVE",
"855 526 OFFCURVE",
"830 539 CURVE",
"828 539 OFFCURVE",
"825 540 OFFCURVE",
"822 540 CURVE SMOOTH",
"821 540 OFFCURVE",
"819 540 OFFCURVE",
"819 538 CURVE SMOOTH",
"819 537 OFFCURVE",
"820 535 OFFCURVE",
"821 534 CURVE",
"841 523 OFFCURVE",
"852 503 OFFCURVE",
"852 480 CURVE SMOOTH",
"852 410 OFFCURVE",
"774 344 OFFCURVE",
"708 336 CURVE SMOOTH",
"696 335 OFFCURVE",
"684 334 OFFCURVE",
"672 334 CURVE SMOOTH",
"605 334 OFFCURVE",
"545 358 OFFCURVE",
"514 421 CURVE SMOOTH",
"502 447 OFFCURVE",
"494 475 OFFCURVE",
"494 503 CURVE SMOOTH",
"494 636 OFFCURVE",
"646 697 OFFCURVE",
"759 697 CURVE SMOOTH",
"795 697 OFFCURVE",
"832 692 OFFCURVE",
"867 682 CURVE SMOOTH",
"953 659 OFFCURVE",
"1041 631 OFFCURVE",
"1123 597 CURVE",
"1017 536 OFFCURVE",
"871 349 OFFCURVE",
"800 254 CURVE SMOOTH",
"683 96 OFFCURVE",
"507 -105 OFFCURVE",
"292 -105 CURVE SMOOTH",
"148 -105 OFFCURVE",
"41 -20 OFFCURVE",
"41 129 CURVE SMOOTH",
"41 263 OFFCURVE",
"135 357 OFFCURVE",
"269 357 CURVE SMOOTH",
"355 357 OFFCURVE",
"425 303 OFFCURVE",
"425 213 CURVE SMOOTH",
"425 124 OFFCURVE",
"366 69 OFFCURVE",
"280 69 CURVE SMOOTH",
"269 69 OFFCURVE",
"240 70 OFFCURVE",
"231 75 CURVE",
"230 76 OFFCURVE",
"229 77 OFFCURVE",
"227 77 CURVE SMOOTH",
"225 77 OFFCURVE",
"222 74 OFFCURVE",
"221 71 CURVE",
"222 69 LINE",
"234 61 OFFCURVE",
"270 59 OFFCURVE",
"284 59 CURVE SMOOTH",
"377 59 OFFCURVE",
"449 113 OFFCURVE",
"449 211 CURVE SMOOTH",
"449 313 OFFCURVE",
"350 371 OFFCURVE",
"258 371 CURVE SMOOTH",
"116 371 OFFCURVE",
"3 259 OFFCURVE",
"3 118 CURVE SMOOTH",
"3 -39 OFFCURVE",
"126 -133 OFFCURVE",
"276 -133 CURVE SMOOTH"
);
},
{
closed = 1;
nodes = (
"917 390 OFFCURVE",
"1045 536 OFFCURVE",
"1135 592 CURVE",
"1171 576 OFFCURVE",
"1205 559 OFFCURVE",
"1243 546 CURVE",
"1152 465 OFFCURVE",
"1102 407 OFFCURVE",
"1039 303 CURVE SMOOTH",
"1037 300 LINE",
"855 300 LINE"
);
},
{
closed = 1;
nodes = (
"1180 455 OFFCURVE",
"1213 500 OFFCURVE",
"1252 540 CURVE",
"1266 534 OFFCURVE",
"1281 530 OFFCURVE",
"1295 526 CURVE",
"1299 498 OFFCURVE",
"1311 482 OFFCURVE",
"1330 462 CURVE",
"1268 456 OFFCURVE",
"1207 439 OFFCURVE",
"1153 407 CURVE"
);
},
{
closed = 1;
nodes = (
"1285 542 OFFCURVE",
"1205 577 OFFCURVE",
"1151 602 CURVE",
"1186 623 OFFCURVE",
"1271 645 OFFCURVE",
"1311 645 CURVE SMOOTH",
"1343 645 OFFCURVE",
"1404 630 OFFCURVE",
"1404 589 CURVE SMOOTH",
"1404 554 OFFCURVE",
"1375 542 OFFCURVE",
"1344 542 CURVE SMOOTH"
);
}
);
width = 1647;
}
);
note = AE;
unicode = 00C6;
},
{
glyphname = B;
lastChange = "2021-09-23 18:48:50 +0000";
layers = (
{
hints = (
{
horizontal = 1;
place = "{-287, 13}";
type = Stem;
},
{
horizontal = 1;
place = "{-197, 11}";
type = Stem;
},
{
horizontal = 1;
place = "{346, 10}";
type = Stem;
},
{
horizontal = 1;
place = "{433, 10}";
type = Stem;
},
{
horizontal = 1;
place = "{698, 11}";
type = Stem;
},
{
horizontal = 1;
place = "{802, 10}";
type = Stem;
},
{
place = "{-323, 14}";
type = Stem;
},
{
place = "{30, 30}";
type = Stem;
},
{
place = "{826, 71}";
type = Stem;
}
);
layerId = "32B14CDE-4F96-422E-BD5E-1145416534B1";
paths = (
{
closed = 1;
nodes = (
"34 -263 OFFCURVE",
"128 -211 OFFCURVE",
"208 -138 CURVE",
"275 -180 OFFCURVE",
"360 -202 OFFCURVE",
"465 -196 CURVE SMOOTH",
"471 -196 OFFCURVE",
"471 -186 OFFCURVE",
"464 -186 CURVE SMOOTH",
"364 -192 OFFCURVE",
"283 -169 OFFCURVE",
"221 -127 CURVE",
"259 -91 OFFCURVE",
"295 -50 OFFCURVE",
"327 -6 CURVE",
"367 -38 OFFCURVE",
"424 -59 OFFCURVE",
"502 -61 CURVE SMOOTH",
"880 -72 OFFCURVE",
"1004 279 OFFCURVE",
"800 401 CURVE",
"999 525 OFFCURVE",
"1043 812 OFFCURVE",
"658 812 CURVE SMOOTH",
"48 812 OFFCURVE",
"-123 137 OFFCURVE",
"168 -109 CURVE",
"106 -179 OFFCURVE",
"35 -236 OFFCURVE",
"-45 -261 CURVE SMOOTH",
"-161 -297 OFFCURVE",
"-325 -266 OFFCURVE",
"-307 -133 CURVE SMOOTH",
"-306 -124 OFFCURVE",
"-319 -123 OFFCURVE",
"-320 -132 CURVE SMOOTH",
"-345 -282 OFFCURVE",
"-197 -301 OFFCURVE",
"-72 -280 CURVE SMOOTH"
);
},
{
closed = 1;
nodes = (
"427 -49 OFFCURVE",
"371 -28 OFFCURVE",
"333 3 CURVE",
"387 77 OFFCURVE",
"432 160 OFFCURVE",
"469 244 CURVE SMOOTH",
"488 288 OFFCURVE",
"508 330 OFFCURVE",
"528 370 CURVE",
"537 356 OFFCURVE",
"561 346 OFFCURVE",
"606 346 CURVE SMOOTH",
"665 346 OFFCURVE",
"721 360 OFFCURVE",
"769 384 CURVE",
"904 260 OFFCURVE",
"795 -59 OFFCURVE",
"502 -51 CURVE SMOOTH"
);
},
{
closed = 1;
nodes = (
"-82 152 OFFCURVE",
"86 802 OFFCURVE",
"658 802 CURVE SMOOTH",
"966 802 OFFCURVE",
"914 542 OFFCURVE",
"765 419 CURVE",
"727 434 OFFCURVE",
"681 443 OFFCURVE",
"626 443 CURVE SMOOTH",
"599 443 OFFCURVE",
"575 436 OFFCURVE",
"557 426 CURVE",
"650 599 OFFCURVE",
"750 717 OFFCURVE",
"826 695 CURVE SMOOTH",
"832 693 OFFCURVE",
"835 703 OFFCURVE",
"829 705 CURVE SMOOTH",
"713 737 OFFCURVE",
"573 569 OFFCURVE",
"419 291 CURVE SMOOTH",
"383 225 OFFCURVE",
"339 141 OFFCURVE",
"288 58 CURVE",
"234 156 OFFCURVE",
"277 291 OFFCURVE",
"360 335 CURVE SMOOTH",
"366 338 OFFCURVE",
"361 347 OFFCURVE",
"355 343 CURVE",
"267 297 OFFCURVE",
"221 151 OFFCURVE",
"281 47 CURVE",
"250 -2 OFFCURVE",
"217 -50 OFFCURVE",
"180 -94 CURVE"
);
},
{
closed = 1;
nodes = (
"556 356 OFFCURVE",
"535 368 OFFCURVE",
"534 383 CURVE",
"546 406 LINE",
"562 421 OFFCURVE",
"592 433 OFFCURVE",
"626 433 CURVE SMOOTH",
"674 433 OFFCURVE",
"713 422 OFFCURVE",
"744 403 CURVE",
"702 374 OFFCURVE",
"655 356 OFFCURVE",
"606 356 CURVE SMOOTH"
);
}
);
width = 907;
}
);
note = B;
unicode = 0042;
},
{
glyphname = C;
lastChange = "2021-09-23 20:34:04 +0000";
layers = (
{
hints = (
{
horizontal = 1;
place = "{-72, 17}";
type = Stem;
},
{
horizontal = 1;
place = "{78, 23}";
type = Stem;
},
{
horizontal = 1;
place = "{358, 16}";
type = Stem;
},
{
horizontal = 1;
place = "{592, 13}";
type = Stem;
},
{
horizontal = 1;
place = "{743, 18}";
type = Stem;
},
{
place = "{-15, 25}";
type = Stem;
},
{
place = "{18, 28}";
type = Stem;
},
{
place = "{608, 16}";
type = Stem;
},
{
place = "{860, 23}";
type = Stem;
}
);
layerId = "32B14CDE-4F96-422E-BD5E-1145416534B1";
paths = (
{
closed = 1;
nodes = (
"570 39 OFFCURVE",
"651 120 OFFCURVE",
"695 197 CURVE SMOOTH",
"700 205 OFFCURVE",
"687 212 OFFCURVE",
"683 204 CURVE SMOOTH",
"644 137 OFFCURVE",
"560 56 OFFCURVE",
"467 2 CURVE SMOOTH",
"277 -108 OFFCURVE",
"139 -52 OFFCURVE",
"142 120 CURVE",
"351 9 OFFCURVE",
"651 127 OFFCURVE",
"622 357 CURVE SMOOTH",
"621 370 OFFCURVE",
"618 383 OFFCURVE",
"615 395 CURVE",
"639 404 OFFCURVE",
"661 414 OFFCURVE",
"682 425 CURVE SMOOTH",
"967 577 OFFCURVE",
"961 862 OFFCURVE",
"590 723 CURVE SMOOTH",
"541 705 OFFCURVE",
"491 680 OFFCURVE",
"442 651 CURVE",
"427 663 OFFCURVE",
"412 673 OFFCURVE",
"397 683 CURVE SMOOTH",
"140 846 OFFCURVE",
"-52 693 OFFCURVE",
"37 545 CURVE SMOOTH",
"46 530 LINE",
"45 528 LINE",
"-28 436 OFFCURVE",
"-49 281 OFFCURVE",
"69 172 CURVE",
"46 -54 OFFCURVE",
"263 -139 OFFCURVE",
"478 -14 CURVE SMOOTH"
);
},
{
closed = 1;
nodes = (
"-13 307 OFFCURVE",
"-8 434 OFFCURVE",
"52 509 CURVE SMOOTH",
"56 514 LINE",
"86 471 OFFCURVE",
"125 438 OFFCURVE",
"170 413 CURVE",
"138 372 OFFCURVE",
"113 329 OFFCURVE",
"97 288 CURVE SMOOTH",
"87 261 OFFCURVE",
"80 236 OFFCURVE",
"75 212 CURVE"
);
},
{
closed = 1;
nodes = (
"156 149 OFFCURVE",
"150 152 OFFCURVE",
"145 156 CURVE",
"148 186 OFFCURVE",
"156 220 OFFCURVE",
"167 257 CURVE SMOOTH",
"182 301 OFFCURVE",
"203 345 OFFCURVE",
"229 386 CURVE",
"345 345 OFFCURVE",
"484 351 OFFCURVE",
"601 390 CURVE",
"605 369 LINE SMOOTH",
"647 146 OFFCURVE",
"372 32 OFFCURVE",
"161 146 CURVE SMOOTH"
);
},
{
closed = 1;
nodes = (
"140 455 OFFCURVE",
"103 489 OFFCURVE",
"74 532 CURVE SMOOTH",
"72 535 LINE",
"116 583 OFFCURVE",
"177 605 OFFCURVE",
"231 585 CURVE SMOOTH",
"240 581 OFFCURVE",
"247 590 OFFCURVE",
"238 594 CURVE SMOOTH",
"180 620 OFFCURVE",
"113 599 OFFCURVE",
"64 550 CURVE",
"-16 699 OFFCURVE",
"188 795 OFFCURVE",
"389 659 CURVE SMOOTH",
"420 638 LINE",
"330 580 OFFCURVE",
"245 507 OFFCURVE",
"183 430 CURVE"
);
},
{
closed = 1;
nodes = (
"295 484 OFFCURVE",
"370 557 OFFCURVE",
"450 615 CURVE",
"516 560 OFFCURVE",
"573 487 OFFCURVE",
"597 405 CURVE",
"486 367 OFFCURVE",
"352 361 OFFCURVE",
"240 403 CURVE"
);
},
{
closed = 1;
nodes = (
"587 492 OFFCURVE",
"533 570 OFFCURVE",
"469 628 CURVE",
"510 657 OFFCURVE",
"553 681 OFFCURVE",
"596 699 CURVE SMOOTH",
"933 847 OFFCURVE",
"936 584 OFFCURVE",
"672 439 CURVE SMOOTH",
"653 428 OFFCURVE",
"633 419 OFFCURVE",
"611 410 CURVE"
);
}
);
width = 710;
}
);
note = C;
unicode = 0043;
},
{
glyphname = D;
lastChange = "2021-09-23 18:48:50 +0000";
layers = (
{
hints = (
{
horizontal = 1;
place = "{-263, 23}";
type = Stem;
},
{
horizontal = 1;
place = "{-74, 16}";
type = Stem;
},
{
horizontal = 1;
place = "{248, 18}";
type = Stem;
},
{
horizontal = 1;
place = "{400, 27}";
type = Stem;
},
{
horizontal = 1;
place = "{698, 11}";
type = Stem;
},
{
horizontal = 1;
place = "{802, 19}";
type = Stem;
},
{
place = "{-98, 17}";
type = Stem;
},
{
place = "{26, 15}";
type = Stem;
},
{
place = "{69, 31}";
type = Stem;
},
{
place = "{542, 15}";
type = Stem;
},
{
place = "{965, 75}";
type = Stem;
}
);
layerId = "32B14CDE-4F96-422E-BD5E-1145416534B1";
paths = (
{
closed = 1;
nodes = (
"96 -313 OFFCURVE",
"449 -325 OFFCURVE",
"539 -69 CURVE",
"789 -36 OFFCURVE",
"1025 181 OFFCURVE",
"1040 444 CURVE SMOOTH",
"1054 690 OFFCURVE",
"833 825 OFFCURVE",
"590 821 CURVE SMOOTH",
"132 813 OFFCURVE",
"-42 453 OFFCURVE",
"78 308 CURVE",
"73 290 OFFCURVE",
"69 270 OFFCURVE",
"69 248 CURVE SMOOTH",
"67 129 OFFCURVE",
"146 36 OFFCURVE",
"250 -18 CURVE",
"220 -51 OFFCURVE",
"185 -78 OFFCURVE",
"141 -92 CURVE SMOOTH",
"112 -101 OFFCURVE",
"79 -105 OFFCURVE",
"47 -103 CURVE",
"44 -89 OFFCURVE",
"41 -74 OFFCURVE",
"41 -58 CURVE SMOOTH",
"41 -44 OFFCURVE",
"45 -28 OFFCURVE",
"60 -23 CURVE SMOOTH",
"89 -13 OFFCURVE",
"26 13 OFFCURVE",
"26 -58 CURVE SMOOTH",
"26 -73 OFFCURVE",
"28 -88 OFFCURVE",
"31 -101 CURVE",
"-35 -93 OFFCURVE",
"-89 -57 OFFCURVE",
"-80 16 CURVE SMOOTH",
"-79 23 OFFCURVE",
"-94 24 OFFCURVE",
"-95 17 CURVE SMOOTH",
"-111 -74 OFFCURVE",
"-43 -111 OFFCURVE",
"35 -119 CURVE"
);
},
{
closed = 1;
nodes = (
"79 -121 OFFCURVE",
"104 -119 OFFCURVE",
"128 -115 CURVE SMOOTH",
"198 -104 OFFCURVE",
"253 -76 OFFCURVE",
"297 -39 CURVE",
"351 -61 OFFCURVE",
"409 -72 OFFCURVE",
"464 -74 CURVE SMOOTH",
"483 -74 OFFCURVE",
"503 -73 OFFCURVE",
"522 -71 CURVE",
"437 -294 OFFCURVE",
"119 -281 OFFCURVE",
"53 -120 CURVE"
);
},
{
closed = 1;
nodes = (
"165 49 OFFCURVE",
"92 136 OFFCURVE",
"100 246 CURVE SMOOTH",
"101 259 OFFCURVE",
"103 271 OFFCURVE",
"106 282 CURVE",
"137 260 OFFCURVE",
"180 247 OFFCURVE",
"235 248 CURVE SMOOTH",
"300 250 OFFCURVE",
"365 289 OFFCURVE",
"388 365 CURVE",
"407 353 OFFCURVE",
"425 339 OFFCURVE",
"441 321 CURVE",
"402 243 OFFCURVE",
"365 164 OFFCURVE",
"321 86 CURVE SMOOTH",
"304 55 OFFCURVE",
"285 24 OFFCURVE",
"262 -4 CURVE"
);
},
{
closed = 1;
nodes = (
"412 -56 OFFCURVE",
"360 -45 OFFCURVE",
"312 -26 CURVE",
"392 48 OFFCURVE",
"434 153 OFFCURVE",
"469 234 CURVE SMOOTH",
"482 264 LINE",
"521 197 OFFCURVE",
"543 118 OFFCURVE",
"543 50 CURVE SMOOTH",
"543 11 OFFCURVE",
"537 -23 OFFCURVE",
"528 -54 CURVE",
"506 -57 OFFCURVE",
"483 -59 OFFCURVE",
"461 -58 CURVE SMOOTH"
);
},
{
closed = 1;
nodes = (
"179 267 OFFCURVE",
"142 287 OFFCURVE",
"119 317 CURVE",
"166 406 OFFCURVE",
"284 422 OFFCURVE",
"378 370 CURVE",
"356 300 OFFCURVE",
"288 265 OFFCURVE",
"231 266 CURVE SMOOTH"
);
},
{
closed = 1;
nodes = (
"554 -18 OFFCURVE",
"558 16 OFFCURVE",
"558 50 CURVE SMOOTH",
"558 125 OFFCURVE",
"533 210 OFFCURVE",
"490 281 CURVE",
"601 524 OFFCURVE",
"731 722 OFFCURVE",
"826 695 CURVE SMOOTH",
"832 693 OFFCURVE",
"835 703 OFFCURVE",
"829 705 CURVE SMOOTH",
"752 726 OFFCURVE",
"663 661 OFFCURVE",
"567 531 CURVE SMOOTH",
"521 468 OFFCURVE",
"483 402 OFFCURVE",
"449 335 CURVE",
"431 354 OFFCURVE",
"412 370 OFFCURVE",
"392 383 CURVE",
"394 391 OFFCURVE",
"395 400 OFFCURVE",
"395 409 CURVE SMOOTH",
"396 421 OFFCURVE",
"386 422 OFFCURVE",
"386 410 CURVE",
"383 389 LINE",
"280 451 OFFCURVE",
"158 436 OFFCURVE",
"101 354 CURVE",
"52 504 OFFCURVE",
"228 795 OFFCURVE",
"587 802 CURVE SMOOTH",
"789 806 OFFCURVE",
"965 688 OFFCURVE",
"965 440 CURVE SMOOTH",
"965 210 OFFCURVE",
"763 -10 OFFCURVE",
"544 -51 CURVE"
);
}
);
width = 989;
}
);
note = D;
unicode = 0044;
},
{
glyphname = E;
lastChange = "2021-09-23 18:48:50 +0000";
layers = (
{
hints = (
{
horizontal = 1;
place = "{-302, 16}";
type = Stem;
},
{
horizontal = 1;
place = "{-130, 21}";
type = Stem;
},
{
horizontal = 1;
place = "{323, 15}";
type = Stem;
},
{
horizontal = 1;
place = "{344, 18}";
type = Stem;
},
{
horizontal = 1;
place = "{436, 15}";
type = Stem;
},
{
horizontal = 1;
place = "{505, 15}";
type = Stem;
},
{
horizontal = 1;
place = "{788, 16}";
type = Stem;
},
{
place = "{30, 28}";
type = Stem;
},
{
place = "{178, 15}";
type = Stem;
},
{
place = "{282, 14}";
type = Stem;
},
{
place = "{475, 15}";
type = Stem;
},
{
place = "{581, 15}";
type = Stem;
},
{
place = "{681, 39}";
type = Stem;
}
);
layerId = "32B14CDE-4F96-422E-BD5E-1145416534B1";
paths = (
{
closed = 1;
nodes = (
"520 -252 OFFCURVE",
"511 -240 OFFCURVE",
"503 -246 CURVE SMOOTH",
"397 -326 OFFCURVE",
"284 -284 OFFCURVE",
"297 -147 CURVE SMOOTH",
"300 -124 LINE",
"404 -107 OFFCURVE",
"501 -56 OFFCURVE",
"577 17 CURVE SMOOTH",
"619 58 OFFCURVE",
"674 127 OFFCURVE",
"701 195 CURVE SMOOTH",
"756 335 OFFCURVE",
"680 358 OFFCURVE",
"594 323 CURVE",
"600 387 OFFCURVE",
"586 454 OFFCURVE",
"560 514 CURVE",
"666 531 OFFCURVE",
"777 570 OFFCURVE",
"826 650 CURVE SMOOTH",
"873 729 OFFCURVE",
"804 804 OFFCURVE",
"669 804 CURVE SMOOTH",
"576 804 OFFCURVE",
"470 779 OFFCURVE",
"379 734 CURVE",
"67 969 OFFCURVE",
"-121 654 OFFCURVE",
"188 542 CURVE",
"186 537 LINE SMOOTH",
"168 484 OFFCURVE",
"179 440 OFFCURVE",
"206 408 CURVE",
"74 351 OFFCURVE",
"-42 243 OFFCURVE",
"-52 105 CURVE SMOOTH",
"-60 -8 OFFCURVE",
"52 -127 OFFCURVE",
"215 -130 CURVE SMOOTH",
"238 -131 OFFCURVE",
"261 -130 OFFCURVE",
"284 -127 CURVE",
"263 -281 OFFCURVE",
"382 -357 OFFCURVE",
"512 -258 CURVE SMOOTH"
);
},
{
closed = 1;
nodes = (
"1 -109 OFFCURVE",
"-44 271 OFFCURVE",
"216 397 CURVE",
"245 369 OFFCURVE",
"289 351 OFFCURVE",
"339 346 CURVE SMOOTH",
"493 328 OFFCURVE",
"556 455 OFFCURVE",
"394 451 CURVE SMOOTH",
"352 450 OFFCURVE",
"307 443 OFFCURVE",
"263 429 CURVE",
"255 446 OFFCURVE",
"252 467 OFFCURVE",
"254 492 CURVE SMOOTH",
"255 502 OFFCURVE",
"257 512 OFFCURVE",
"259 522 CURVE",
"309 511 OFFCURVE",
"369 505 OFFCURVE",
"439 505 CURVE SMOOTH",
"471 505 OFFCURVE",
"507 507 OFFCURVE",
"545 512 CURVE",
"572 450 OFFCURVE",
"586 382 OFFCURVE",
"579 315 CURVE",
"567 309 OFFCURVE",
"555 302 OFFCURVE",
"543 294 CURVE SMOOTH",
"467 242 OFFCURVE",
"394 154 OFFCURVE",
"345 56 CURVE",
"246 42 OFFCURVE",
"166 98 OFFCURVE",
"201 182 CURVE SMOOTH",
"205 191 OFFCURVE",
"191 197 OFFCURVE",
"187 188 CURVE SMOOTH",
"148 94 OFFCURVE",
"232 30 OFFCURVE",
"337 40 CURVE",
"314 -8 OFFCURVE",
"296 -58 OFFCURVE",
"288 -107 CURVE",
"275 -108 OFFCURVE",
"263 -109 OFFCURVE",
"251 -109 CURVE SMOOTH"
);
},
{
closed = 1;
nodes = (
"313 -58 OFFCURVE",
"331 -7 OFFCURVE",
"356 43 CURVE",
"424 55 OFFCURVE",
"499 99 OFFCURVE",
"551 187 CURVE SMOOTH",
"574 225 OFFCURVE",
"587 265 OFFCURVE",
"593 307 CURVE",
"663 341 OFFCURVE",
"711 326 OFFCURVE",
"659 197 CURVE SMOOTH",
"602 56 OFFCURVE",
"456 -78 OFFCURVE",
"303 -104 CURVE"
);
},
{
closed = 1;
nodes = (
"411 149 OFFCURVE",
"477 234 OFFCURVE",
"553 284 CURVE SMOOTH",
"576 298 LINE",
"570 262 OFFCURVE",
"558 228 OFFCURVE",
"539 195 CURVE SMOOTH",
"492 116 OFFCURVE",
"426 75 OFFCURVE",
"364 60 CURVE"
);
},
{
closed = 1;
nodes = (
"469 355 OFFCURVE",
"319 337 OFFCURVE",
"269 417 CURVE",
"306 429 OFFCURVE",
"347 435 OFFCURVE",
"394 436 CURVE SMOOTH",
"409 437 OFFCURVE",
"477 436 OFFCURVE",
"474 407 CURVE SMOOTH"
);
},
{
closed = 1;
nodes = (
"-77 652 OFFCURVE",
"101 905 OFFCURVE",
"363 726 CURVE",
"286 684 OFFCURVE",
"222 626 OFFCURVE",
"193 555 CURVE"
);
},
{
closed = 1;
nodes = (
"369 520 OFFCURVE",
"311 526 OFFCURVE",
"262 536 CURVE",
"281 606 OFFCURVE",
"330 663 OFFCURVE",
"392 705 CURVE",
"394 703 LINE SMOOTH",
"411 689 OFFCURVE",
"429 673 OFFCURVE",
"448 655 CURVE SMOOTH",
"483 619 OFFCURVE",
"514 576 OFFCURVE",
"538 528 CURVE",
"507 523 OFFCURVE",
"474 520 OFFCURVE",
"439 520 CURVE SMOOTH"
);
},
{
closed = 1;
nodes = (
"529 581 OFFCURVE",
"496 628 OFFCURVE",
"458 665 CURVE SMOOTH",
"441 683 OFFCURVE",
"423 699 OFFCURVE",
"406 713 CURVE",
"485 762 OFFCURVE",
"584 789 OFFCURVE",
"674 789 CURVE SMOOTH",
"859 789 OFFCURVE",
"802 581 OFFCURVE",
"553 531 CURVE"
);
}
);
width = 750;
}
);
note = E;
unicode = 0045;
},
{
glyphname = F;
lastChange = "2021-09-23 18:48:50 +0000";
layers = (
{
hints = (
{
horizontal = 1;
place = "{183, 15}";
type = Stem;
},
{
horizontal = 1;
place = "{536, 15}";
type = Stem;
},
{
horizontal = 1;
place = "{614, 15}";
type = Stem;
},
{
horizontal = 1;
place = "{763, 11}";
type = Stem;
},
{
place = "{14, 23}";
type = Stem;
},
{
place = "{39, 35}";
type = Stem;
},
{
place = "{489, 15}";
type = Stem;
},
{
place = "{606, 32}";
type = Stem;
},
{
place = "{770, 15}";
type = Stem;
},
{
place = "{928, 15}";
type = Stem;
},
{
place = "{1395, 15}";
type = Stem;
}
);
layerId = "32B14CDE-4F96-422E-BD5E-1145416534B1";
paths = (
{
closed = 1;
nodes = (
"249 -220 OFFCURVE",
"325 -199 OFFCURVE",
"393 -161 CURVE",
"586 -168 OFFCURVE",
"785 -53 OFFCURVE",
"785 147 CURVE SMOOTH",
"785 157 OFFCURVE",
"770 157 OFFCURVE",
"770 147 CURVE SMOOTH",
"770 -38 OFFCURVE",
"593 -147 OFFCURVE",
"418 -147 CURVE",
"576 -50 OFFCURVE",
"694 130 OFFCURVE",
"772 309 CURVE SMOOTH",
"781 331 OFFCURVE",
"791 353 OFFCURVE",
"801 375 CURVE",
"855 359 OFFCURVE",
"909 344 OFFCURVE",
"966 349 CURVE",
"940 303 OFFCURVE",
"926 254 OFFCURVE",
"927 235 CURVE SMOOTH",
"928 225 OFFCURVE",
"943 226 OFFCURVE",
"942 236 CURVE SMOOTH",
"940 263 OFFCURVE",
"962 313 OFFCURVE",
"987 352 CURVE",
"1013 359 OFFCURVE",
"1038 378 OFFCURVE",
"1051 408 CURVE SMOOTH",
"1057 421 OFFCURVE",
"1040 430 OFFCURVE",
"1031 424 CURVE SMOOTH",
"1010 410 OFFCURVE",
"992 388 OFFCURVE",
"976 365 CURVE",
"970 364 OFFCURVE",
"964 363 OFFCURVE",
"957 363 CURVE SMOOTH",
"903 363 OFFCURVE",
"855 378 OFFCURVE",
"811 396 CURVE",
"858 493 OFFCURVE",
"907 579 OFFCURVE",
"955 644 CURVE",
"1044 627 OFFCURVE",
"1132 614 OFFCURVE",
"1218 614 CURVE SMOOTH",
"1307 614 OFFCURVE",
"1414 659 OFFCURVE",
"1410 746 CURVE SMOOTH",
"1409 756 OFFCURVE",
"1394 756 OFFCURVE",
"1395 746 CURVE SMOOTH",
"1398 673 OFFCURVE",
"1307 629 OFFCURVE",
"1218 629 CURVE SMOOTH",
"1139 629 OFFCURVE",
"1057 646 OFFCURVE",
"975 669 CURVE",
"1030 737 OFFCURVE",
"1084 773 OFFCURVE",
"1128 760 CURVE SMOOTH",
"1134 758 OFFCURVE",
"1138 768 OFFCURVE",
"1132 770 CURVE SMOOTH",
"1074 786 OFFCURVE",
"1010 752 OFFCURVE",
"941 679 CURVE",
"771 729 OFFCURVE",
"595 799 OFFCURVE",
"424 799 CURVE SMOOTH",
"205 799 OFFCURVE",
"14 644 OFFCURVE",
"14 471 CURVE SMOOTH",
"14 408 OFFCURVE",
"32 355 OFFCURVE",
"62 313 CURVE",
"47 278 OFFCURVE",
"39 242 OFFCURVE",
"39 206 CURVE SMOOTH",
"39 -19 OFFCURVE",
"182 -132 OFFCURVE",
"342 -156 CURVE",
"289 -190 OFFCURVE",
"231 -210 OFFCURVE",
"168 -210 CURVE SMOOTH",
"162 -210 OFFCURVE",
"159 -220 OFFCURVE",
"166 -220 CURVE SMOOTH"
);
},
{
closed = 1;
nodes = (
"210 -122 OFFCURVE",
"74 -13 OFFCURVE",
"74 206 CURVE SMOOTH",
"74 232 OFFCURVE",
"78 258 OFFCURVE",
"86 284 CURVE",
"150 217 OFFCURVE",
"251 182 OFFCURVE",
"355 182 CURVE SMOOTH",
"545 182 OFFCURVE",
"653 308 OFFCURVE",
"636 412 CURVE",
"672 411 OFFCURVE",
"707 402 OFFCURVE",
"743 392 CURVE",
"722 356 LINE SMOOTH",
"641 209 OFFCURVE",
"524 -27 OFFCURVE",
"363 -143 CURVE"
);
},
{
closed = 1;
nodes = (
"245 197 OFFCURVE",
"149 232 OFFCURVE",
"92 303 CURVE",
"139 429 OFFCURVE",
"268 536 OFFCURVE",
"392 536 CURVE SMOOTH",
"500 536 OFFCURVE",
"564 500 OFFCURVE",
"590 451 CURVE",
"506 437 OFFCURVE",
"489 375 OFFCURVE",
"489 340 CURVE SMOOTH",
"489 330 OFFCURVE",
"504 330 OFFCURVE",
"504 340 CURVE SMOOTH",
"504 371 OFFCURVE",
"514 407 OFFCURVE",
"604 412 CURVE",
"620 315 OFFCURVE",
"522 197 OFFCURVE",
"355 197 CURVE SMOOTH"
);
},
{
closed = 1;
nodes = (
"49 373 OFFCURVE",
"37 420 OFFCURVE",
"37 477 CURVE SMOOTH",
"37 640 OFFCURVE",
"235 727 OFFCURVE",
"419 727 CURVE SMOOTH",
"584 727 OFFCURVE",
"752 684 OFFCURVE",
"916 651 CURVE",
"866 592 OFFCURVE",
"813 513 OFFCURVE",
"758 419 CURVE",
"717 436 OFFCURVE",
"674 454 OFFCURVE",
"630 454 CURVE SMOOTH",
"622 454 LINE",
"591 509 OFFCURVE",
"517 551 OFFCURVE",
"392 551 CURVE SMOOTH",
"270 551 OFFCURVE",
"133 453 OFFCURVE",
"72 333 CURVE"
);
}
);
width = 918;
}
);
note = F;
unicode = 0046;
},
{
glyphname = G;
lastChange = "2021-09-23 18:48:50 +0000";
layers = (
{
hints = (
{
horizontal = 1;
place = "{-375, 12}";
type = Stem;
},
{
horizontal = 1;
place = "{-187, 15}";
type = Stem;
},
{
horizontal = 1;
place = "{-24, 30}";
type = Stem;
},
{
horizontal = 1;
place = "{269, -20}";
target = down;
type = TopGhost;
},
{
horizontal = 1;
place = "{363, 15}";
type = Stem;
},
{
horizontal = 1;
place = "{610, 11}";
type = Stem;
},
{
horizontal = 1;
place = "{640, 17}";
type = Stem;
},
{
horizontal = 1;
place = "{773, 15}";
type = Stem;
},
{
place = "{-48, 16}";
type = Stem;
},
{
place = "{217, 80}";
type = Stem;
},
{
place = "{713, 27}";
type = Stem;
},
{
place = "{1013, 22}";
type = Stem;
}
);
layerId = "32B14CDE-4F96-422E-BD5E-1145416534B1";
paths = (
{
closed = 1;
nodes = (
"581 -375 OFFCURVE",
"776 -108 OFFCURVE",
"891 156 CURVE SMOOTH",
"1006 420 OFFCURVE",
"1148 636 OFFCURVE",
"1248 607 CURVE SMOOTH",
"1254 605 OFFCURVE",
"1258 615 OFFCURVE",
"1252 617 CURVE SMOOTH",
"1172 639 OFFCURVE",
"1082 567 OFFCURVE",
"983 431 CURVE",
"986 438 LINE SMOOTH",
"991 450 OFFCURVE",
"981 457 OFFCURVE",
"976 442 CURVE SMOOTH",
"967 420 OFFCURVE",
"957 398 OFFCURVE",
"945 375 CURVE",
"928 349 OFFCURVE",
"912 320 OFFCURVE",
"892 291 CURVE SMOOTH",
"849 227 OFFCURVE",
"792 170 OFFCURVE",
"732 122 CURVE",
"747 184 OFFCURVE",
"740 244 OFFCURVE",
"708 290 CURVE",
"787 318 OFFCURVE",
"862 362 OFFCURVE",
"929 429 CURVE SMOOTH",
"1161 661 OFFCURVE",
"991 902 OFFCURVE",
"635 729 CURVE SMOOTH",
"553 690 OFFCURVE",
"484 643 OFFCURVE",
"427 593 CURVE",
"386 611 OFFCURVE",
"341 626 OFFCURVE",
"297 638 CURVE SMOOTH",
"-107 744 OFFCURVE",
"-147 379 OFFCURVE",
"205 279 CURVE",
"85 188 OFFCURVE",
"10 50 OFFCURVE",
"-2 -76 CURVE",
"-32 -38 OFFCURVE",
"-42 13 OFFCURVE",
"-21 75 CURVE SMOOTH",
"-18 84 OFFCURVE",
"-32 89 OFFCURVE",
"-35 80 CURVE SMOOTH",
"-62 1 OFFCURVE",
"-45 -59 OFFCURVE",
"-3 -103 CURVE",
"-6 -250 OFFCURVE",
"82 -375 OFFCURVE",
"292 -375 CURVE SMOOTH"
);
},
{
closed = 1;
nodes = (
"110 -363 OFFCURVE",
"28 -257 OFFCURVE",
"24 -126 CURVE",
"126 -198 OFFCURVE",
"317 -204 OFFCURVE",
"460 -154 CURVE SMOOTH",
"597 -106 OFFCURVE",
"689 -5 OFFCURVE",
"724 96 CURVE",
"768 130 OFFCURVE",
"811 171 OFFCURVE",
"849 216 CURVE",
"842 203 LINE SMOOTH",
"730 3 OFFCURVE",
"560 -363 OFFCURVE",
"293 -363 CURVE SMOOTH"
);
},
{
closed = 1;
nodes = (
"306 -192 OFFCURVE",
"117 -180 OFFCURVE",
"24 -103 CURVE",
"28 26 OFFCURVE",
"103 173 OFFCURVE",
"225 267 CURVE",
"220 243 OFFCURVE",
"217 219 OFFCURVE",
"217 196 CURVE SMOOTH",
"215 -35 OFFCURVE",
"414 -69 OFFCURVE",
"608 24 CURVE SMOOTH",
"635 37 OFFCURVE",
"661 52 OFFCURVE",
"686 69 CURVE",
"648 -18 OFFCURVE",
"567 -100 OFFCURVE",
"455 -140 CURVE SMOOTH"
);
},
{
closed = 1;
nodes = (
"449 -28 OFFCURVE",
"297 0 OFFCURVE",
"297 190 CURVE SMOOTH",
"297 212 OFFCURVE",
"300 235 OFFCURVE",
"305 259 CURVE",
"429 244 OFFCURVE",
"561 244 OFFCURVE",
"684 282 CURVE",
"717 232 OFFCURVE",
"720 164 OFFCURVE",
"697 96 CURVE",
"665 74 OFFCURVE",
"633 55 OFFCURVE",
"600 40 CURVE SMOOTH"
);
},
{
closed = 1;
nodes = (
"-95 397 OFFCURVE",
"-100 723 OFFCURVE",
"293 620 CURVE SMOOTH",
"333 610 OFFCURVE",
"374 596 OFFCURVE",
"413 580 CURVE",
"318 491 OFFCURVE",
"258 392 OFFCURVE",
"232 300 CURVE"
);
},
{
closed = 1;
nodes = (
"313 296 OFFCURVE",
"318 311 OFFCURVE",
"323 326 CURVE",
"376 349 OFFCURVE",
"435 363 OFFCURVE",
"499 363 CURVE SMOOTH",
"581 363 OFFCURVE",
"638 337 OFFCURVE",
"672 298 CURVE",
"553 263 OFFCURVE",
"426 263 OFFCURVE",
"310 282 CURVE"
);
},
{
closed = 1;
nodes = (
"657 349 OFFCURVE",
"593 378 OFFCURVE",
"499 378 CURVE SMOOTH",
"439 378 OFFCURVE",
"382 367 OFFCURVE",
"331 348 CURVE",
"359 418 OFFCURVE",
"404 491 OFFCURVE",
"463 557 CURVE",
"544 517 OFFCURVE",
"609 470 OFFCURVE",
"629 429 CURVE SMOOTH",
"635 416 OFFCURVE",
"653 419 OFFCURVE",
"644 438 CURVE SMOOTH",
"624 479 OFFCURVE",
"558 529 OFFCURVE",
"475 570 CURVE",
"521 619 OFFCURVE",
"574 663 OFFCURVE",
"633 698 CURVE SMOOTH",
"977 903 OFFCURVE",
"1121 643 OFFCURVE",
"925 447 CURVE SMOOTH",
"856 379 OFFCURVE",
"778 334 OFFCURVE",
"696 306 CURVE"
);
}
);
width = 975;
}
);
note = G;
unicode = 0047;
},
{
glyphname = H;
lastChange = "2021-09-23 20:37:23 +0000";
layers = (
{
background = {
paths = (
{
closed = 1;
nodes = (
"836 16 OFFCURVE",
"856 -40 OFFCURVE",
"908 -54 CURVE SMOOTH",
"988 -76 OFFCURVE",
"1090 69 OFFCURVE",
"1149 189 CURVE SMOOTH",
"1153 197 OFFCURVE",
"1142 201 OFFCURVE",
"1138 192 CURVE SMOOTH",
"1079 68 OFFCURVE",
"969 -54 OFFCURVE",
"925 -30 CURVE",
"892 -30 OFFCURVE",
"846 37 OFFCURVE",
"832 71 CURVE"
);
}
);
};
hints = (
{
horizontal = 1;
place = "{345, 11}";
type = Stem;
},
{
horizontal = 1;
place = "{369, 9}";
type = Stem;
},
{
horizontal = 1;
place = "{529, 8}";
type = Stem;
},
{
horizontal = 1;
place = "{553, 13}";
type = Stem;
},
{
place = "{1072, 17}";
type = Stem;
}
);
layerId = "32B14CDE-4F96-422E-BD5E-1145416534B1";
paths = (
{
closed = 1;
nodes = (
"300 -127 OFFCURVE",
"408 -45 OFFCURVE",
"493 61 CURVE",
"721 96 OFFCURVE",
"802 235 OFFCURVE",
"755 340 CURVE",
"859 340 LINE SMOOTH",
"869 340 OFFCURVE",
"892 341 OFFCURVE",
"920 343 CURVE",
"874 263 OFFCURVE",
"732 -54 OFFCURVE",
"908 -54 CURVE SMOOTH",
"1006 -54 OFFCURVE",
"1090 69 OFFCURVE",
"1149 189 CURVE SMOOTH",
"1153 197 OFFCURVE",
"1142 201 OFFCURVE",
"1138 192 CURVE SMOOTH",
"1079 68 OFFCURVE",
"987 -30 OFFCURVE",
"925 -30 CURVE SMOOTH",
"829 -30 OFFCURVE",
"867 135 OFFCURVE",
"995 351 CURVE",
"1074 362 OFFCURVE",
"1158 380 OFFCURVE",
"1170 406 CURVE SMOOTH",
"1174 414 OFFCURVE",
"1162 419 OFFCURVE",
"1159 411 CURVE SMOOTH",
"1149 391 OFFCURVE",
"1077 379 OFFCURVE",
"1006 371 CURVE",
"1098 536 OFFCURVE",
"1220 712 OFFCURVE",
"1301 801 CURVE",
"1311 808 OFFCURVE",
"1303 826 OFFCURVE",
"1290 810 CURVE SMOOTH",
"1212 717 OFFCURVE",
"1044 540 OFFCURVE",
"933 365 CURVE",
"898 363 OFFCURVE",
"869 362 OFFCURVE",
"859 362 CURVE SMOOTH",
"818 362 OFFCURVE",
"779 361 OFFCURVE",
"743 361 CURVE",
"730 381 OFFCURVE",
"712 399 OFFCURVE",
"688 414 CURVE",
"732 502 OFFCURVE",
"779 577 OFFCURVE",
"823 628 CURVE",
"848 628 OFFCURVE",
"875 630 OFFCURVE",
"899 633 CURVE SMOOTH",
"965 644 OFFCURVE",
"980 690 OFFCURVE",
"950 705 CURVE SMOOTH",
"947 706 OFFCURVE",
"944 706 OFFCURVE",
"943 705 CURVE",
"899 714 OFFCURVE",
"853 691 OFFCURVE",
"803 644 CURVE",
"771 647 LINE",
"574 683 OFFCURVE",
"401 753 OFFCURVE",
"205 661 CURVE SMOOTH",
"4 566 OFFCURVE",
"-42 331 OFFCURVE",
"74 182 CURVE",
"2 129 OFFCURVE",
"-54 59 OFFCURVE",
"-54 -18 CURVE SMOOTH",
"-54 -154 OFFCURVE",
"56 -167 OFFCURVE",
"170 -148 CURVE SMOOTH"
);
},
{
closed = 1;
nodes = (
"-22 -198 OFFCURVE",
"-130 7 OFFCURVE",
"87 167 CURVE",
"150 98 OFFCURVE",
"250 51 OFFCURVE",
"391 53 CURVE SMOOTH",
"401 53 OFFCURVE",
"411 54 OFFCURVE",
"420 54 CURVE",
"357 -31 OFFCURVE",
"282 -104 OFFCURVE",
"194 -131 CURVE SMOOTH"
);
},
{
closed = 1;
nodes = (
"252 66 OFFCURVE",
"157 111 OFFCURVE",
"102 177 CURVE",
"113 185 OFFCURVE",
"124 192 OFFCURVE",
"137 199 CURVE SMOOTH",
"182 226 OFFCURVE",
"226 247 OFFCURVE",
"270 265 CURVE",
"279 231 OFFCURVE",
"307 198 OFFCURVE",
"356 173 CURVE SMOOTH",
"365 169 OFFCURVE",
"372 182 OFFCURVE",
"363 187 CURVE SMOOTH",
"316 210 OFFCURVE",
"292 240 OFFCURVE",
"284 270 CURVE",
"376 306 OFFCURVE",
"470 324 OFFCURVE",
"587 333 CURVE",
"546 257 OFFCURVE",
"495 158 OFFCURVE",
"432 70 CURVE",
"419 69 OFFCURVE",
"405 68 OFFCURVE",
"391 68 CURVE SMOOTH"
);
},
{
closed = 1;
nodes = (
"281 310 OFFCURVE",
"286 329 OFFCURVE",
"297 347 CURVE SMOOTH",
"329 402 OFFCURVE",
"407 447 OFFCURVE",
"504 447 CURVE SMOOTH",
"557 447 OFFCURVE",
"602 436 OFFCURVE",
"637 419 CURVE",
"624 398 OFFCURVE",
"612 376 OFFCURVE",
"599 353 CURVE",
"475 343 OFFCURVE",
"377 326 OFFCURVE",
"281 291 CURVE"
);
},
{
closed = 1;
nodes = (
"560 149 OFFCURVE",
"603 227 OFFCURVE",
"638 305 CURVE SMOOTH",
"642 316 OFFCURVE",
"647 326 OFFCURVE",
"651 336 CURVE",
"718 339 LINE",
"760 246 OFFCURVE",
"695 120 OFFCURVE",
"508 80 CURVE"
);
},
{
closed = 1;
nodes = (
"-7 331 OFFCURVE",
"54 543 OFFCURVE",
"241 631 CURVE SMOOTH",
"432 721 OFFCURVE",
"575 661 OFFCURVE",
"768 633 CURVE SMOOTH",
"789 630 LINE",
"744 583 OFFCURVE",
"696 517 OFFCURVE",
"647 436 CURVE",
"608 452 OFFCURVE",
"560 462 OFFCURVE",
"504 462 CURVE SMOOTH",
"403 462 OFFCURVE",
"320 415 OFFCURVE",
"284 355 CURVE SMOOTH",
"271 333 OFFCURVE",
"265 309 OFFCURVE",
"266 285 CURVE",
"222 268 OFFCURVE",
"177 246 OFFCURVE",
"130 219 CURVE SMOOTH",
"116 211 OFFCURVE",
"103 202 OFFCURVE",
"90 193 CURVE"
);
},
{
closed = 1;
nodes = (
"667 369 OFFCURVE",
"672 381 OFFCURVE",
"678 392 CURVE",
"689 382 OFFCURVE",
"699 371 OFFCURVE",
"707 359 CURVE",
"691 359 OFFCURVE",
"676 358 OFFCURVE",
"661 357 CURVE"
);
},
{
closed = 1;
nodes = (
"876 684 OFFCURVE",
"913 704 OFFCURVE",
"946 695 CURVE",
"961 688 OFFCURVE",
"952 672 OFFCURVE",
"942 665 CURVE SMOOTH",
"920 649 OFFCURVE",
"876 643 OFFCURVE",
"837 643 CURVE"
);
}
);
width = 1080;
}
);
note = H;
unicode = 0048;
},
{
glyphname = I;
lastChange = "2021-09-23 18:48:50 +0000";
layers = (
{
hints = (
{
horizontal = 1;
place = "{397, 17}";
type = Stem;
},
{
place = "{343, 15}";
type = Stem;
}
);
layerId = "32B14CDE-4F96-422E-BD5E-1145416534B1";
paths = (
{
closed = 1;
nodes = (
"305 -61 OFFCURVE",
"354 -42 OFFCURVE",
"399 -16 CURVE",
"439 -46 OFFCURVE",
"490 -65 OFFCURVE",
"553 -65 CURVE SMOOTH",
"643 -65 OFFCURVE",
"732 -29 OFFCURVE",
"751 20 CURVE SMOOTH",
"755 30 OFFCURVE",
"746 35 OFFCURVE",
"742 25 CURVE SMOOTH",
"726 -14 OFFCURVE",
"642 -49 OFFCURVE",
"553 -49 CURVE SMOOTH",
"497 -49 OFFCURVE",
"451 -33 OFFCURVE",
"414 -7 CURVE",
"510 53 OFFCURVE",
"586 146 OFFCURVE",
"648 252 CURVE",
"938 277 OFFCURVE",
"995 520 OFFCURVE",
"812 582 CURVE",
"845 642 OFFCURVE",
"884 703 OFFCURVE",
"923 748 CURVE",
"949 746 OFFCURVE",
"985 747 OFFCURVE",
"1014 755 CURVE SMOOTH",
"1072 771 OFFCURVE",
"1094 827 OFFCURVE",
"1023 827 CURVE SMOOTH",
"980 827 OFFCURVE",
"939 804 OFFCURVE",
"898 763 CURVE",
"763 778 OFFCURVE",
"602 804 OFFCURVE",
"463 721 CURVE SMOOTH",
"335 644 OFFCURVE",
"301 495 OFFCURVE",
"338 392 CURVE",
"279 263 OFFCURVE",
"288 102 OFFCURVE",
"356 10 CURVE",
"328 -19 OFFCURVE",
"298 -40 OFFCURVE",
"260 -52 CURVE SMOOTH",
"19 -126 OFFCURVE",
"-92 137 OFFCURVE",
"203 307 CURVE SMOOTH",
"218 316 OFFCURVE",
"217 328 OFFCURVE",
"193 315 CURVE SMOOTH",
"92 257 OFFCURVE",
"1 167 OFFCURVE",
"1 67 CURVE SMOOTH",
"1 -76 OFFCURVE",
"132 -89 OFFCURVE",
"251 -70 CURVE SMOOTH"
);
},
{
closed = 1;
nodes = (
"303 106 OFFCURVE",
"291 253 OFFCURVE",
"356 375 CURVE",
"392 312 OFFCURVE",
"463 264 OFFCURVE",
"567 253 CURVE",
"509 162 OFFCURVE",
"448 79 OFFCURVE",
"382 21 CURVE"
);
},
{
closed = 1;
nodes = (
"463 274 OFFCURVE",
"394 326 OFFCURVE",
"366 392 CURVE",
"432 501 OFFCURVE",
"558 589 OFFCURVE",
"761 578 CURVE",
"701 481 OFFCURVE",
"639 368 OFFCURVE",
"574 264 CURVE"
);
},
{
closed = 1;
nodes = (
"333 503 OFFCURVE",
"379 621 OFFCURVE",
"493 689 CURVE SMOOTH",
"625 768 OFFCURVE",
"759 764 OFFCURVE",
"887 752 CURVE",
"848 711 OFFCURVE",
"809 655 OFFCURVE",
"770 593 CURVE",
"558 605 OFFCURVE",
"431 521 OFFCURVE",
"360 411 CURVE"
);
},
{
closed = 1;
nodes = (
"711 363 OFFCURVE",
"751 469 OFFCURVE",
"804 568 CURVE",
"943 509 OFFCURVE",
"922 297 OFFCURVE",
"656 265 CURVE"
);
},
{
closed = 1;
nodes = (
"958 785 OFFCURVE",
"982 803 OFFCURVE",
"1006 811 CURVE SMOOTH",
"1081 836 OFFCURVE",
"1079 754 OFFCURVE",
"934 760 CURVE"
);
}
);
width = 826;
}
);
note = I;
unicode = 0049;
},
{
glyphname = J;
lastChange = "2021-09-23 18:48:50 +0000";
layers = (
{
hints = (
{
horizontal = 1;
place = "{-81, 23}";
type = Stem;
},
{
horizontal = 1;
place = "{370, 17}";
type = Stem;
},
{
place = "{352, 18}";
type = Stem;
}
);
layerId = "32B14CDE-4F96-422E-BD5E-1145416534B1";
paths = (
{
closed = 1;
nodes = (
"247 -349 OFFCURVE",
"359 -271 OFFCURVE",
"459 -167 CURVE",
"612 -198 OFFCURVE",
"809 -143 OFFCURVE",
"809 15 CURVE SMOOTH",
"809 52 OFFCURVE",
"797 85 OFFCURVE",
"772 114 CURVE",
"999 199 OFFCURVE",
"1020 410 OFFCURVE",
"864 503 CURVE",
"907 583 OFFCURVE",
"960 669 OFFCURVE",
"1014 728 CURVE",
"1045 727 OFFCURVE",
"1078 729 OFFCURVE",
"1107 734 CURVE SMOOTH",
"1135 739 OFFCURVE",
"1194 795 OFFCURVE",
"1164 810 CURVE",
"1162 812 LINE",
"1161 812 OFFCURVE",
"1159 813 OFFCURVE",
"1158 813 CURVE SMOOTH",
"1105 825 OFFCURVE",
"1047 801 OFFCURVE",
"986 747 CURVE",
"969 749 LINE SMOOTH",
"755 787 OFFCURVE",
"567 863 OFFCURVE",
"355 764 CURVE SMOOTH",
"114 650 OFFCURVE",
"78 336 OFFCURVE",
"259 175 CURVE",
"197 156 OFFCURVE",
"137 129 OFFCURVE",
"81 97 CURVE SMOOTH",
"-40 27 OFFCURVE",
"-158 -84 OFFCURVE",
"-158 -203 CURVE SMOOTH",
"-158 -375 OFFCURVE",
"-13 -392 OFFCURVE",
"130 -368 CURVE SMOOTH"
);
},
{
closed = 1;
nodes = (
"-137 -435 OFFCURVE",
"-265 -132 OFFCURVE",
"87 73 CURVE SMOOTH",
"147 108 OFFCURVE",
"212 138 OFFCURVE",
"278 160 CURVE",
"345 108 OFFCURVE",
"438 76 OFFCURVE",
"557 78 CURVE SMOOTH",
"558 78 LINE",
"512 4 OFFCURVE",
"461 -72 OFFCURVE",
"407 -139 CURVE",
"348 -118 OFFCURVE",
"305 -80 OFFCURVE",
"298 -27 CURVE SMOOTH",
"296 -16 OFFCURVE",
"282 -18 OFFCURVE",
"284 -29 CURVE SMOOTH",
"291 -85 OFFCURVE",
"337 -125 OFFCURVE",
"398 -150 CURVE",
"319 -245 OFFCURVE",
"235 -320 OFFCURVE",
"152 -346 CURVE SMOOTH"
);
},
{
closed = 1;
nodes = (
"538 -83 OFFCURVE",
"599 0 OFFCURVE",
"652 85 CURVE",
"689 90 OFFCURVE",
"722 97 OFFCURVE",
"753 107 CURVE",
"777 80 OFFCURVE",
"788 48 OFFCURVE",
"788 15 CURVE SMOOTH",
"788 -122 OFFCURVE",
"612 -176 OFFCURVE",
"471 -155 CURVE"
);
},
{
closed = 1;
nodes = (
"445 92 OFFCURVE",
"359 121 OFFCURVE",
"298 166 CURVE",
"354 182 OFFCURVE",
"411 192 OFFCURVE",
"468 192 CURVE SMOOTH",
"526 192 OFFCURVE",
"576 187 OFFCURVE",
"617 177 CURVE",
"602 150 OFFCURVE",
"585 122 OFFCURVE",
"568 94 CURVE",
"557 94 LINE SMOOTH"
);
},
{
closed = 1;
nodes = (
"673 120 OFFCURVE",
"683 136 OFFCURVE",
"692 152 CURVE",
"709 144 OFFCURVE",
"724 134 OFFCURVE",
"736 123 CURVE",
"714 115 OFFCURVE",
"690 109 OFFCURVE",
"663 104 CURVE"
);
},
{
closed = 1;
nodes = (
"111 329 OFFCURVE",
"164 624 OFFCURVE",
"394 732 CURVE SMOOTH",
"601 829 OFFCURVE",
"757 769 OFFCURVE",
"966 733 CURVE SMOOTH",
"970 732 LINE",
"919 683 OFFCURVE",
"865 614 OFFCURVE",
"811 527 CURVE",
"774 540 OFFCURVE",
"729 548 OFFCURVE",
"679 548 CURVE SMOOTH",
"570 548 OFFCURVE",
"479 497 OFFCURVE",
"441 432 CURVE SMOOTH",
"401 366 OFFCURVE",
"418 286 OFFCURVE",
"519 235 CURVE SMOOTH",
"529 230 OFFCURVE",
"536 239 OFFCURVE",
"527 244 CURVE SMOOTH",
"433 292 OFFCURVE",
"421 367 OFFCURVE",
"455 424 CURVE SMOOTH",
"490 483 OFFCURVE",
"574 531 OFFCURVE",
"679 531 CURVE SMOOTH",
"726 531 OFFCURVE",
"767 524 OFFCURVE",
"801 510 CURVE",
"775 468 OFFCURVE",
"749 422 OFFCURVE",
"723 372 CURVE SMOOTH",
"698 325 OFFCURVE",
"665 262 OFFCURVE",
"626 192 CURVE",
"581 203 OFFCURVE",
"529 208 OFFCURVE",
"468 208 CURVE SMOOTH",
"405 208 OFFCURVE",
"341 199 OFFCURVE",
"279 181 CURVE"
);
},
{
closed = 1;
nodes = (
"741 144 OFFCURVE",
"722 157 OFFCURVE",
"700 167 CURVE",
"727 217 OFFCURVE",
"751 266 OFFCURVE",
"771 312 CURVE SMOOTH",
"786 346 OFFCURVE",
"815 410 OFFCURVE",
"852 481 CURVE",
"971 392 OFFCURVE",
"947 209 OFFCURVE",
"756 131 CURVE"
);
},
{
closed = 1;
nodes = (
"1073 788 OFFCURVE",
"1118 813 OFFCURVE",
"1158 801 CURVE",
"1175 793 OFFCURVE",
"1164 775 OFFCURVE",
"1154 768 CURVE SMOOTH",
"1128 749 OFFCURVE",
"1075 744 OFFCURVE",
"1029 744 CURVE"
);
}
);
width = 926;
}
);
note = J;
unicode = 004A;
},
{
glyphname = K;
lastChange = "2021-09-23 18:48:50 +0000";
layers = (
{
hints = (
{
horizontal = 1;
place = "{225, 12}";
type = Stem;
},
{
horizontal = 1;
place = "{295, 13}";
type = Stem;
},
{
horizontal = 1;
place = "{592, 11}";
type = Stem;
},
{
place = "{875, 13}";
type = Stem;
},
{
place = "{1160, 17}";
type = Stem;
}
);
layerId = "32B14CDE-4F96-422E-BD5E-1145416534B1";
paths = (
{
closed = 1;
nodes = (
"70 -220 OFFCURVE",
"230 -96 OFFCURVE",
"345 58 CURVE",
"371 55 OFFCURVE",
"397 53 OFFCURVE",
"422 53 CURVE SMOOTH",
"473 53 OFFCURVE",
"523 59 OFFCURVE",
"572 71 CURVE",
"632 -24 OFFCURVE",
"710 -121 OFFCURVE",
"832 -121 CURVE SMOOTH",
"935 -121 OFFCURVE",
"987 -47 OFFCURVE",
"987 50 CURVE SMOOTH",
"987 68 OFFCURVE",
"978 174 OFFCURVE",
"961 174 CURVE SMOOTH",
"957 174 OFFCURVE",
"954 171 OFFCURVE",
"954 167 CURVE SMOOTH",
"954 164 LINE",
"965 125 OFFCURVE",
"974 84 OFFCURVE",
"974 43 CURVE SMOOTH",
"974 -21 OFFCURVE",
"949 -84 OFFCURVE",
"875 -84 CURVE SMOOTH",
"781 -84 OFFCURVE",
"693 24 OFFCURVE",
"642 92 CURVE",
"754 133 OFFCURVE",
"859 214 OFFCURVE",
"895 331 CURVE",
"896 332 OFFCURVE",
"896 333 OFFCURVE",
"896 334 CURVE SMOOTH",
"896 338 OFFCURVE",
"892 341 OFFCURVE",
"888 341 CURVE SMOOTH",
"884 341 OFFCURVE",
"882 339 OFFCURVE",
"881 336 CURVE SMOOTH",
"874 317 OFFCURVE",
"867 298 OFFCURVE",
"857 280 CURVE SMOOTH",
"810 193 OFFCURVE",
"725 135 OFFCURVE",
"634 102 CURVE",
"590 162 OFFCURVE",
"549 225 OFFCURVE",
"504 283 CURVE",
"629 435 OFFCURVE",
"925 715 OFFCURVE",
"1116 772 CURVE SMOOTH",
"1148 782 OFFCURVE",
"1183 788 OFFCURVE",
"1217 788 CURVE SMOOTH",
"1267 788 OFFCURVE",
"1356 769 OFFCURVE",
"1356 704 CURVE SMOOTH",
"1356 643 OFFCURVE",
"1274 598 OFFCURVE",
"1227 577 CURVE SMOOTH",
"1209 570 OFFCURVE",
"1192 564 OFFCURVE",
"1174 558 CURVE SMOOTH",
"1170 556 OFFCURVE",
"1165 553 OFFCURVE",
"1165 548 CURVE SMOOTH",
"1165 544 OFFCURVE",
"1170 542 OFFCURVE",
"1174 542 CURVE SMOOTH",
"1177 542 OFFCURVE",
"1180 543 OFFCURVE",
"1183 544 CURVE SMOOTH",
"1253 571 OFFCURVE",
"1371 629 OFFCURVE",
"1371 718 CURVE SMOOTH",
"1371 803 OFFCURVE",
"1269 837 OFFCURVE",
"1200 837 CURVE SMOOTH",
"1169 837 OFFCURVE",
"1139 833 OFFCURVE",
"1109 824 CURVE SMOOTH",
"905 762 OFFCURVE",
"616 468 OFFCURVE",
"490 301 CURVE",
"486 305 LINE",
"528 402 OFFCURVE",
"687 761 OFFCURVE",
"814 761 CURVE SMOOTH",
"832 761 OFFCURVE",
"844 751 OFFCURVE",
"857 751 CURVE SMOOTH",
"865 751 OFFCURVE",
"876 756 OFFCURVE",
"876 766 CURVE SMOOTH",
"876 780 OFFCURVE",
"851 782 OFFCURVE",
"842 782 CURVE SMOOTH",
"807 782 OFFCURVE",
"771 783 OFFCURVE",
"735 783 CURVE SMOOTH",
"704 783 OFFCURVE",
"672 783 OFFCURVE",
"640 781 CURVE SMOOTH",
"550 778 OFFCURVE",
"461 769 OFFCURVE",
"373 747 CURVE SMOOTH",
"202 704 OFFCURVE",
"3 592 OFFCURVE",
"3 390 CURVE SMOOTH",
"3 232 OFFCURVE",
"130 115 OFFCURVE",
"274 73 CURVE",
"184 -61 OFFCURVE",
"58 -207 OFFCURVE",
"-118 -207 CURVE SMOOTH",
"-195 -207 OFFCURVE",
"-288 -177 OFFCURVE",
"-288 -84 CURVE SMOOTH",
"-288 -78 OFFCURVE",
"-287 -71 OFFCURVE",
"-287 -65 CURVE SMOOTH",
"-287 -61 OFFCURVE",
"-288 -58 OFFCURVE",
"-293 -58 CURVE SMOOTH",
"-304 -58 OFFCURVE",
"-302 -89 OFFCURVE",
"-302 -96 CURVE SMOOTH",
"-302 -194 OFFCURVE",
"-213 -220 OFFCURVE",
"-131 -220 CURVE SMOOTH"
);
},
{
closed = 1;
nodes = (
"413 68 OFFCURVE",
"385 71 OFFCURVE",
"358 76 CURVE",
"396 130 OFFCURVE",
"430 188 OFFCURVE",
"470 241 CURVE",
"504 190 OFFCURVE",
"532 135 OFFCURVE",
"565 82 CURVE",
"524 73 OFFCURVE",
"482 68 OFFCURVE",
"441 68 CURVE SMOOTH"
);
},
{
closed = 1;
nodes = (
"161 141 OFFCURVE",
"61 254 OFFCURVE",
"61 394 CURVE SMOOTH",
"61 583 OFFCURVE",
"234 691 OFFCURVE",
"397 734 CURVE SMOOTH",
"477 755 OFFCURVE",
"558 763 OFFCURVE",
"640 766 CURVE SMOOTH",
"667 768 OFFCURVE",
"695 768 OFFCURVE",
"722 768 CURVE SMOOTH",
"774 767 LINE",
"643 718 OFFCURVE",
"502 471 OFFCURVE",
"437 354 CURVE",
"401 386 OFFCURVE",
"352 418 OFFCURVE",
"302 418 CURVE SMOOTH",
"293 418 OFFCURVE",
"250 413 OFFCURVE",
"250 400 CURVE SMOOTH",
"250 397 OFFCURVE",
"252 396 OFFCURVE",
"254 396 CURVE SMOOTH",
"262 396 OFFCURVE",
"271 400 OFFCURVE",
"279 400 CURVE SMOOTH",
"331 400 OFFCURVE",
"383 351 OFFCURVE",
"416 315 CURVE",
"375 240 OFFCURVE",
"334 165 OFFCURVE",
"288 94 CURVE"
);
}
);
width = 983;
}
);
note = K;
unicode = 004B;
},
{
glyphname = L;
lastChange = "2021-09-23 18:48:50 +0000";
layers = (
{
hints = (
{
horizontal = 1;
place = "{-176, 12}";
type = Stem;
},
{
horizontal = 1;
place = "{111, 18}";
type = Stem;
},
{
horizontal = 1;
place = "{301, 15}";
type = Stem;
},
{
horizontal = 1;
place = "{781, 15}";
type = Stem;
},
{
place = "{61, 41}";
type = Stem;
},
{
place = "{767, 28}";
type = Stem;
},
{
place = "{1039, 15}";
type = Stem;
},
{
place = "{1095, 18}";
type = Stem;
},
{
horizontal = 1;
place = "{-230, 62}";
type = Stem;
},
{
horizontal = 1;
place = "{808, 13}";
type = Stem;
},
{
place = "{-5, 38}";
type = Stem;
},
{
horizontal = 1;
place = "{-134, 15}";
type = Stem;
}
);
layerId = "32B14CDE-4F96-422E-BD5E-1145416534B1";
paths = (
{
closed = 1;
nodes = (
"990 -290 OFFCURVE",
"1170 -195 OFFCURVE",
"1098 -16 CURVE SMOOTH",
"1094 -7 OFFCURVE",
"1080 -12 OFFCURVE",
"1084 -22 CURVE SMOOTH",
"1147 -179 OFFCURVE",
"936 -201 OFFCURVE",
"735 -129 CURVE SMOOTH",
"680 -110 OFFCURVE",
"627 -86 OFFCURVE",
"574 -62 CURVE",
"727 28 OFFCURVE",
"813 192 OFFCURVE",
"792 381 CURVE",
"936 451 OFFCURVE",
"1054 567 OFFCURVE",
"1054 724 CURVE SMOOTH",
"1054 808 OFFCURVE",
"986 833 OFFCURVE",
"926 816 CURVE SMOOTH",
"859 797 OFFCURVE",
"784 728 OFFCURVE",
"705 616 CURVE",
"620 730 OFFCURVE",
"478 796 OFFCURVE",
"345 796 CURVE SMOOTH",
"-47 796 OFFCURVE",
"-58 301 OFFCURVE",
"464 301 CURVE SMOOTH",
"482 301 OFFCURVE",
"501 302 OFFCURVE",
"520 304 CURVE",
"475 221 OFFCURVE",
"420 126 OFFCURVE",
"357 44 CURVE",
"299 71 OFFCURVE",
"242 95 OFFCURVE",
"183 114 CURVE SMOOTH",
"-56 192 OFFCURVE",
"-77 -62 OFFCURVE",
"176 -122 CURVE",
"154 -134 OFFCURVE",
"132 -143 OFFCURVE",
"110 -150 CURVE SMOOTH",
"-6 -186 OFFCURVE",
"-170 -156 OFFCURVE",
"-153 -22 CURVE SMOOTH",
"-152 -13 OFFCURVE",
"-164 -13 OFFCURVE",
"-166 -21 CURVE SMOOTH",
"-191 -171 OFFCURVE",
"-43 -190 OFFCURVE",
"82 -170 CURVE SMOOTH",
"128 -162 OFFCURVE",
"172 -148 OFFCURVE",
"213 -129 CURVE",
"236 -132 OFFCURVE",
"262 -134 OFFCURVE",
"290 -134 CURVE SMOOTH",
"373 -134 OFFCURVE",
"449 -119 OFFCURVE",
"516 -91 CURVE",
"577 -129 OFFCURVE",
"640 -165 OFFCURVE",
"707 -189 CURVE SMOOTH"
);
},
{
closed = 1;
nodes = (
"-24 -61 OFFCURVE",
"-12 162 OFFCURVE",
"179 100 CURVE SMOOTH",
"234 82 OFFCURVE",
"287 55 OFFCURVE",
"340 23 CURVE",
"296 -30 OFFCURVE",
"248 -77 OFFCURVE",
"195 -110 CURVE"
);
},
{
closed = 1;
nodes = (
"268 -119 OFFCURVE",
"252 -118 OFFCURVE",
"237 -117 CURVE",
"291 -88 OFFCURVE",
"341 -50 OFFCURVE",
"386 -6 CURVE",
"496 -78 LINE",
"434 -105 OFFCURVE",
"363 -119 OFFCURVE",
"285 -119 CURVE SMOOTH"
);
},
{
closed = 1;
nodes = (
"504 -28 OFFCURVE",
"457 -4 OFFCURVE",
"410 19 CURVE",
"490 104 OFFCURVE",
"556 209 OFFCURVE",
"606 318 CURVE",
"660 329 OFFCURVE",
"715 346 OFFCURVE",
"767 370 CURVE",
"781 192 OFFCURVE",
"697 35 OFFCURVE",
"551 -50 CURVE"
);
},
{
closed = 1;
nodes = (
"-7 316 OFFCURVE",
"13 781 OFFCURVE",
"345 781 CURVE SMOOTH",
"477 781 OFFCURVE",
"613 713 OFFCURVE",
"692 596 CURVE",
"654 540 OFFCURVE",
"614 475 OFFCURVE",
"574 402 CURVE SMOOTH",
"529 320 LINE",
"507 318 OFFCURVE",
"485 316 OFFCURVE",
"464 316 CURVE SMOOTH"
);
},
{
closed = 1;
nodes = (
"623 355 LINE SMOOTH",
"654 425 OFFCURVE",
"686 491 OFFCURVE",
"719 550 CURVE",
"726 535 OFFCURVE",
"733 519 OFFCURVE",
"739 503 CURVE SMOOTH",
"753 463 OFFCURVE",
"762 423 OFFCURVE",
"766 385 CURVE",
"717 363 OFFCURVE",
"665 346 OFFCURVE",
"614 334 CURVE"
);
},
{
closed = 1;
nodes = (
"785 433 OFFCURVE",
"776 470 OFFCURVE",
"763 507 CURVE SMOOTH",
"755 531 OFFCURVE",
"745 554 OFFCURVE",
"732 575 CURVE",
"797 687 OFFCURVE",
"863 772 OFFCURVE",
"922 799 CURVE SMOOTH",
"976 823 OFFCURVE",
"1039 798 OFFCURVE",
"1039 724 CURVE SMOOTH",
"1039 580 OFFCURVE",
"929 467 OFFCURVE",
"790 397 CURVE"
);
}
);
width = 808;
}
);
note = L;
unicode = 004C;
},
{
glyphname = M;
lastChange = "2021-09-23 20:39:00 +0000";
layers = (
{
hints = (
{
horizontal = 1;
place = "{-132, 16}";
type = Stem;
},
{
horizontal = 1;
place = "{411, 17}";
type = Stem;
},
{
horizontal = 1;
place = "{468, 12}";
type = Stem;
},
{
horizontal = 1;
place = "{600, -20}";
target = down;
type = TopGhost;
},
{
place = "{-359, 34}";
type = Stem;
},
{
place = "{163, 16}";
type = Stem;
}
);
layerId = "32B14CDE-4F96-422E-BD5E-1145416534B1";
paths = (
{
closed = 1;
nodes = (
"1701 745 OFFCURVE",
"1410 1026 OFFCURVE",
"1156 739 CURVE SMOOTH",
"1029 595 OFFCURVE",
"921 372 OFFCURVE",
"824 216 CURVE",
"807 213 OFFCURVE",
"789 211 OFFCURVE",
"772 210 CURVE",
"800 311 OFFCURVE",
"795 422 OFFCURVE",
"799 516 CURVE",
"827 488 OFFCURVE",
"843 454 OFFCURVE",
"841 415 CURVE SMOOTH",
"841 405 OFFCURVE",
"856 404 OFFCURVE",
"856 414 CURVE SMOOTH",
"859 461 OFFCURVE",
"836 501 OFFCURVE",
"799 532 CURVE",
"802 586 OFFCURVE",
"810 634 OFFCURVE",
"829 670 CURVE SMOOTH",
"858 720 OFFCURVE",
"883 756 OFFCURVE",
"931 757 CURVE SMOOTH",
"939 757 OFFCURVE",
"941 764 OFFCURVE",
"938 768 CURVE",
"938 771 OFFCURVE",
"938 773 OFFCURVE",
"935 774 CURVE SMOOTH",
"914 780 OFFCURVE",
"893 779 OFFCURVE",
"871 773 CURVE",
"834 773 OFFCURVE",
"791 773 OFFCURVE",
"763 772 CURVE SMOOTH",
"291 751 OFFCURVE",
"99 558 OFFCURVE",
"28 356 CURVE SMOOTH",
"-38 164 OFFCURVE",
"52 -34 OFFCURVE",
"236 -79 CURVE",
"183 -131 OFFCURVE",
"125 -172 OFFCURVE",
"61 -192 CURVE SMOOTH",
"-55 -228 OFFCURVE",
"-219 -197 OFFCURVE",
"-202 -64 CURVE",
"-200 -55 OFFCURVE",
"-213 -54 OFFCURVE",
"-215 -63 CURVE SMOOTH",
"-240 -213 OFFCURVE",
"-91 -232 OFFCURVE",
"33 -211 CURVE SMOOTH",
"131 -195 OFFCURVE",
"217 -150 OFFCURVE",
"293 -87 CURVE",
"387 -92 OFFCURVE",
"482 -49 OFFCURVE",
"508 43 CURVE SMOOTH",
"510 52 OFFCURVE",
"497 56 OFFCURVE",
"494 47 CURVE SMOOTH",
"472 -32 OFFCURVE",
"393 -72 OFFCURVE",
"309 -73 CURVE",
"397 5 OFFCURVE",
"470 107 OFFCURVE",
"528 216 CURVE",
"574 203 OFFCURVE",
"624 193 OFFCURVE",
"674 193 CURVE SMOOTH",
"700 193 LINE",
"680 114 OFFCURVE",
"648 45 OFFCURVE",
"592 6 CURVE SMOOTH",
"585 1 OFFCURVE",
"587 -7 OFFCURVE",
"596 -7 CURVE SMOOTH",
"670 -12 OFFCURVE",
"764 84 OFFCURVE",
"852 206 CURVE",
"898 214 OFFCURVE",
"945 225 OFFCURVE",
"990 240 CURVE",
"939 118 OFFCURVE",
"905 -54 OFFCURVE",
"1036 -54 CURVE SMOOTH",
"1134 -54 OFFCURVE",
"1218 69 OFFCURVE",
"1277 189 CURVE SMOOTH",
"1281 197 OFFCURVE",
"1270 201 OFFCURVE",
"1266 192 CURVE SMOOTH",
"1207 68 OFFCURVE",
"1115 -30 OFFCURVE",
"1053 -30 CURVE SMOOTH",
"969 -30 OFFCURVE",
"994 100 OFFCURVE",
"1087 278 CURVE",
"1154 307 OFFCURVE",
"1215 344 OFFCURVE",
"1266 386 CURVE SMOOTH"
);
},
{
closed = 1;
nodes = (
"971 372 OFFCURVE",
"1089 585 OFFCURVE",
"1214 711 CURVE SMOOTH",
"1496 992 OFFCURVE",
"1597 679 OFFCURVE",
"1233 388 CURVE SMOOTH",
"1192 355 OFFCURVE",
"1146 326 OFFCURVE",
"1097 301 CURVE",
"1164 463 OFFCURVE",
"1261 635 OFFCURVE",
"1328 721 CURVE",
"1337 729 OFFCURVE",
"1326 746 OFFCURVE",
"1315 731 CURVE SMOOTH",
"1248 634 OFFCURVE",
"1086 442 OFFCURVE",
"999 259 CURVE",
"955 244 OFFCURVE",
"910 231 OFFCURVE",
"864 222 CURVE",
"864 223 LINE"
);
},
{
closed = 1;
nodes = (
"70 -29 OFFCURVE",
"-12 160 OFFCURVE",
"54 348 CURVE SMOOTH",
"162 657 OFFCURVE",
"523 767 OFFCURVE",
"832 756 CURVE",
"781 727 OFFCURVE",
"727 671 OFFCURVE",
"670 593 CURVE",
"520 628 OFFCURVE",
"333 582 OFFCURVE",
"322 414 CURVE SMOOTH",
"316 335 OFFCURVE",
"375 277 OFFCURVE",
"459 240 CURVE",
"402 137 OFFCURVE",
"332 21 OFFCURVE",
"248 -67 CURVE"
);
},
{
closed = 1;
nodes = (
"842 733 OFFCURVE",
"804 682 OFFCURVE",
"784 647 CURVE SMOOTH",
"770 623 OFFCURVE",
"761 594 OFFCURVE",
"754 563 CURVE",
"741 570 OFFCURVE",
"727 576 OFFCURVE",
"712 581 CURVE",
"765 665 OFFCURVE",
"819 728 OFFCURVE",
"867 754 CURVE",
"886 752 LINE"
);
},
{
closed = 1;
nodes = (
"402 293 OFFCURVE",
"361 346 OFFCURVE",
"365 414 CURVE SMOOTH",
"376 565 OFFCURVE",
"532 609 OFFCURVE",
"662 582 CURVE",
"618 520 OFFCURVE",
"572 445 OFFCURVE",
"525 360 CURVE SMOOTH",
"469 258 LINE"
);
},
{
closed = 1;
nodes = (
"624 208 OFFCURVE",
"577 219 OFFCURVE",
"536 231 CURVE",
"574 313 LINE SMOOTH",
"618 407 OFFCURVE",
"661 497 OFFCURVE",
"706 571 CURVE",
"722 565 OFFCURVE",
"737 558 OFFCURVE",
"751 551 CURVE",
"742 496 LINE SMOOTH",
"729 417 OFFCURVE",
"726 307 OFFCURVE",
"703 208 CURVE",
"674 208 LINE SMOOTH"
);
},
{
closed = 1;
nodes = (
"719 85 OFFCURVE",
"749 138 OFFCURVE",
"767 195 CURVE",
"783 196 OFFCURVE",
"799 198 OFFCURVE",
"815 200 CURVE",
"763 118 OFFCURVE",
"715 56 OFFCURVE",
"669 40 CURVE"
);
}
);
width = 1207;
}
);
note = M;
unicode = 004D;
},
{
glyphname = N;
lastChange = "2021-09-23 18:48:50 +0000";
layers = (
{
hints = (
{
horizontal = 1;
place = "{-85, 14}";
type = Stem;
},
{
horizontal = 1;
place = "{36, 14}";
type = Stem;
},
{
horizontal = 1;
place = "{439, 14}";
type = Stem;
},
{
horizontal = 1;
place = "{507, 16}";
type = Stem;
}
);
layerId = "32B14CDE-4F96-422E-BD5E-1145416534B1";
paths = (
{
closed = 1;
nodes = (
"18 -266 OFFCURVE",
"99 -226 OFFCURVE",
"171 -170 CURVE",
"199 -181 OFFCURVE",
"231 -188 OFFCURVE",
"265 -190 CURVE SMOOTH",
"541 -207 OFFCURVE",
"589 86 OFFCURVE",
"455 213 CURVE",
"469 244 LINE SMOOTH",
"570 477 OFFCURVE",
"693 673 OFFCURVE",
"789 696 CURVE",
"821 696 LINE SMOOTH",
"823 696 OFFCURVE",
"824 695 OFFCURVE",
"826 695 CURVE SMOOTH",
"827 695 OFFCURVE",
"829 695 OFFCURVE",
"830 696 CURVE",
"836 696 LINE",
"794 674 OFFCURVE",
"757 632 OFFCURVE",
"737 597 CURVE SMOOTH",
"715 559 OFFCURVE",
"704 506 OFFCURVE",
"696 447 CURVE SMOOTH",
"678 305 OFFCURVE",
"689 58 OFFCURVE",
"570 -29 CURVE",
"565 -28 OFFCURVE",
"561 -31 OFFCURVE",
"561 -35 CURVE",
"560 -35 LINE",
"558 -36 OFFCURVE",
"559 -37 OFFCURVE",
"561 -38 CURVE",
"561 -41 OFFCURVE",
"563 -43 OFFCURVE",
"566 -43 CURVE",
"723 -81 OFFCURVE",
"819 93 OFFCURVE",
"861 207 CURVE SMOOTH",
"894 294 OFFCURVE",
"934 397 OFFCURVE",
"979 478 CURVE SMOOTH",
"1048 604 OFFCURVE",
"1147 706 OFFCURVE",
"1223 752 CURVE SMOOTH",
"1445 884 OFFCURVE",
"1619 732 OFFCURVE",
"1337 552 CURVE SMOOTH",
"1324 544 OFFCURVE",
"1331 528 OFFCURVE",
"1350 541 CURVE SMOOTH",
"1652 752 OFFCURVE",
"1405 931 OFFCURVE",
"1181 798 CURVE SMOOTH",
"952 661 OFFCURVE",
"910 440 OFFCURVE",
"826 215 CURVE SMOOTH",
"789 115 OFFCURVE",
"724 -44 OFFCURVE",
"595 -33 CURVE",
"604 -29 OFFCURVE",
"614 -22 OFFCURVE",
"625 -13 CURVE SMOOTH",
"700 47 OFFCURVE",
"736 150 OFFCURVE",
"751 289 CURVE SMOOTH",
"761 381 OFFCURVE",
"739 539 OFFCURVE",
"783 617 CURVE SMOOTH",
"811 666 OFFCURVE",
"836 701 OFFCURVE",
"884 698 CURVE SMOOTH",
"895 697 OFFCURVE",
"891 720 OFFCURVE",
"880 719 CURVE SMOOTH",
"844 718 OFFCURVE",
"757 711 OFFCURVE",
"712 706 CURVE SMOOTH",
"242 648 OFFCURVE",
"65 440 OFFCURVE",
"10 231 CURVE SMOOTH",
"-30 75 OFFCURVE",
"17 -77 OFFCURVE",
"130 -148 CURVE",
"78 -200 OFFCURVE",
"19 -241 OFFCURVE",
"-45 -261 CURVE SMOOTH",
"-161 -297 OFFCURVE",
"-325 -266 OFFCURVE",
"-307 -133 CURVE SMOOTH",
"-306 -124 OFFCURVE",
"-319 -123 OFFCURVE",
"-320 -132 CURVE SMOOTH",
"-345 -282 OFFCURVE",
"-197 -301 OFFCURVE",
"-72 -280 CURVE SMOOTH"
);
},
{
closed = 1;
nodes = (
"235 -178 OFFCURVE",
"207 -171 OFFCURVE",
"181 -161 CURVE",
"294 -70 OFFCURVE",
"382 61 OFFCURVE",
"448 198 CURVE",
"563 75 OFFCURVE",
"508 -194 OFFCURVE",
"266 -180 CURVE SMOOTH"
);
},
{
closed = 1;
nodes = (
"36 -71 OFFCURVE",
"-3 75 OFFCURVE",
"37 226 CURVE SMOOTH",
"116 528 OFFCURVE",
"439 669 OFFCURVE",
"737 693 CURVE",
"642 645 OFFCURVE",
"535 499 OFFCURVE",
"419 291 CURVE SMOOTH",
"397 251 LINE",
"370 263 OFFCURVE",
"339 270 OFFCURVE",
"304 270 CURVE SMOOTH",
"229 270 OFFCURVE",
"153 197 OFFCURVE",
"153 114 CURVE SMOOTH",
"153 76 OFFCURVE",
"182 11 OFFCURVE",
"225 12 CURVE SMOOTH",
"235 12 OFFCURVE",
"234 27 OFFCURVE",
"224 27 CURVE SMOOTH",
"196 26 OFFCURVE",
"168 76 OFFCURVE",
"168 114 CURVE SMOOTH",
"168 189 OFFCURVE",
"238 256 OFFCURVE",
"304 256 CURVE SMOOTH",
"337 256 OFFCURVE",
"366 250 OFFCURVE",
"390 238 CURVE",
"326 121 OFFCURVE",
"244 -31 OFFCURVE",
"139 -139 CURVE"
);
}
);
width = 853;
}
);
note = N;
unicode = 004E;
},
{
glyphname = NJ;
lastChange = "2021-09-23 19:21:22 +0000";
layers = (
{
hints = (
{
horizontal = 1;
place = "{-85, 14}";
type = Stem;
},
{
horizontal = 1;
place = "{36, 14}";
type = Stem;
},
{
horizontal = 1;
place = "{439, 14}";
type = Stem;
},
{
horizontal = 1;
place = "{507, 16}";
type = Stem;
},
{
horizontal = 1;
place = "{-81, 23}";
type = Stem;
},
{
horizontal = 1;
place = "{370, 17}";
type = Stem;
},
{
place = "{1205, 18}";
type = Stem;
}
);
layerId = "32B14CDE-4F96-422E-BD5E-1145416534B1";
paths = (
{
closed = 1;
nodes = (
"1100 -349 OFFCURVE",
"1212 -271 OFFCURVE",
"1312 -167 CURVE",
"1465 -198 OFFCURVE",
"1662 -143 OFFCURVE",
"1662 15 CURVE SMOOTH",
"1662 52 OFFCURVE",
"1650 85 OFFCURVE",
"1625 114 CURVE",
"1852 199 OFFCURVE",
"1873 410 OFFCURVE",
"1717 503 CURVE",
"1760 583 OFFCURVE",
"1813 669 OFFCURVE",
"1867 728 CURVE",
"1898 727 OFFCURVE",
"1931 729 OFFCURVE",
"1960 734 CURVE SMOOTH",
"1988 739 OFFCURVE",
"2047 795 OFFCURVE",
"2017 810 CURVE",
"2015 812 LINE",
"2014 812 OFFCURVE",
"2012 813 OFFCURVE",
"2011 813 CURVE SMOOTH",
"1958 825 OFFCURVE",
"1900 801 OFFCURVE",
"1839 747 CURVE",
"1822 749 LINE SMOOTH",
"1608 787 OFFCURVE",
"1420 863 OFFCURVE",
"1208 764 CURVE SMOOTH",
"967 650 OFFCURVE",
"931 336 OFFCURVE",
"1112 175 CURVE",
"1050 156 OFFCURVE",
"990 129 OFFCURVE",
"934 97 CURVE SMOOTH",
"813 27 OFFCURVE",
"695 -84 OFFCURVE",
"695 -203 CURVE SMOOTH",
"695 -375 OFFCURVE",
"840 -392 OFFCURVE",
"983 -368 CURVE SMOOTH"
);
},
{
closed = 1;
nodes = (
"716 -435 OFFCURVE",
"588 -132 OFFCURVE",
"940 73 CURVE SMOOTH",
"1000 108 OFFCURVE",
"1065 138 OFFCURVE",
"1131 160 CURVE",
"1198 108 OFFCURVE",
"1291 76 OFFCURVE",
"1410 78 CURVE SMOOTH",
"1411 78 LINE",
"1365 4 OFFCURVE",
"1314 -72 OFFCURVE",
"1260 -139 CURVE",
"1201 -118 OFFCURVE",
"1158 -80 OFFCURVE",
"1151 -27 CURVE SMOOTH",
"1149 -16 OFFCURVE",
"1135 -18 OFFCURVE",
"1137 -29 CURVE SMOOTH",
"1144 -85 OFFCURVE",
"1190 -125 OFFCURVE",
"1251 -150 CURVE",
"1172 -245 OFFCURVE",
"1088 -320 OFFCURVE",
"1005 -346 CURVE SMOOTH"
);
},
{
closed = 1;
nodes = (
"1391 -83 OFFCURVE",
"1452 0 OFFCURVE",
"1505 85 CURVE",
"1542 90 OFFCURVE",
"1575 97 OFFCURVE",
"1606 107 CURVE",
"1630 80 OFFCURVE",
"1641 48 OFFCURVE",
"1641 15 CURVE SMOOTH",
"1641 -122 OFFCURVE",
"1465 -176 OFFCURVE",
"1324 -155 CURVE"
);
},
{
closed = 1;
nodes = (
"1298 92 OFFCURVE",
"1212 121 OFFCURVE",
"1151 166 CURVE",
"1207 182 OFFCURVE",
"1264 192 OFFCURVE",
"1321 192 CURVE SMOOTH",
"1379 192 OFFCURVE",
"1429 187 OFFCURVE",
"1470 177 CURVE",
"1455 150 OFFCURVE",
"1438 122 OFFCURVE",
"1421 94 CURVE",
"1410 94 LINE SMOOTH"
);
},
{
closed = 1;
nodes = (
"1526 120 OFFCURVE",
"1536 136 OFFCURVE",
"1545 152 CURVE",
"1562 144 OFFCURVE",
"1577 134 OFFCURVE",
"1589 123 CURVE",
"1567 115 OFFCURVE",
"1543 109 OFFCURVE",
"1516 104 CURVE"
);
},
{
closed = 1;
nodes = (
"964 329 OFFCURVE",
"1017 624 OFFCURVE",
"1247 732 CURVE SMOOTH",
"1454 829 OFFCURVE",
"1610 769 OFFCURVE",
"1819 733 CURVE SMOOTH",
"1823 732 LINE",
"1772 683 OFFCURVE",
"1718 614 OFFCURVE",
"1664 527 CURVE",
"1627 540 OFFCURVE",
"1582 548 OFFCURVE",
"1532 548 CURVE SMOOTH",
"1423 548 OFFCURVE",
"1332 497 OFFCURVE",
"1294 432 CURVE SMOOTH",
"1254 366 OFFCURVE",
"1271 286 OFFCURVE",
"1372 235 CURVE SMOOTH",
"1382 230 OFFCURVE",
"1389 239 OFFCURVE",
"1380 244 CURVE SMOOTH",
"1286 292 OFFCURVE",
"1274 367 OFFCURVE",
"1308 424 CURVE SMOOTH",
"1343 483 OFFCURVE",
"1427 531 OFFCURVE",
"1532 531 CURVE SMOOTH",
"1579 531 OFFCURVE",
"1620 524 OFFCURVE",
"1654 510 CURVE",
"1628 468 OFFCURVE",
"1602 422 OFFCURVE",
"1576 372 CURVE SMOOTH",
"1551 325 OFFCURVE",
"1518 262 OFFCURVE",
"1479 192 CURVE",
"1434 203 OFFCURVE",
"1382 208 OFFCURVE",
"1321 208 CURVE SMOOTH",
"1258 208 OFFCURVE",
"1194 199 OFFCURVE",
"1132 181 CURVE"
);
},
{
closed = 1;
nodes = (
"1594 144 OFFCURVE",
"1575 157 OFFCURVE",
"1553 167 CURVE",
"1580 217 OFFCURVE",
"1604 266 OFFCURVE",
"1624 312 CURVE SMOOTH",
"1639 346 OFFCURVE",
"1668 410 OFFCURVE",
"1705 481 CURVE",
"1824 392 OFFCURVE",
"1800 209 OFFCURVE",
"1609 131 CURVE"
);
},
{
closed = 1;
nodes = (
"1926 788 OFFCURVE",
"1971 813 OFFCURVE",
"2011 801 CURVE",
"2028 793 OFFCURVE",
"2017 775 OFFCURVE",
"2007 768 CURVE SMOOTH",
"1981 749 OFFCURVE",
"1928 744 OFFCURVE",
"1882 744 CURVE"
);
},
{
closed = 1;
nodes = (
"18 -266 OFFCURVE",
"99 -226 OFFCURVE",
"171 -170 CURVE",
"199 -181 OFFCURVE",
"231 -188 OFFCURVE",
"265 -190 CURVE SMOOTH",
"541 -207 OFFCURVE",
"589 86 OFFCURVE",
"455 213 CURVE",
"469 244 LINE SMOOTH",
"573 475 OFFCURVE",
"693 673 OFFCURVE",
"789 696 CURVE",
"821 696 LINE SMOOTH",
"823 696 OFFCURVE",
"824 695 OFFCURVE",
"826 695 CURVE SMOOTH",
"827 695 OFFCURVE",
"829 695 OFFCURVE",
"830 696 CURVE",
"836 696 LINE",
"794 674 OFFCURVE",
"757 632 OFFCURVE",
"737 597 CURVE SMOOTH",
"715 559 OFFCURVE",
"704 506 OFFCURVE",
"696 447 CURVE SMOOTH",
"678 305 OFFCURVE",
"689 58 OFFCURVE",
"570 -29 CURVE",
"565 -28 OFFCURVE",
"561 -31 OFFCURVE",
"561 -35 CURVE",
"560 -35 LINE",
"558 -36 OFFCURVE",
"559 -37 OFFCURVE",
"561 -38 CURVE",
"561 -41 OFFCURVE",
"563 -43 OFFCURVE",
"566 -43 CURVE",
"723 -81 OFFCURVE",
"819 93 OFFCURVE",
"861 207 CURVE SMOOTH",
"894 294 OFFCURVE",
"934 397 OFFCURVE",
"979 478 CURVE SMOOTH",
"1048 604 OFFCURVE",
"1217 789 OFFCURVE",
"1366 794 CURVE SMOOTH",
"1378 794 OFFCURVE",
"1408 809 OFFCURVE",
"1366 809 CURVE SMOOTH",
"1084 809 OFFCURVE",
"910 440 OFFCURVE",
"826 215 CURVE SMOOTH",
"789 115 OFFCURVE",
"724 -44 OFFCURVE",
"595 -33 CURVE",
"604 -29 OFFCURVE",
"614 -22 OFFCURVE",
"625 -13 CURVE SMOOTH",
"700 47 OFFCURVE",
"736 150 OFFCURVE",
"751 289 CURVE SMOOTH",
"761 381 OFFCURVE",
"739 539 OFFCURVE",
"783 617 CURVE SMOOTH",
"811 666 OFFCURVE",
"836 701 OFFCURVE",
"884 698 CURVE SMOOTH",
"895 697 OFFCURVE",
"891 720 OFFCURVE",
"880 719 CURVE SMOOTH",
"844 718 OFFCURVE",
"757 711 OFFCURVE",
"712 706 CURVE SMOOTH",
"242 648 OFFCURVE",
"65 440 OFFCURVE",
"10 231 CURVE SMOOTH",
"-30 75 OFFCURVE",
"17 -77 OFFCURVE",
"130 -148 CURVE",
"78 -200 OFFCURVE",
"19 -241 OFFCURVE",
"-45 -261 CURVE SMOOTH",
"-161 -297 OFFCURVE",
"-325 -266 OFFCURVE",
"-307 -133 CURVE SMOOTH",
"-306 -124 OFFCURVE",
"-319 -123 OFFCURVE",
"-320 -132 CURVE SMOOTH",
"-345 -282 OFFCURVE",
"-197 -301 OFFCURVE",
"-72 -280 CURVE SMOOTH"
);
},
{
closed = 1;
nodes = (
"36 -71 OFFCURVE",
"-3 75 OFFCURVE",
"37 226 CURVE SMOOTH",
"116 528 OFFCURVE",
"439 669 OFFCURVE",
"737 693 CURVE",
"642 645 OFFCURVE",
"535 499 OFFCURVE",
"419 291 CURVE SMOOTH",
"397 251 LINE",
"370 263 OFFCURVE",
"339 270 OFFCURVE",
"304 270 CURVE SMOOTH",
"229 270 OFFCURVE",
"153 197 OFFCURVE",
"153 114 CURVE SMOOTH",
"153 76 OFFCURVE",
"182 11 OFFCURVE",
"225 12 CURVE SMOOTH",
"235 12 OFFCURVE",
"234 27 OFFCURVE",
"224 27 CURVE SMOOTH",
"196 26 OFFCURVE",
"168 76 OFFCURVE",
"168 114 CURVE SMOOTH",
"168 189 OFFCURVE",
"238 256 OFFCURVE",
"304 256 CURVE SMOOTH",
"337 256 OFFCURVE",
"366 250 OFFCURVE",
"390 238 CURVE",
"326 121 OFFCURVE",
"244 -31 OFFCURVE",
"139 -139 CURVE"
);
},
{
closed = 1;
nodes = (
"235 -178 OFFCURVE",
"207 -171 OFFCURVE",
"181 -161 CURVE",
"294 -70 OFFCURVE",
"382 61 OFFCURVE",
"448 198 CURVE",
"563 75 OFFCURVE",
"508 -194 OFFCURVE",
"266 -180 CURVE SMOOTH"
);
}
);
width = 1779;
}
);
unicode = 01CA;
},
{
color = 9;
glyphname = Eng;
lastChange = "2021-09-23 18:57:20 +0000";
layers = (
{
layerId = "32B14CDE-4F96-422E-BD5E-1145416534B1";
paths = (
{
closed = 1;
nodes = (
"365 -386 OFFCURVE",
"448 -199 OFFCURVE",
"536 35 CURVE SMOOTH",
"645 322 OFFCURVE",
"751 626 OFFCURVE",
"944 626 CURVE",
"956 625 OFFCURVE",
"959 632 OFFCURVE",
"941 636 CURVE SMOOTH",
"713 691 OFFCURVE",
"668 442 OFFCURVE",
"524 74 CURVE",
"524 223 OFFCURVE",
"541 533 OFFCURVE",
"624 563 CURVE SMOOTH",
"639 569 OFFCURVE",
"657 570 OFFCURVE",
"654 588 CURVE",
"654 594 OFFCURVE",
"648 598 OFFCURVE",
"642 598 CURVE",
"632 571 OFFCURVE",
"478 573 OFFCURVE",
"339 593 CURVE SMOOTH",
"124 621 OFFCURVE",
"18 606 OFFCURVE",
"-11 528 CURVE SMOOTH",
"-22 502 OFFCURVE",
"-5 451 OFFCURVE",
"42 420 CURVE SMOOTH",
"53 413 OFFCURVE",
"78 403 OFFCURVE",
"85 413 CURVE",
"80 413 OFFCURVE",
"68 420 OFFCURVE",
"59 427 CURVE SMOOTH",
"39 445 OFFCURVE",
"27 474 OFFCURVE",
"38 504 CURVE SMOOTH",
"67 582 OFFCURVE",
"211 590 OFFCURVE",
"345 573 CURVE SMOOTH",
"407 566 OFFCURVE",
"495 563 OFFCURVE",
"552 564 CURVE",
"422 537 OFFCURVE",
"346 363 OFFCURVE",
"287 249 CURVE SMOOTH",
"222 123 OFFCURVE",
"139 -34 OFFCURVE",
"18 -34 CURVE SMOOTH",
"-43 -34 OFFCURVE",
"-99 20 OFFCURVE",
"-82 66 CURVE",
"-105 59 OFFCURVE",
"-110 38 OFFCURVE",
"-109 20 CURVE SMOOTH",
"-106 -14 OFFCURVE",
"-68 -50 OFFCURVE",
"18 -50 CURVE SMOOTH",
"174 -50 OFFCURVE",
"250 103 OFFCURVE",
"308 236 CURVE SMOOTH",
"387 417 OFFCURVE",
"484 564 OFFCURVE",
"581 564 CURVE",
"471 473 OFFCURVE",
"467 226 OFFCURVE",
"499 0 CURVE",
"431 -182 OFFCURVE",
"351 -355 OFFCURVE",
"190 -358 CURVE SMOOTH",
"135 -359 OFFCURVE",
"86 -332 OFFCURVE",
"60 -268 CURVE SMOOTH",
"37 -209 OFFCURVE",
"38 -138 OFFCURVE",
"71 -104 CURVE",
"59 -89 OFFCURVE",
"11 -132 OFFCURVE",
"13 -218 CURVE SMOOTH",
"16 -313 OFFCURVE",
"64 -368 OFFCURVE",
"154 -374 CURVE SMOOTH"
);
}
);
width = 654;
}
);
unicode = 014A;
},
{
glyphname = O;
lastChange = "2021-09-23 18:48:50 +0000";
layers = (
{
hints = (
{
horizontal = 1;
place = "{449, 16}";
type = Stem;
},
{
horizontal = 1;
place = "{579, 16}";
type = Stem;
},
{
place = "{710, 20}";
type = Stem;
}
);
layerId = "32B14CDE-4F96-422E-BD5E-1145416534B1";
paths = (
{
closed = 1;
nodes = (
"803 -60 OFFCURVE",
"1114 461 OFFCURVE",
"894 658 CURVE",
"934 788 OFFCURVE",
"820 900 OFFCURVE",
"599 800 CURVE SMOOTH",
"541 775 OFFCURVE",
"488 737 OFFCURVE",
"441 692 CURVE",
"427 697 OFFCURVE",
"412 701 OFFCURVE",
"398 704 CURVE SMOOTH",
"50 785 OFFCURVE",
"-101 588 OFFCURVE",
"45 464 CURVE SMOOTH",
"50 459 OFFCURVE",
"56 455 OFFCURVE",
"61 451 CURVE",
"60 449 LINE SMOOTH",
"12 339 OFFCURVE",
"46 182 OFFCURVE",
"217 111 CURVE",
"240 -2 OFFCURVE",
"320 -81 OFFCURVE",
"473 -74 CURVE SMOOTH"
);
},
{
closed = 1;
nodes = (
"77 217 OFFCURVE",
"44 340 OFFCURVE",
"76 433 CURVE SMOOTH",
"78 439 LINE",
"127 406 OFFCURVE",
"183 385 OFFCURVE",
"242 374 CURVE",
"217 296 OFFCURVE",
"205 219 OFFCURVE",
"211 151 CURVE"
);
},
{
closed = 1;
nodes = (
"193 407 OFFCURVE",
"139 428 OFFCURVE",
"92 462 CURVE SMOOTH",
"89 464 LINE",
"120 524 OFFCURVE",
"179 563 OFFCURVE",
"248 559 CURVE SMOOTH",
"259 559 OFFCURVE",
"263 569 OFFCURVE",
"252 571 CURVE",
"177 578 OFFCURVE",
"111 538 OFFCURVE",
"73 476 CURVE",
"-71 597 OFFCURVE",
"119 743 OFFCURVE",
"397 678 CURVE SMOOTH",
"421 672 LINE",
"345 593 OFFCURVE",
"286 495 OFFCURVE",
"250 395 CURVE"
);
},
{
closed = 1;
nodes = (
"309 117 LINE",
"292 189 OFFCURVE",
"296 277 OFFCURVE",
"316 366 CURVE",
"461 360 OFFCURVE",
"616 407 OFFCURVE",
"734 480 CURVE",
"746 460 LINE SMOOTH",
"870 255 OFFCURVE",
"610 64 OFFCURVE",
"332 113 CURVE SMOOTH"
);
},
{
closed = 1;
nodes = (
"405 -54 OFFCURVE",
"347 1 OFFCURVE",
"319 82 CURVE",
"594 35 OFFCURVE",
"887 239 OFFCURVE",
"770 454 CURVE SMOOTH",
"763 466 OFFCURVE",
"756 478 OFFCURVE",
"748 489 CURVE",
"771 505 OFFCURVE",
"793 521 OFFCURVE",
"812 538 CURVE SMOOTH",
"847 569 OFFCURVE",
"871 602 OFFCURVE",
"885 635 CURVE",
"1031 437 OFFCURVE",
"761 -47 OFFCURVE",
"496 -52 CURVE SMOOTH"
);
},
{
closed = 1;
nodes = (
"347 484 OFFCURVE",
"395 582 OFFCURVE",
"462 660 CURVE",
"563 627 OFFCURVE",
"663 571 OFFCURVE",
"723 494 CURVE",
"612 423 OFFCURVE",
"463 378 OFFCURVE",
"321 386 CURVE"
);
},
{
closed = 1;
nodes = (
"676 580 OFFCURVE",
"579 642 OFFCURVE",
"480 679 CURVE",
"519 720 OFFCURVE",
"563 755 OFFCURVE",
"614 779 CURVE SMOOTH",
"811 873 OFFCURVE",
"902 784 OFFCURVE",
"876 673 CURVE",
"860 684 OFFCURVE",
"843 694 OFFCURVE",
"823 703 CURVE SMOOTH",
"813 707 OFFCURVE",
"805 697 OFFCURVE",
"815 692 CURVE SMOOTH",
"836 682 OFFCURVE",
"855 669 OFFCURVE",
"870 654 CURVE",
"857 618 OFFCURVE",
"832 582 OFFCURVE",
"796 548 CURVE SMOOTH",
"778 532 OFFCURVE",
"759 517 OFFCURVE",
"738 503 CURVE"
);
}
);
width = 925;
}
);
note = O;
unicode = 004F;
},
{
glyphname = Oslash;
lastChange = "2021-09-23 18:48:50 +0000";
layers = (
{
hints = (
{
horizontal = 1;
place = "{583, 13}";
type = Stem;
},
{
horizontal = 1;
place = "{657, -20}";
target = down;
type = TopGhost;
}
);
layerId = "32B14CDE-4F96-422E-BD5E-1145416534B1";
paths = (
{
closed = 1;
nodes = (
"82 -86 LINE",
"159 13 LINE",
"205 -31 OFFCURVE",
"269 -48 OFFCURVE",
"332 -48 CURVE SMOOTH",
"455 -48 OFFCURVE",
"564 28 OFFCURVE",
"625 132 CURVE SMOOTH",
"653 179 OFFCURVE",
"666 236 OFFCURVE",
"666 291 CURVE SMOOTH",
"666 335 OFFCURVE",
"657 382 OFFCURVE",
"635 421 CURVE",
"659 435 OFFCURVE",
"683 459 OFFCURVE",
"683 489 CURVE SMOOTH",
"683 536 OFFCURVE",
"634 567 OFFCURVE",
"594 580 CURVE",
"667 675 LINE",
"635 675 LINE",
"567 588 LINE",
"540 594 OFFCURVE",
"513 596 OFFCURVE",
"485 596 CURVE SMOOTH",
"368 596 OFFCURVE",
"256 565 OFFCURVE",
"178 474 CURVE",
"148 497 OFFCURVE",
"119 530 OFFCURVE",
"119 569 CURVE SMOOTH",
"119 624 OFFCURVE",
"165 643 OFFCURVE",
"213 643 CURVE SMOOTH",
"248 643 OFFCURVE",
"279 632 OFFCURVE",
"309 616 CURVE",
"310 615 OFFCURVE",
"314 613 OFFCURVE",
"315 613 CURVE SMOOTH",
"316 613 OFFCURVE",
"317 614 OFFCURVE",
"317 615 CURVE SMOOTH",
"317 616 OFFCURVE",
"315 622 OFFCURVE",
"313 623 CURVE SMOOTH",
"279 643 OFFCURVE",
"239 657 OFFCURVE",
"199 657 CURVE SMOOTH",
"146 657 OFFCURVE",
"100 638 OFFCURVE",
"100 578 CURVE SMOOTH",
"100 531 OFFCURVE",
"134 492 OFFCURVE",
"170 465 CURVE",
"115 396 OFFCURVE",
"84 300 OFFCURVE",
"84 212 CURVE SMOOTH",
"84 148 OFFCURVE",
"100 82 OFFCURVE",
"141 32 CURVE",
"50 -86 LINE"
);
},
{
closed = 1;
nodes = (
"154 113 OFFCURVE",
"147 157 OFFCURVE",
"147 200 CURVE SMOOTH",
"147 282 OFFCURVE",
"173 367 OFFCURVE",
"220 434 CURVE",
"279 404 OFFCURVE",
"344 388 OFFCURVE",
"410 383 CURVE",
"173 74 LINE"
);
},
{
closed = 1;
nodes = (
"285 -33 OFFCURVE",
"223 -3 OFFCURVE",
"187 51 CURVE",
"441 381 LINE",
"498 380 OFFCURVE",
"562 386 OFFCURVE",
"614 409 CURVE",
"625 378 OFFCURVE",
"629 343 OFFCURVE",
"629 309 CURVE SMOOTH",
"629 262 OFFCURVE",
"620 205 OFFCURVE",
"599 162 CURVE SMOOTH",
"553 73 OFFCURVE",
"457 -33 OFFCURVE",
"349 -33 CURVE SMOOTH"
);
},
{
closed = 1;
nodes = (
"352 396 OFFCURVE",
"286 412 OFFCURVE",
"227 443 CURVE",
"290 529 OFFCURVE",
"387 584 OFFCURVE",
"495 584 CURVE SMOOTH",
"517 584 OFFCURVE",
"539 582 OFFCURVE",
"561 579 CURVE",
"419 394 LINE"
);
},
{
closed = 1;
nodes = (
"515 478 LINE",
"521 479 OFFCURVE",
"528 480 OFFCURVE",
"534 480 CURVE SMOOTH",
"567 480 OFFCURVE",
"591 458 OFFCURVE",
"605 429 CURVE",
"560 406 OFFCURVE",
"502 397 OFFCURVE",
"451 395 CURVE"
);
},
{
closed = 1;
nodes = (
"599 472 OFFCURVE",
"566 491 OFFCURVE",
"526 492 CURVE",
"588 573 LINE",
"627 562 OFFCURVE",
"659 537 OFFCURVE",
"659 493 CURVE SMOOTH",
"659 470 OFFCURVE",
"641 452 OFFCURVE",
"623 440 CURVE"
);
}
);
width = 641;
}
);
note = Oslash;
unicode = 00D8;
},
{
glyphname = OE;
lastChange = "2021-09-23 18:48:50 +0000";
layers = (
{
hints = (
{
horizontal = 1;
place = "{-48, 15}";
type = Stem;
},
{
horizontal = 1;
place = "{268, 12}";
type = Stem;
},
{
horizontal = 1;
place = "{353, 11}";
type = Stem;
},
{
horizontal = 1;
place = "{460, 12}";
type = Stem;
},
{
horizontal = 1;
place = "{584, 12}";
type = Stem;
},
{
horizontal = 1;
place = "{609, 11}";
type = Stem;
},
{
horizontal = 1;
place = "{643, 14}";
type = Stem;
},
{
place = "{100, 19}";
type = Stem;
},
{
place = "{659, 24}";
type = Stem;
},
{
place = "{792, 34}";
type = Stem;
},
{
place = "{956, 21}";
type = Stem;
},
{
place = "{1031, 37}";
type = Stem;
},
{
place = "{1074, 20}";
type = Stem;
}
);
layerId = "32B14CDE-4F96-422E-BD5E-1145416534B1";
paths = (
{
closed = 1;
nodes = (
"886 -52 OFFCURVE",
"1069 26 OFFCURVE",
"1069 177 CURVE SMOOTH",
"1069 237 OFFCURVE",
"1033 280 OFFCURVE",
"971 280 CURVE SMOOTH",
"935 280 OFFCURVE",
"899 267 OFFCURVE",
"885 231 CURVE SMOOTH",
"883 226 OFFCURVE",
"880 214 OFFCURVE",
"880 209 CURVE SMOOTH",
"880 206 OFFCURVE",
"881 193 OFFCURVE",
"888 193 CURVE SMOOTH",
"893 193 OFFCURVE",
"891 206 OFFCURVE",
"891 209 CURVE SMOOTH",
"891 247 OFFCURVE",
"927 268 OFFCURVE",
"960 268 CURVE SMOOTH",
"1011 268 OFFCURVE",
"1031 232 OFFCURVE",
"1031 185 CURVE SMOOTH",
"1031 53 OFFCURVE",
"894 -38 OFFCURVE",
"773 -38 CURVE SMOOTH",
"686 -38 OFFCURVE",
"618 9 OFFCURVE",
"601 96 CURVE",
"644 154 OFFCURVE",
"667 218 OFFCURVE",
"666 291 CURVE SMOOTH",
"666 300 LINE",
"711 348 OFFCURVE",
"775 375 OFFCURVE",
"840 387 CURVE",
"868 366 OFFCURVE",
"906 353 OFFCURVE",
"941 353 CURVE SMOOTH",
"954 353 OFFCURVE",
"977 357 OFFCURVE",
"977 374 CURVE SMOOTH",
"977 405 OFFCURVE",
"889 404 OFFCURVE",
"866 404 CURVE SMOOTH",
"842 404 LINE",
"830 420 OFFCURVE",
"826 440 OFFCURVE",
"826 459 CURVE SMOOTH",
"826 549 OFFCURVE",
"902 608 OFFCURVE",
"989 608 CURVE SMOOTH",
"1031 608 OFFCURVE",
"1074 586 OFFCURVE",
"1074 539 CURVE SMOOTH",
"1074 498 OFFCURVE",
"1032 472 OFFCURVE",
"994 472 CURVE SMOOTH",
"983 472 OFFCURVE",
"974 481 OFFCURVE",
"974 491 CURVE SMOOTH",
"974 496 OFFCURVE",
"977 499 OFFCURVE",
"977 503 CURVE SMOOTH",
"977 505 OFFCURVE",
"976 506 OFFCURVE",
"974 506 CURVE SMOOTH",
"971 506 OFFCURVE",
"970 503 OFFCURVE",
"970 501 CURVE",
"969 498 OFFCURVE",
"968 495 OFFCURVE",
"968 491 CURVE SMOOTH",
"968 469 OFFCURVE",
"997 460 OFFCURVE",
"1015 460 CURVE SMOOTH",
"1057 460 OFFCURVE",
"1094 498 OFFCURVE",
"1094 540 CURVE SMOOTH",
"1094 607 OFFCURVE",
"1032 620 OFFCURVE",
"978 620 CURVE SMOOTH",
"894 620 OFFCURVE",
"793 573 OFFCURVE",
"793 476 CURVE SMOOTH",
"793 448 OFFCURVE",
"804 423 OFFCURVE",
"823 402 CURVE",
"763 396 OFFCURVE",
"711 379 OFFCURVE",
"661 347 CURVE",
"656 373 OFFCURVE",
"648 398 OFFCURVE",
"635 421 CURVE",
"659 436 OFFCURVE",
"683 459 OFFCURVE",
"683 489 CURVE SMOOTH",
"683 492 OFFCURVE",
"683 495 OFFCURVE",
"682 497 CURVE",
"666 578 OFFCURVE",
"552 596 OFFCURVE",
"485 596 CURVE SMOOTH",
"368 596 OFFCURVE",
"256 565 OFFCURVE",
"178 474 CURVE",
"148 497 OFFCURVE",
"119 530 OFFCURVE",
"119 569 CURVE SMOOTH",
"119 624 OFFCURVE",
"165 643 OFFCURVE",
"213 643 CURVE SMOOTH",
"248 643 OFFCURVE",
"279 632 OFFCURVE",
"309 616 CURVE",
"310 615 OFFCURVE",
"314 613 OFFCURVE",
"315 613 CURVE SMOOTH",
"316 613 OFFCURVE",
"317 614 OFFCURVE",
"317 615 CURVE SMOOTH",
"317 616 OFFCURVE",
"315 622 OFFCURVE",
"313 623 CURVE SMOOTH",
"280 644 OFFCURVE",
"238 657 OFFCURVE",
"199 657 CURVE SMOOTH",
"146 657 OFFCURVE",
"100 638 OFFCURVE",
"100 578 CURVE SMOOTH",
"100 531 OFFCURVE",
"134 492 OFFCURVE",
"170 465 CURVE",
"115 396 OFFCURVE",
"84 300 OFFCURVE",
"84 212 CURVE SMOOTH",
"84 57 OFFCURVE",
"172 -48 OFFCURVE",
"332 -48 CURVE SMOOTH",
"419 -48 OFFCURVE",
"498 -10 OFFCURVE",
"560 50 CURVE",
"600 -24 OFFCURVE",
"678 -52 OFFCURVE",
"757 -52 CURVE SMOOTH"
);
},
{
closed = 1;
nodes = (
"342 -33 OFFCURVE",
"336 -32 OFFCURVE",
"330 -32 CURVE",
"203 -16 OFFCURVE",
"147 80 OFFCURVE",
"147 200 CURVE SMOOTH",
"147 282 OFFCURVE",
"173 367 OFFCURVE",
"220 434 CURVE",
"294 396 OFFCURVE",
"374 381 OFFCURVE",
"457 381 CURVE SMOOTH",
"509 381 OFFCURVE",
"566 388 OFFCURVE",
"614 409 CURVE",
"625 378 OFFCURVE",
"629 343 OFFCURVE",
"629 309 CURVE SMOOTH",
"629 261 OFFCURVE",
"621 205 OFFCURVE",
"599 162 CURVE SMOOTH",
"553 73 OFFCURVE",
"457 -33 OFFCURVE",
"349 -33 CURVE SMOOTH"
);
},
{
closed = 1;
nodes = (
"360 394 OFFCURVE",
"290 411 OFFCURVE",
"227 443 CURVE",
"290 529 OFFCURVE",
"387 584 OFFCURVE",
"495 584 CURVE SMOOTH",
"556 584 OFFCURVE",
"659 574 OFFCURVE",
"659 493 CURVE SMOOTH",
"659 470 OFFCURVE",
"641 452 OFFCURVE",
"623 440 CURVE",
"599 473 OFFCURVE",
"565 492 OFFCURVE",
"524 492 CURVE SMOOTH",
"518 492 OFFCURVE",
"499 492 OFFCURVE",
"499 483 CURVE SMOOTH",
"499 478 OFFCURVE",
"506 477 OFFCURVE",
"510 477 CURVE SMOOTH",
"518 477 OFFCURVE",
"526 480 OFFCURVE",
"534 480 CURVE SMOOTH",
"567 480 OFFCURVE",
"591 458 OFFCURVE",
"605 429 CURVE",
"554 404 OFFCURVE",
"487 394 OFFCURVE",
"431 394 CURVE SMOOTH"
);
},
{
closed = 1;
nodes = (
"905 364 OFFCURVE",
"871 376 OFFCURVE",
"855 390 CURVE",
"874 392 OFFCURVE",
"893 394 OFFCURVE",
"912 394 CURVE SMOOTH",
"921 394 OFFCURVE",
"957 391 OFFCURVE",
"957 377 CURVE SMOOTH",
"957 367 OFFCURVE",
"933 364 OFFCURVE",
"926 364 CURVE SMOOTH"
);
}
);
width = 1021;
}
);
note = OE;
unicode = 0152;
},
{
glyphname = P;
lastChange = "2021-09-23 18:48:50 +0000";
layers = (
{
hints = (
{
horizontal = 1;
place = "{-44, 16}";
type = Stem;
},
{
horizontal = 1;
place = "{231, 12}";
type = Stem;
}
);
layerId = "32B14CDE-4F96-422E-BD5E-1145416534B1";
paths = (
{
closed = 1;
nodes = (
"289 -141 OFFCURVE",
"383 -104 OFFCURVE",
"460 -43 CURVE",
"515 -67 OFFCURVE",
"580 -81 OFFCURVE",
"655 -79 CURVE SMOOTH",
"775 -75 OFFCURVE",
"903 10 OFFCURVE",
"889 122 CURVE SMOOTH",
"888 132 OFFCURVE",
"873 130 OFFCURVE",
"875 120 CURVE SMOOTH",
"887 21 OFFCURVE",
"772 -61 OFFCURVE",
"655 -64 CURVE SMOOTH",
"585 -66 OFFCURVE",
"525 -53 OFFCURVE",
"474 -31 CURVE",
"526 13 OFFCURVE",
"570 68 OFFCURVE",
"604 130 CURVE SMOOTH",
"667 244 OFFCURVE",
"817 615 OFFCURVE",
"963 764 CURVE",
"1061 721 OFFCURVE",
"1126 653 OFFCURVE",
"1127 561 CURVE SMOOTH",
"1127 417 OFFCURVE",
"923 282 OFFCURVE",
"700 282 CURVE SMOOTH",
"680 282 OFFCURVE",
"682 270 OFFCURVE",
"700 270 CURVE SMOOTH",
"954 270 OFFCURVE",
"1196 405 OFFCURVE",
"1202 558 CURVE SMOOTH",
"1206 669 OFFCURVE",
"1119 746 OFFCURVE",
"991 790 CURVE",
"1028 821 OFFCURVE",
"1065 835 OFFCURVE",
"1099 824 CURVE SMOOTH",
"1108 821 OFFCURVE",
"1113 835 OFFCURVE",
"1103 838 CURVE SMOOTH",
"1059 852 OFFCURVE",
"1011 832 OFFCURVE",
"966 799 CURVE",
"621 901 OFFCURVE",
"19 774 OFFCURVE",
"19 389 CURVE SMOOTH",
"19 304 OFFCURVE",
"51 241 OFFCURVE",
"98 199 CURVE",
"4 30 OFFCURVE",
"33 -141 OFFCURVE",
"184 -141 CURVE SMOOTH"
);
},
{
closed = 1;
nodes = (
"49 -126 OFFCURVE",
"25 30 OFFCURVE",
"112 188 CURVE",
"159 153 OFFCURVE",
"217 137 OFFCURVE",
"275 140 CURVE",
"301 81 OFFCURVE",
"346 25 OFFCURVE",
"409 -15 CURVE",
"347 -80 OFFCURVE",
"274 -126 OFFCURVE",
"184 -126 CURVE SMOOTH"
);
},
{
closed = 1;
nodes = (
"216 151 OFFCURVE",
"163 169 OFFCURVE",
"123 205 CURVE",
"152 255 OFFCURVE",
"193 304 OFFCURVE",
"245 347 CURVE",
"237 285 OFFCURVE",
"244 215 OFFCURVE",
"270 151 CURVE"
);
},
{
closed = 1;
nodes = (
"267 223 OFFCURVE",
"259 300 OFFCURVE",
"269 367 CURVE",
"298 390 OFFCURVE",
"331 411 OFFCURVE",
"366 429 CURVE SMOOTH",
"394 443 OFFCURVE",
"379 454 OFFCURVE",
"360 444 CURVE SMOOTH",
"329 429 OFFCURVE",
"300 411 OFFCURVE",
"274 392 CURVE",
"293 476 OFFCURVE",
"344 537 OFFCURVE",
"418 537 CURVE SMOOTH",
"599 537 OFFCURVE",
"578 171 OFFCURVE",
"297 152 CURVE"
);
},
{
closed = 1;
nodes = (
"366 36 OFFCURVE",
"326 87 OFFCURVE",
"301 141 CURVE",
"611 169 OFFCURVE",
"614 550 OFFCURVE",
"418 550 CURVE SMOOTH",
"330 550 OFFCURVE",
"269 473 OFFCURVE",
"249 373 CURVE",
"190 326 OFFCURVE",
"143 273 OFFCURVE",
"110 218 CURVE",
"74 257 OFFCURVE",
"51 312 OFFCURVE",
"51 385 CURVE SMOOTH",
"51 774 OFFCURVE",
"628 889 OFFCURVE",
"937 775 CURVE",
"894 737 OFFCURVE",
"856 690 OFFCURVE",
"830 654 CURVE SMOOTH",
"728 514 OFFCURVE",
"641 334 OFFCURVE",
"552 186 CURVE SMOOTH",
"515 124 OFFCURVE",
"472 55 OFFCURVE",
"421 -2 CURVE"
);
}
);
width = 1044;
}
);
note = P;
unicode = 0050;
},
{
glyphname = Thorn;
lastChange = "2021-09-23 19:28:38 +0000";
layers = (
{
background = {
paths = (
{
closed = 1;
nodes = (
"406 -12 OFFCURVE",
"584 203 OFFCURVE",
"613 389 CURVE SMOOTH",
"638 548 OFFCURVE",
"584 596 OFFCURVE",
"507 596 CURVE SMOOTH",
"404 596 OFFCURVE",
"273 475 OFFCURVE",
"184 306 CURVE SMOOTH",
"93 134 OFFCURVE",
"83 -12 OFFCURVE",
"213 -12 CURVE SMOOTH"
);
},
{
closed = 1;
nodes = (
"76 11 OFFCURVE",
"153 230 OFFCURVE",
"252 381 CURVE SMOOTH",
"334 507 OFFCURVE",
"425 569 OFFCURVE",
"492 569 CURVE SMOOTH",
"521 569 OFFCURVE",
"550 553 OFFCURVE",
"550 475 CURVE SMOOTH",
"550 274 OFFCURVE",
"393 11 OFFCURVE",
"203 11 CURVE SMOOTH"
);
}
);
};
hints = (
{
horizontal = 1;
place = "{-308, 16}";
type = Stem;
},
{
place = "{421, 50}";
type = Stem;
}
);
layerId = "32B14CDE-4F96-422E-BD5E-1145416534B1";
paths = (
{
closed = 1;
nodes = (
"-152 -308 OFFCURVE",
"-76 -258 OFFCURVE",
"-4 -157 CURVE SMOOTH",
"13 -135 OFFCURVE",
"41 -82 OFFCURVE",
"80 1 CURVE SMOOTH",
"173 199 OFFCURVE",
"158 252 OFFCURVE",
"249 422 CURVE SMOOTH",
"327 568 OFFCURVE",
"401 668 OFFCURVE",
"474 675 CURVE SMOOTH",
"524 685 OFFCURVE",
"541 726 OFFCURVE",
"495 726 CURVE SMOOTH",
"421 726 OFFCURVE",
"295 607 OFFCURVE",
"194 360 CURVE SMOOTH",
"80 81 OFFCURVE",
"7 -65 OFFCURVE",
"-121 -203 CURVE SMOOTH",
"-170 -256 OFFCURVE",
"-222 -292 OFFCURVE",
"-253 -292 CURVE SMOOTH",
"-279 -292 OFFCURVE",
"-298 -274 OFFCURVE",
"-308 -237 CURVE",
"-310 -236 LINE",
"-316 -239 LINE",
"-317 -241 LINE",
"-313 -259 OFFCURVE",
"-302 -275 OFFCURVE",
"-286 -288 CURVE SMOOTH",
"-270 -301 OFFCURVE",
"-252 -308 OFFCURVE",
"-233 -308 CURVE SMOOTH"
);
},
{
closed = 1;
nodes = (
"406 -12 OFFCURVE",
"584 203 OFFCURVE",
"613 389 CURVE SMOOTH",
"638 548 OFFCURVE",
"584 596 OFFCURVE",
"507 596 CURVE SMOOTH",
"404 596 OFFCURVE",
"273 475 OFFCURVE",
"184 306 CURVE SMOOTH",
"93 134 OFFCURVE",
"83 -12 OFFCURVE",
"213 -12 CURVE SMOOTH"
);
},
{
closed = 1;
nodes = (
"76 11 OFFCURVE",
"153 230 OFFCURVE",
"252 381 CURVE SMOOTH",
"334 507 OFFCURVE",
"425 569 OFFCURVE",
"492 569 CURVE SMOOTH",
"521 569 OFFCURVE",
"550 553 OFFCURVE",
"550 475 CURVE SMOOTH",
"550 274 OFFCURVE",
"393 11 OFFCURVE",
"203 11 CURVE SMOOTH"
);
}
);
width = 569;
}
);
note = Thorn;
unicode = 00DE;
},
{
glyphname = Q;
lastChange = "2021-11-17 05:29:22 +0000";
layers = (
{
hints = (
{
horizontal = 1;
place = "{620, 19}";
type = Stem;
}
);
layerId = "32B14CDE-4F96-422E-BD5E-1145416534B1";
paths = (
{
closed = 1;
nodes = (
"792 -350 OFFCURVE",
"878 -243 OFFCURVE",
"807 -65 CURVE SMOOTH",
"804 -57 OFFCURVE",
"788 -65 OFFCURVE",
"793 -73 CURVE",
"854 -228 OFFCURVE",
"802 -315 OFFCURVE",
"720 -335 CURVE SMOOTH",
"565 -373 OFFCURVE",
"412 -151 OFFCURVE",
"296 -64 CURVE",
"491 -121 OFFCURVE",
"808 26 OFFCURVE",
"900 391 CURVE SMOOTH",
"929 502 OFFCURVE",
"912 578 OFFCURVE",
"873 625 CURVE",
"897 655 OFFCURVE",
"917 690 OFFCURVE",
"926 728 CURVE SMOOTH",
"946 807 OFFCURVE",
"870 849 OFFCURVE",
"805 850 CURVE SMOOTH",
"702 851 OFFCURVE",
"599 810 OFFCURVE",
"506 745 CURVE",
"455 766 OFFCURVE",
"395 785 OFFCURVE",
"333 790 CURVE SMOOTH",
"210 799 OFFCURVE",
"86 758 OFFCURVE",
"56 629 CURVE SMOOTH",
"46 585 OFFCURVE",
"54 540 OFFCURVE",
"80 501 CURVE",
"60 473 OFFCURVE",
"43 440 OFFCURVE",
"33 401 CURVE SMOOTH",
"6 295 OFFCURVE",
"27 180 OFFCURVE",
"138 125 CURVE",
"144 62 OFFCURVE",
"170 13 OFFCURVE",
"209 -19 CURVE",
"158 -2 OFFCURVE",
"106 -4 OFFCURVE",
"61 -36 CURVE SMOOTH",
"52 -42 OFFCURVE",
"54 -51 OFFCURVE",
"64 -46 CURVE SMOOTH",
"120 -15 OFFCURVE",
"188 -44 OFFCURVE",
"251 -96 CURVE SMOOTH",
"371 -196 OFFCURVE",
"466 -439 OFFCURVE",
"682 -380 CURVE SMOOTH"
);
},
{
closed = 1;
nodes = (
"40 199 OFFCURVE",
"24 304 OFFCURVE",
"48 401 CURVE SMOOTH",
"55 429 OFFCURVE",
"71 459 OFFCURVE",
"90 487 CURVE",
"117 454 OFFCURVE",
"158 427 OFFCURVE",
"213 412 CURVE",
"184 358 OFFCURVE",
"162 303 OFFCURVE",
"149 252 CURVE SMOOTH",
"139 213 OFFCURVE",
"135 177 OFFCURVE",
"137 144 CURVE"
);
},
{
closed = 1;
nodes = (
"550 87 OFFCURVE",
"745 306 OFFCURVE",
"717 505 CURVE",
"760 527 OFFCURVE",
"802 555 OFFCURVE",
"838 588 CURVE",
"857 542 OFFCURVE",
"858 476 OFFCURVE",
"836 385 CURVE SMOOTH",
"719 -75 OFFCURVE",
"254 -181 OFFCURVE",
"213 100 CURVE",
"241 93 OFFCURVE",
"270 90 OFFCURVE",
"304 90 CURVE SMOOTH"
);
},
{
closed = 1;
nodes = (
"271 105 OFFCURVE",
"239 109 OFFCURVE",
"211 116 CURVE",
"208 155 OFFCURVE",
"211 200 OFFCURVE",
"224 251 CURVE SMOOTH",
"237 300 OFFCURVE",
"255 350 OFFCURVE",
"278 402 CURVE",
"290 401 OFFCURVE",
"304 400 OFFCURVE",
"319 400 CURVE SMOOTH",
"396 399 OFFCURVE",
"552 427 OFFCURVE",
"688 490 CURVE",
"700 307 OFFCURVE",
"530 102 OFFCURVE",
"308 105 CURVE SMOOTH"
);
},
{
closed = 1;
nodes = (
"163 442 OFFCURVE",
"126 471 OFFCURVE",
"104 506 CURVE",
"153 567 OFFCURVE",
"225 614 OFFCURVE",
"290 603 CURVE SMOOTH",
"299 601 OFFCURVE",
"305 616 OFFCURVE",
"295 617 CURVE SMOOTH",
"256 624 OFFCURVE",
"163 594 OFFCURVE",
"97 520 CURVE",
"49 626 OFFCURVE",
"143 773 OFFCURVE",
"340 763 CURVE SMOOTH",
"391 761 OFFCURVE",
"441 747 OFFCURVE",
"485 731 CURVE",
"378 651 OFFCURVE",
"285 540 OFFCURVE",
"221 427 CURVE"
);
},
{
closed = 1;
nodes = (
"309 415 OFFCURVE",
"297 415 OFFCURVE",
"284 416 CURVE",
"338 529 OFFCURVE",
"416 640 OFFCURVE",
"512 720 CURVE",
"541 706 OFFCURVE",
"566 692 OFFCURVE",
"584 679 CURVE",
"599 665 LINE",
"542 641 OFFCURVE",
"497 602 OFFCURVE",
"485 553 CURVE SMOOTH",
"482 543 OFFCURVE",
"497 543 OFFCURVE",
"500 553 CURVE SMOOTH",
"511 595 OFFCURVE",
"557 634 OFFCURVE",
"610 655 CURVE",
"655 612 OFFCURVE",
"679 559 OFFCURVE",
"686 504 CURVE",
"560 444 OFFCURVE",
"411 414 OFFCURVE",
"323 415 CURVE SMOOTH"
);
},
{
closed = 1;
nodes = (
"704 570 OFFCURVE",
"678 619 OFFCURVE",
"634 663 CURVE",
"707 685 OFFCURVE",
"793 674 OFFCURVE",
"830 601 CURVE",
"799 570 OFFCURVE",
"757 542 OFFCURVE",
"713 519 CURVE"
);
},
{
closed = 1;
nodes = (
"804 694 OFFCURVE",
"704 700 OFFCURVE",
"623 674 CURVE",
"613 681 OFFCURVE",
"604 688 OFFCURVE",
"595 697 CURVE",
"579 708 OFFCURVE",
"556 721 OFFCURVE",
"531 734 CURVE",
"611 796 OFFCURVE",
"703 836 OFFCURVE",
"802 835 CURVE SMOOTH",
"863 834 OFFCURVE",
"924 781 OFFCURVE",
"911 728 CURVE SMOOTH",
"903 695 OFFCURVE",
"885 663 OFFCURVE",
"863 635 CURVE"
);
}
);
width = 869;
}
);
note = Q;
unicode = 0051;
},
{
glyphname = R;
lastChange = "2021-09-23 18:48:50 +0000";
layers = (
{
hints = (
{
horizontal = 1;
place = "{-110, 16}";
type = Stem;
}
);
layerId = "32B14CDE-4F96-422E-BD5E-1145416534B1";
paths = (
{
closed = 1;
nodes = (
"126 -194 OFFCURVE",
"267 -70 OFFCURVE",
"373 84 CURVE",
"426 91 OFFCURVE",
"480 110 OFFCURVE",
"529 143 CURVE",
"603 15 OFFCURVE",
"686 -121 OFFCURVE",
"832 -121 CURVE SMOOTH",
"939 -121 OFFCURVE",
"1027 -35 OFFCURVE",
"968 168 CURVE",
"966 178 OFFCURVE",
"951 174 OFFCURVE",
"954 164 CURVE SMOOTH",
"1005 -12 OFFCURVE",
"951 -86 OFFCURVE",
"872 -84 CURVE SMOOTH",
"764 -82 OFFCURVE",
"665 57 OFFCURVE",
"578 180 CURVE",
"593 195 LINE SMOOTH",
"627 228 OFFCURVE",
"654 264 OFFCURVE",
"674 301 CURVE",
"1196 373 OFFCURVE",
"1155 842 OFFCURVE",
"689 842 CURVE SMOOTH",
"427 842 OFFCURVE",
"115 651 OFFCURVE",
"84 375 CURVE SMOOTH",
"64 200 OFFCURVE",
"164 102 OFFCURVE",
"291 85 CURVE",
"207 -44 OFFCURVE",
"104 -164 OFFCURVE",
"-22 -203 CURVE SMOOTH",
"-138 -239 OFFCURVE",
"-302 -209 OFFCURVE",
"-285 -75 CURVE SMOOTH",
"-284 -66 OFFCURVE",
"-296 -66 OFFCURVE",
"-298 -74 CURVE SMOOTH",
"-323 -224 OFFCURVE",
"-174 -243 OFFCURVE",
"-50 -223 CURVE SMOOTH"
);
},
{
closed = 1;
nodes = (
"414 146 OFFCURVE",
"442 196 OFFCURVE",
"466 247 CURVE",
"485 219 OFFCURVE",
"503 187 OFFCURVE",
"522 155 CURVE",
"477 124 OFFCURVE",
"429 106 OFFCURVE",
"382 99 CURVE"
);
},
{
closed = 1;
nodes = (
"544 230 OFFCURVE",
"519 265 OFFCURVE",
"495 294 CURVE",
"554 291 OFFCURVE",
"607 293 OFFCURVE",
"656 299 CURVE",
"637 267 OFFCURVE",
"613 236 OFFCURVE",
"583 205 CURVE SMOOTH",
"570 193 LINE"
);
},
{
closed = 1;
nodes = (
"548 431 OFFCURVE",
"607 542 OFFCURVE",
"665 623 CURVE",
"716 555 OFFCURVE",
"729 435 OFFCURVE",
"665 315 CURVE",
"614 308 OFFCURVE",
"557 306 OFFCURVE",
"494 309 CURVE"
);
},
{
closed = 1;
nodes = (
"192 117 OFFCURVE",
"113 208 OFFCURVE",
"131 369 CURVE SMOOTH",
"163 654 OFFCURVE",
"425 827 OFFCURVE",
"695 827 CURVE SMOOTH",
"1051 827 OFFCURVE",
"1119 385 OFFCURVE",
"682 317 CURVE",
"743 440 OFFCURVE",
"731 566 OFFCURVE",
"675 637 CURVE",
"737 720 OFFCURVE",
"798 767 OFFCURVE",
"848 753 CURVE SMOOTH",
"854 751 OFFCURVE",
"858 761 OFFCURVE",
"852 763 CURVE SMOOTH",
"791 779 OFFCURVE",
"723 741 OFFCURVE",
"651 661 CURVE",
"626 681 OFFCURVE",
"596 693 OFFCURVE",
"562 693 CURVE SMOOTH",
"426 693 OFFCURVE",
"354 534 OFFCURVE",
"440 489 CURVE SMOOTH",
"449 485 OFFCURVE",
"456 498 OFFCURVE",
"447 502 CURVE SMOOTH",
"377 540 OFFCURVE",
"441 678 OFFCURVE",
"562 678 CURVE SMOOTH",
"591 678 OFFCURVE",
"618 667 OFFCURVE",
"640 649 CURVE",
"578 577 OFFCURVE",
"511 474 OFFCURVE",
"442 350 CURVE",
"380 405 OFFCURVE",
"314 435 OFFCURVE",
"256 408 CURVE SMOOTH",
"247 403 OFFCURVE",
"248 394 OFFCURVE",
"258 397 CURVE SMOOTH",
"309 411 OFFCURVE",
"367 371 OFFCURVE",
"420 309 CURVE",
"386 246 OFFCURVE",
"346 171 OFFCURVE",
"300 99 CURVE"
);
}
);
width = 973;
}
);
note = R;
unicode = 0052;
},
{
glyphname = S;
lastChange = "2021-09-23 18:48:50 +0000";
layers = (
{
hints = (
{
horizontal = 1;
place = "{-101, 29}";
type = Stem;
},
{
horizontal = 1;
place = "{136, 17}";
type = Stem;
},
{
horizontal = 1;
place = "{449, 13}";
type = Stem;
},
{
horizontal = 1;
place = "{531, 12}";
type = Stem;
},
{
horizontal = 1;
place = "{765, 33}";
type = Stem;
},
{
place = "{28, 21}";
type = Stem;
},
{
place = "{130, 24}";
type = Stem;
},
{
place = "{482, 12}";
type = Stem;
},
{
place = "{615, 15}";
type = Stem;
},
{
place = "{685, 73}";
type = Stem;
},
{
place = "{642, 28}";
type = Stem;
},
{
horizontal = 1;
place = "{-47, 15}";
type = Stem;
}
);
layerId = "32B14CDE-4F96-422E-BD5E-1145416534B1";
paths = (
{
closed = 1;
nodes = (
"152 -47 OFFCURVE",
"184 -44 OFFCURVE",
"214 -39 CURVE",
"411 -197 OFFCURVE",
"873 -55 OFFCURVE",
"731 415 CURVE SMOOTH",
"702 509 OFFCURVE",
"621 648 OFFCURVE",
"710 739 CURVE SMOOTH",
"751 781 OFFCURVE",
"838 768 OFFCURVE",
"873 729 CURVE SMOOTH",
"898 702 OFFCURVE",
"917 739 OFFCURVE",
"883 773 CURVE SMOOTH",
"845 811 OFFCURVE",
"746 809 OFFCURVE",
"691 752 CURVE SMOOTH",
"595 655 OFFCURVE",
"669 520 OFFCURVE",
"680 423 CURVE SMOOTH",
"732 -20 OFFCURVE",
"403 -145 OFFCURVE",
"241 -34 CURVE",
"402 2 OFFCURVE",
"484 110 OFFCURVE",
"493 215 CURVE",
"660 334 OFFCURVE",
"685 543 OFFCURVE",
"510 543 CURVE SMOOTH",
"459 543 OFFCURVE",
"372 516 OFFCURVE",
"293 456 CURVE",
"23 505 OFFCURVE",
"-58 228 OFFCURVE",
"130 154 CURVE",
"127 76 OFFCURVE",
"155 16 OFFCURVE",
"199 -26 CURVE",
"174 -30 OFFCURVE",
"147 -32 OFFCURVE",
"118 -32 CURVE SMOOTH",
"87 -32 OFFCURVE",
"49 -27 OFFCURVE",
"33 -13 CURVE SMOOTH",
"27 -7 OFFCURVE",
"19 -16 OFFCURVE",
"25 -21 CURVE SMOOTH",
"45 -40 OFFCURVE",
"88 -47 OFFCURVE",
"118 -47 CURVE SMOOTH"
);
},
{
closed = 1;
nodes = (
"181 15 OFFCURVE",
"153 72 OFFCURVE",
"154 146 CURVE",
"177 140 OFFCURVE",
"204 136 OFFCURVE",
"234 136 CURVE SMOOTH",
"333 136 OFFCURVE",
"416 165 OFFCURVE",
"480 206 CURVE",
"466 107 OFFCURVE",
"383 9 OFFCURVE",
"225 -22 CURVE"
);
},
{
closed = 1;
nodes = (
"-25 244 OFFCURVE",
"49 481 OFFCURVE",
"280 446 CURVE",
"218 395 OFFCURVE",
"163 323 OFFCURVE",
"140 225 CURVE SMOOTH",
"136 207 OFFCURVE",
"133 190 OFFCURVE",
"131 173 CURVE"
);
},
{
closed = 1;
nodes = (
"204 153 OFFCURVE",
"177 157 OFFCURVE",
"155 164 CURVE",
"156 182 OFFCURVE",
"159 201 OFFCURVE",
"164 220 CURVE SMOOTH",
"187 319 OFFCURVE",
"242 392 OFFCURVE",
"303 442 CURVE",
"421 416 OFFCURVE",
"483 328 OFFCURVE",
"482 234 CURVE",
"417 187 OFFCURVE",
"332 153 OFFCURVE",
"234 153 CURVE SMOOTH"
);
},
{
closed = 1;
nodes = (
"490 336 OFFCURVE",
"429 423 OFFCURVE",
"315 452 CURVE",
"386 506 OFFCURVE",
"463 531 OFFCURVE",
"510 531 CURVE SMOOTH",
"669 531 OFFCURVE",
"636 355 OFFCURVE",
"494 243 CURVE"
);
}
);
width = 787;
}
);
note = S;
unicode = 0053;
},
{
color = 9;
glyphname = Germandbls;
lastChange = "2021-09-23 18:57:20 +0000";
layers = (
{
hints = (
{
horizontal = 1;
place = "{-14, 19}";
type = Stem;
},
{
horizontal = 1;
place = "{50, 12}";
type = Stem;
},
{
horizontal = 1;
place = "{559, 13}";
type = Stem;
},
{
place = "{321, 38}";
type = Stem;
},
{
place = "{684, 39}";
type = Stem;
}
);
layerId = "32B14CDE-4F96-422E-BD5E-1145416534B1";
paths = (
{
closed = 1;
nodes = (
"-329 -108 OFFCURVE",
"-349 -95 OFFCURVE",
"-354 -139 CURVE SMOOTH",
"-366 -254 OFFCURVE",
"-147 -307 OFFCURVE",
"96 31 CURVE SMOOTH",
"139 90 OFFCURVE",
"273 323 OFFCURVE",
"337 455 CURVE SMOOTH",
"412 609 OFFCURVE",
"499 789 OFFCURVE",
"604 789 CURVE SMOOTH",
"741 789 OFFCURVE",
"650 564 OFFCURVE",
"506 507 CURVE SMOOTH",
"471 492 OFFCURVE",
"454 481 OFFCURVE",
"452 465 CURVE SMOOTH",
"452 458 OFFCURVE",
"495 451 OFFCURVE",
"517 437 CURVE SMOOTH",
"680 348 OFFCURVE",
"508 42 OFFCURVE",
"282 42 CURVE SMOOTH",
"218 42 OFFCURVE",
"200 52 OFFCURVE",
"202 76 CURVE SMOOTH",
"209 135 OFFCURVE",
"298 191 OFFCURVE",
"382 209 CURVE SMOOTH",
"392 210 OFFCURVE",
"396 212 OFFCURVE",
"396 215 CURVE SMOOTH",
"396 219 OFFCURVE",
"394 220 OFFCURVE",
"387 220 CURVE SMOOTH",
"322 220 OFFCURVE",
"162 139 OFFCURVE",
"155 67 CURVE SMOOTH",
"151 33 OFFCURVE",
"181 14 OFFCURVE",
"258 14 CURVE SMOOTH",
"544 14 OFFCURVE",
"808 364 OFFCURVE",
"546 461 CURVE SMOOTH",
"517 470 OFFCURVE",
"504 479 OFFCURVE",
"505 488 CURVE SMOOTH",
"505 489 OFFCURVE",
"508 490 OFFCURVE",
"513 490 CURVE SMOOTH",
"541 493 OFFCURVE",
"566 501 OFFCURVE",
"585 510 CURVE SMOOTH",
"743 580 OFFCURVE",
"763 809 OFFCURVE",
"606 807 CURVE SMOOTH",
"455 807 OFFCURVE",
"371 633 OFFCURVE",
"280 465 CURVE SMOOTH",
"199 312 OFFCURVE",
"27 -10 OFFCURVE",
"-70 -116 CURVE SMOOTH",
"-183 -236 OFFCURVE",
"-342 -229 OFFCURVE",
"-332 -140 CURVE SMOOTH"
);
}
);
width = 699;
}
);
unicode = 1E9E;
},
{
glyphname = Schwa;
lastChange = "2021-09-23 19:13:02 +0000";
layers = (
{
background = {
components = (
{
name = C;
transform = "{1, 0, 0, 1, 5, 0}";
}
);
};
layerId = "32B14CDE-4F96-422E-BD5E-1145416534B1";
paths = (
{
closed = 1;
nodes = (
"280 776 OFFCURVE",
"93 476 OFFCURVE",
"81 359 CURVE SMOOTH",
"80 346 OFFCURVE",
"94 346 OFFCURVE",
"97 359 CURVE SMOOTH",
"120 473 OFFCURVE",
"289 751 OFFCURVE",
"488 751 CURVE SMOOTH",
"567 751 OFFCURVE",
"642 686 OFFCURVE",
"642 581 CURVE SMOOTH",
"642 531 OFFCURVE",
"637 477 OFFCURVE",
"618 426 CURVE",
"503 426 OFFCURVE",
"350 382 OFFCURVE",
"226 256 CURVE SMOOTH",
"168 197 OFFCURVE",
"133 126 OFFCURVE",
"133 59 CURVE SMOOTH",
"133 4 OFFCURVE",
"173 -23 OFFCURVE",
"255 -23 CURVE SMOOTH",
"362 -23 OFFCURVE",
"469 42 OFFCURVE",
"569 172 CURVE SMOOTH",
"765 425 OFFCURVE",
"780 776 OFFCURVE",
"505 776 CURVE SMOOTH"
);
},
{
closed = 1;
nodes = (
"593 340 OFFCURVE",
"554 264 OFFCURVE",
"476 169 CURVE SMOOTH",
"391 61 OFFCURVE",
"269 6 OFFCURVE",
"209 6 CURVE SMOOTH",
"116 6 OFFCURVE",
"153 146 OFFCURVE",
"243 237 CURVE SMOOTH",
"344 338 OFFCURVE",
"463 411 OFFCURVE",
"616 411 CURVE"
);
}
);
width = 698;
}
);
unicode = 018F;
},
{
glyphname = T;
lastChange = "2021-09-23 18:48:50 +0000";
layers = (
{
hints = (
{
horizontal = 1;
place = "{280, 12}";
type = Stem;
},
{
horizontal = 1;
place = "{474, 12}";
type = Stem;
},
{
place = "{120, 26}";
type = Stem;
},
{
place = "{512, 12}";
type = Stem;
}
);
layerId = "32B14CDE-4F96-422E-BD5E-1145416534B1";
paths = (
{
closed = 1;
nodes = (
"896 -119 OFFCURVE",
"863 406 OFFCURVE",
"978 616 CURVE SMOOTH",
"989 636 OFFCURVE",
"1001 655 OFFCURVE",
"1012 672 CURVE",
"1161 641 OFFCURVE",
"1298 634 OFFCURVE",
"1383 696 CURVE SMOOTH",
"1416 720 OFFCURVE",
"1439 757 OFFCURVE",
"1445 805 CURVE SMOOTH",
"1446 815 OFFCURVE",
"1431 817 OFFCURVE",
"1430 807 CURVE SMOOTH",
"1424 763 OFFCURVE",
"1403 728 OFFCURVE",
"1371 706 CURVE SMOOTH",
"1303 659 OFFCURVE",
"1178 677 OFFCURVE",
"1042 714 CURVE",
"1071 750 OFFCURVE",
"1101 775 OFFCURVE",
"1134 786 CURVE SMOOTH",
"1143 789 OFFCURVE",
"1139 803 OFFCURVE",
"1129 800 CURVE SMOOTH",
"1092 788 OFFCURVE",
"1058 759 OFFCURVE",
"1026 718 CURVE",
"864 764 OFFCURVE",
"690 832 OFFCURVE",
"587 842 CURVE SMOOTH",
"292 870 OFFCURVE",
"184 760 OFFCURVE",
"167 606 CURVE SMOOTH",
"165 593 OFFCURVE",
"166 579 OFFCURVE",
"168 564 CURVE",
"80 509 OFFCURVE",
"20 429 OFFCURVE",
"20 333 CURVE SMOOTH",
"20 266 OFFCURVE",
"48 216 OFFCURVE",
"93 181 CURVE",
"67 24 OFFCURVE",
"145 -119 OFFCURVE",
"335 -119 CURVE SMOOTH"
);
},
{
closed = 1;
nodes = (
"59 234 OFFCURVE",
"35 278 OFFCURVE",
"35 334 CURVE SMOOTH",
"35 421 OFFCURVE",
"89 496 OFFCURVE",
"171 549 CURVE",
"181 511 OFFCURVE",
"204 472 OFFCURVE",
"239 443 CURVE",
"164 373 OFFCURVE",
"116 286 OFFCURVE",
"98 202 CURVE"
);
},
{
closed = 1;
nodes = (
"251 135 OFFCURVE",
"183 150 OFFCURVE",
"131 179 CURVE",
"144 266 OFFCURVE",
"187 357 OFFCURVE",
"258 430 CURVE",
"309 397 OFFCURVE",
"382 382 OFFCURVE",
"477 408 CURVE SMOOTH",
"486 410 OFFCURVE",
"483 425 OFFCURVE",
"473 422 CURVE SMOOTH",
"384 398 OFFCURVE",
"316 411 OFFCURVE",
"269 441 CURVE",
"317 486 OFFCURVE",
"376 524 OFFCURVE",
"446 547 CURVE SMOOTH",
"856 684 OFFCURVE",
"787 135 OFFCURVE",
"322 135 CURVE SMOOTH"
);
},
{
closed = 1;
nodes = (
"180 -104 OFFCURVE",
"114 19 OFFCURVE",
"128 159 CURVE",
"178 133 OFFCURVE",
"241 121 OFFCURVE",
"306 121 CURVE SMOOTH",
"838 121 OFFCURVE",
"894 713 OFFCURVE",
"441 562 CURVE SMOOTH",
"366 537 OFFCURVE",
"303 499 OFFCURVE",
"251 454 CURVE",
"216 482 OFFCURVE",
"194 521 OFFCURVE",
"186 558 CURVE",
"244 592 OFFCURVE",
"316 616 OFFCURVE",
"391 625 CURVE SMOOTH",
"401 627 OFFCURVE",
"399 641 OFFCURVE",
"389 640 CURVE SMOOTH",
"315 631 OFFCURVE",
"243 608 OFFCURVE",
"183 573 CURVE",
"181 585 OFFCURVE",
"181 596 OFFCURVE",
"182 607 CURVE SMOOTH",
"194 746 OFFCURVE",
"430 822 OFFCURVE",
"658 763 CURVE SMOOTH",
"765 735 OFFCURVE",
"884 699 OFFCURVE",
"996 675 CURVE",
"835 424 OFFCURVE",
"713 -104 OFFCURVE",
"335 -104 CURVE SMOOTH"
);
}
);
width = 956;
}
);
note = T;
unicode = 0054;
},
{
glyphname = U;
lastChange = "2021-09-23 18:48:50 +0000";
layers = (
{
hints = (
{
horizontal = 1;
place = "{455, 31}";
type = Stem;
}
);
layerId = "32B14CDE-4F96-422E-BD5E-1145416534B1";
paths = (
{
closed = 1;
nodes = (
"762 -144 OFFCURVE",
"762 -134 OFFCURVE",
"752 -134 CURVE SMOOTH",
"632 -134 OFFCURVE",
"613 3 OFFCURVE",
"635 165 CURVE",
"750 301 OFFCURVE",
"851 481 OFFCURVE",
"901 639 CURVE SMOOTH",
"920 700 OFFCURVE",
"925 777 OFFCURVE",
"866 770 CURVE SMOOTH",
"837 766 OFFCURVE",
"796 723 OFFCURVE",
"767 669 CURVE SMOOTH",
"729 597 OFFCURVE",
"637 379 OFFCURVE",
"604 187 CURVE",
"547 112 OFFCURVE",
"486 49 OFFCURVE",
"424 11 CURVE SMOOTH",
"285 -75 OFFCURVE",
"225 -31 OFFCURVE",
"221 60 CURVE",
"301 95 OFFCURVE",
"378 187 OFFCURVE",
"393 315 CURVE SMOOTH",
"399 367 OFFCURVE",
"400 415 OFFCURVE",
"395 458 CURVE",
"425 500 OFFCURVE",
"453 536 OFFCURVE",
"468 559 CURVE SMOOTH",
"639 822 OFFCURVE",
"353 772 OFFCURVE",
"222 681 CURVE",
"193 686 LINE SMOOTH",
"155 690 OFFCURVE",
"117 680 OFFCURVE",
"89 650 CURVE SMOOTH",
"82 643 OFFCURVE",
"93 633 OFFCURVE",
"100 640 CURVE SMOOTH",
"125 667 OFFCURVE",
"159 675 OFFCURVE",
"194 670 CURVE",
"198 670 OFFCURVE",
"202 669 OFFCURVE",
"206 669 CURVE",
"75 566 OFFCURVE",
"9 384 OFFCURVE",
"9 250 CURVE SMOOTH",
"9 110 OFFCURVE",
"71 43 OFFCURVE",
"149 43 CURVE SMOOTH",
"154 43 OFFCURVE",
"159 43 OFFCURVE",
"164 44 CURVE",
"185 -60 OFFCURVE",
"303 -82 OFFCURVE",
"441 -5 CURVE SMOOTH",
"492 24 OFFCURVE",
"545 68 OFFCURVE",
"596 122 CURVE",
"582 -26 OFFCURVE",
"615 -144 OFFCURVE",
"753 -144 CURVE SMOOTH"
);
},
{
closed = 1;
nodes = (
"83 58 OFFCURVE",
"24 114 OFFCURVE",
"24 250 CURVE SMOOTH",
"24 371 OFFCURVE",
"83 559 OFFCURVE",
"228 663 CURVE",
"303 640 OFFCURVE",
"350 575 OFFCURVE",
"370 491 CURVE",
"312 413 OFFCURVE",
"230 302 OFFCURVE",
"190 207 CURVE SMOOTH",
"166 148 OFFCURVE",
"158 98 OFFCURVE",
"162 59 CURVE",
"157 58 OFFCURVE",
"153 58 OFFCURVE",
"149 58 CURVE SMOOTH"
);
},
{
closed = 1;
nodes = (
"222 131 OFFCURVE",
"241 201 OFFCURVE",
"275 268 CURVE SMOOTH",
"302 324 OFFCURVE",
"342 384 OFFCURVE",
"379 436 CURVE",
"383 399 OFFCURVE",
"383 358 OFFCURVE",
"378 317 CURVE SMOOTH",
"364 196 OFFCURVE",
"293 111 OFFCURVE",
"221 76 CURVE"
);
},
{
closed = 1;
nodes = (
"364 594 OFFCURVE",
"318 650 OFFCURVE",
"245 675 CURVE",
"296 707 OFFCURVE",
"380 742 OFFCURVE",
"435 734 CURVE SMOOTH",
"477 728 OFFCURVE",
"505 692 OFFCURVE",
"421 562 CURVE SMOOTH",
"412 548 OFFCURVE",
"400 531 OFFCURVE",
"385 512 CURVE"
);
},
{
closed = 1;
nodes = (
"684 425 OFFCURVE",
"752 605 OFFCURVE",
"782 661 CURVE SMOOTH",
"835 760 OFFCURVE",
"896 799 OFFCURVE",
"840 632 CURVE SMOOTH",
"802 517 OFFCURVE",
"733 374 OFFCURVE",
"649 250 CURVE"
);
}
);
width = 796;
}
);
note = U;
unicode = 0055;
},
{
glyphname = V;
lastChange = "2021-09-23 18:48:50 +0000";
layers = (
{
hints = (
{
place = "{353, 16}";
type = Stem;
},
{
place = "{1088, 16}";
type = Stem;
}
);
layerId = "32B14CDE-4F96-422E-BD5E-1145416534B1";
paths = (
{
closed = 1;
nodes = (
"359 -169 OFFCURVE",
"469 -127 OFFCURVE",
"498 -27 CURVE SMOOTH",
"500 -18 OFFCURVE",
"487 -14 OFFCURVE",
"484 -23 CURVE SMOOTH",
"458 -114 OFFCURVE",
"356 -154 OFFCURVE",
"259 -141 CURVE SMOOTH",
"66 -114 OFFCURVE",
"-24 112 OFFCURVE",
"44 308 CURVE SMOOTH",
"158 635 OFFCURVE",
"512 740 OFFCURVE",
"831 712 CURVE",
"787 693 OFFCURVE",
"749 642 OFFCURVE",
"729 607 CURVE SMOOTH",
"724 599 OFFCURVE",
"720 590 OFFCURVE",
"717 581 CURVE",
"589 609 OFFCURVE",
"432 568 OFFCURVE",
"422 426 CURVE SMOOTH",
"415 323 OFFCURVE",
"532 261 OFFCURVE",
"662 242 CURVE",
"645 130 OFFCURVE",
"614 19 OFFCURVE",
"537 -34 CURVE SMOOTH",
"530 -39 OFFCURVE",
"532 -47 OFFCURVE",
"541 -47 CURVE SMOOTH",
"619 -52 OFFCURVE",
"717 53 OFFCURVE",
"809 183 CURVE SMOOTH",
"823 201 OFFCURVE",
"836 221 OFFCURVE",
"850 241 CURVE",
"891 247 OFFCURVE",
"933 256 OFFCURVE",
"974 268 CURVE",
"974 257 LINE SMOOTH",
"974 160 OFFCURVE",
"937 121 OFFCURVE",
"900 107 CURVE SMOOTH",
"861 91 OFFCURVE",
"828 106 OFFCURVE",
"827 109 CURVE SMOOTH",
"825 117 OFFCURVE",
"814 114 OFFCURVE",
"816 106 CURVE SMOOTH",
"823 78 OFFCURVE",
"986 54 OFFCURVE",
"986 257 CURVE SMOOTH",
"986 272 LINE",
"1079 301 OFFCURVE",
"1168 345 OFFCURVE",
"1236 401 CURVE SMOOTH",
"1611 711 OFFCURVE",
"1355 986 OFFCURVE",
"1101 699 CURVE SMOOTH",
"1038 627 OFFCURVE",
"979 536 OFFCURVE",
"924 443 CURVE",
"882 503 OFFCURVE",
"822 551 OFFCURVE",
"754 573 CURVE",
"759 594 OFFCURVE",
"766 614 OFFCURVE",
"774 630 CURVE SMOOTH",
"803 680 OFFCURVE",
"828 716 OFFCURVE",
"876 717 CURVE SMOOTH",
"887 717 OFFCURVE",
"887 731 OFFCURVE",
"876 732 CURVE SMOOTH",
"841 733 OFFCURVE",
"754 734 OFFCURVE",
"708 732 CURVE SMOOTH",
"236 711 OFFCURVE",
"89 518 OFFCURVE",
"18 316 CURVE SMOOTH",
"-52 113 OFFCURVE",
"53 -126 OFFCURVE",
"257 -155 CURVE SMOOTH"
);
},
{
closed = 1;
nodes = (
"687 65 OFFCURVE",
"717 149 OFFCURVE",
"731 235 CURVE",
"755 234 OFFCURVE",
"780 235 OFFCURVE",
"806 236 CURVE",
"736 117 OFFCURVE",
"673 21 OFFCURVE",
"614 0 CURVE"
);
},
{
closed = 1;
nodes = (
"542 274 OFFCURVE",
"454 334 OFFCURVE",
"460 426 CURVE SMOOTH",
"469 554 OFFCURVE",
"601 593 OFFCURVE",
"713 571 CURVE",
"701 537 OFFCURVE",
"693 498 OFFCURVE",
"687 456 CURVE SMOOTH",
"679 400 OFFCURVE",
"674 327 OFFCURVE",
"664 255 CURVE"
);
},
{
closed = 1;
nodes = (
"744 331 OFFCURVE",
"733 465 OFFCURVE",
"752 561 CURVE",
"818 539 OFFCURVE",
"877 491 OFFCURVE",
"918 432 CURVE",
"881 370 OFFCURVE",
"847 307 OFFCURVE",
"813 250 CURVE",
"786 247 OFFCURVE",
"759 247 OFFCURVE",
"732 248 CURVE"
);
},
{
closed = 1;
nodes = (
"944 385 LINE",
"960 352 OFFCURVE",
"970 317 OFFCURVE",
"973 281 CURVE",
"935 269 OFFCURVE",
"897 261 OFFCURVE",
"859 255 CURVE"
);
},
{
closed = 1;
nodes = (
"981 323 OFFCURVE",
"969 362 OFFCURVE",
"952 397 CURVE",
"1018 498 OFFCURVE",
"1088 599 OFFCURVE",
"1159 671 CURVE SMOOTH",
"1441 952 OFFCURVE",
"1521 653 OFFCURVE",
"1207 403 CURVE SMOOTH",
"1143 352 OFFCURVE",
"1066 311 OFFCURVE",
"985 285 CURVE"
);
}
);
width = 997;
}
);
note = V;
unicode = 0056;
},
{
glyphname = W;
lastChange = "2021-09-23 18:48:50 +0000";
layers = (
{
hints = (
{
place = "{1348, 16}";
type = Stem;
}
);
layerId = "32B14CDE-4F96-422E-BD5E-1145416534B1";
paths = (
{
closed = 1;
nodes = (
"902 -62 OFFCURVE",
"1096 740 OFFCURVE",
"1426 808 CURVE SMOOTH",
"1454 814 OFFCURVE",
"1480 814 OFFCURVE",
"1495 801 CURVE SMOOTH",
"1503 795 OFFCURVE",
"1510 801 OFFCURVE",
"1503 810 CURVE SMOOTH",
"1483 835 OFFCURVE",
"1453 849 OFFCURVE",
"1416 850 CURVE SMOOTH",
"1357 850 OFFCURVE",
"1273 821 OFFCURVE",
"1204 729 CURVE SMOOTH",
"1022 482 OFFCURVE",
"849 47 OFFCURVE",
"718 0 CURVE",
"915 177 OFFCURVE",
"801 492 OFFCURVE",
"878 630 CURVE SMOOTH",
"906 680 OFFCURVE",
"932 716 OFFCURVE",
"980 717 CURVE SMOOTH",
"990 717 OFFCURVE",
"990 731 OFFCURVE",
"980 732 CURVE SMOOTH",
"944 733 OFFCURVE",
"914 727 OFFCURVE",
"848 679 CURVE SMOOTH",
"791 638 OFFCURVE",
"693 461 OFFCURVE",
"594 298 CURVE",
"577 374 OFFCURVE",
"537 428 OFFCURVE",
"488 461 CURVE",
"490 528 OFFCURVE",
"495 587 OFFCURVE",
"519 630 CURVE SMOOTH",
"547 680 OFFCURVE",
"573 716 OFFCURVE",
"621 717 CURVE SMOOTH",
"631 717 OFFCURVE",
"631 731 OFFCURVE",
"621 732 CURVE",
"181 687 OFFCURVE",
"4 424 OFFCURVE",
"5 196 CURVE SMOOTH",
"6 -178 OFFCURVE",
"457 -289 OFFCURVE",
"575 40 CURVE",
"609 65 OFFCURVE",
"642 102 OFFCURVE",
"671 154 CURVE SMOOTH",
"676 162 OFFCURVE",
"663 170 OFFCURVE",
"658 161 CURVE SMOOTH",
"636 120 OFFCURVE",
"610 89 OFFCURVE",
"583 67 CURVE",
"596 110 OFFCURVE",
"603 160 OFFCURVE",
"603 218 CURVE SMOOTH",
"603 234 OFFCURVE",
"602 249 OFFCURVE",
"600 263 CURVE",
"721 464 OFFCURVE",
"834 691 OFFCURVE",
"934 712 CURVE",
"840 677 OFFCURVE",
"802 544 OFFCURVE",
"790 456 CURVE SMOOTH",
"770 311 OFFCURVE",
"770 55 OFFCURVE",
"640 -34 CURVE SMOOTH",
"633 -39 OFFCURVE",
"635 -47 OFFCURVE",
"644 -47 CURVE SMOOTH"
);
},
{
closed = 1;
nodes = (
"374 15 LINE",
"381 12 LINE",
"373 7 OFFCURVE",
"366 3 OFFCURVE",
"359 0 CURVE"
);
},
{
closed = 1;
nodes = (
"326 -50 OFFCURVE",
"366 -30 OFFCURVE",
"406 5 CURVE",
"452 -5 OFFCURVE",
"500 -1 OFFCURVE",
"545 22 CURVE",
"422 -256 OFFCURVE",
"31 -169 OFFCURVE",
"31 200 CURVE SMOOTH",
"31 412 OFFCURVE",
"210 655 OFFCURVE",
"576 712 CURVE",
"532 693 OFFCURVE",
"493 642 OFFCURVE",
"473 607 CURVE SMOOTH",
"454 573 OFFCURVE",
"442 531 OFFCURVE",
"434 487 CURVE",
"319 523 OFFCURVE",
"188 457 OFFCURVE",
"188 278 CURVE SMOOTH",
"188 175 OFFCURVE",
"255 76 OFFCURVE",
"342 29 CURVE",
"326 5 OFFCURVE",
"307 -17 OFFCURVE",
"282 -34 CURVE SMOOTH",
"274 -39 OFFCURVE",
"277 -47 OFFCURVE",
"285 -47 CURVE SMOOTH"
);
},
{
closed = 1;
nodes = (
"271 89 OFFCURVE",
"213 183 OFFCURVE",
"213 278 CURVE SMOOTH",
"213 446 OFFCURVE",
"330 508 OFFCURVE",
"432 473 CURVE",
"408 332 OFFCURVE",
"416 157 OFFCURVE",
"351 43 CURVE"
);
},
{
closed = 1;
nodes = (
"475 70 OFFCURVE",
"529 148 OFFCURVE",
"582 234 CURVE",
"582 218 LINE SMOOTH",
"582 151 OFFCURVE",
"572 94 OFFCURVE",
"555 46 CURVE",
"510 17 OFFCURVE",
"464 10 OFFCURVE",
"420 17 CURVE"
);
},
{
closed = 1;
nodes = (
"385 27 LINE",
"489 143 OFFCURVE",
"484 306 OFFCURVE",
"487 443 CURVE",
"532 408 OFFCURVE",
"567 351 OFFCURVE",
"579 273 CURVE",
"513 166 OFFCURVE",
"448 68 OFFCURVE",
"395 23 CURVE"
);
}
);
width = 1028;
}
);
note = W;
unicode = 0057;
},
{
glyphname = X;
lastChange = "2021-09-23 20:42:49 +0000";
layers = (
{
background = {
paths = (
{
closed = 1;
nodes = (
"530 -30 OFFCURVE",
"466 -54 OFFCURVE",
"597 -54 CURVE SMOOTH",
"695 -54 OFFCURVE",
"779 69 OFFCURVE",
"838 189 CURVE SMOOTH",
"842 197 OFFCURVE",
"831 201 OFFCURVE",
"827 192 CURVE SMOOTH",
"768 68 OFFCURVE",
"676 -30 OFFCURVE",
"614 -30 CURVE SMOOTH"
);
}
);
};
hints = (
{
horizontal = 1;
place = "{433, 12}";
type = Stem;
},
{
horizontal = 1;
place = "{642, -20}";
target = down;
type = TopGhost;
}
);
layerId = "32B14CDE-4F96-422E-BD5E-1145416534B1";
paths = (
{
closed = 1;
nodes = (
"-136 -214 OFFCURVE",
"16 -119 OFFCURVE",
"105 -29 CURVE SMOOTH",
"127 -6 OFFCURVE",
"151 20 OFFCURVE",
"176 48 CURVE",
"290 -47 OFFCURVE",
"437 -68 OFFCURVE",
"537 -8 CURVE",
"567 -34 OFFCURVE",
"648 -66 OFFCURVE",
"711 -21 CURVE SMOOTH",
"775 24 OFFCURVE",
"832 110 OFFCURVE",
"870 189 CURVE SMOOTH",
"874 197 OFFCURVE",
"863 201 OFFCURVE",
"859 192 CURVE SMOOTH",
"807 83 OFFCURVE",
"722 -21 OFFCURVE",
"654 -21 CURVE SMOOTH",
"615 -21 OFFCURVE",
"584 11 OFFCURVE",
"577 23 CURVE",
"622 67 OFFCURVE",
"652 135 OFFCURVE",
"652 228 CURVE SMOOTH",
"652 279 OFFCURVE",
"614 325 OFFCURVE",
"584 334 CURVE SMOOTH",
"575 337 OFFCURVE",
"570 323 OFFCURVE",
"580 320 CURVE SMOOTH",
"603 313 OFFCURVE",
"637 273 OFFCURVE",
"637 228 CURVE SMOOTH",
"637 141 OFFCURVE",
"610 76 OFFCURVE",
"568 34 CURVE",
"508 119 OFFCURVE",
"493 275 OFFCURVE",
"477 404 CURVE",
"538 477 OFFCURVE",
"597 545 OFFCURVE",
"649 600 CURVE SMOOTH",
"733 688 OFFCURVE",
"869 769 OFFCURVE",
"935 650 CURVE SMOOTH",
"939 643 OFFCURVE",
"950 650 OFFCURVE",
"946 657 CURVE SMOOTH",
"876 793 OFFCURVE",
"711 709 OFFCURVE",
"626 616 CURVE SMOOTH",
"572 559 OFFCURVE",
"522 499 OFFCURVE",
"472 438 CURVE",
"466 482 OFFCURVE",
"459 521 OFFCURVE",
"449 552 CURVE SMOOTH",
"357 833 OFFCURVE",
"6 744 OFFCURVE",
"6 444 CURVE SMOOTH",
"6 270 OFFCURVE",
"73 140 OFFCURVE",
"163 59 CURVE",
"145 38 OFFCURVE",
"126 18 OFFCURVE",
"107 -2 CURVE SMOOTH",
"25 -92 OFFCURVE",
"-129 -189 OFFCURVE",
"-195 -71 CURVE",
"-200 -64 OFFCURVE",
"-210 -70 OFFCURVE",
"-206 -78 CURVE SMOOTH"
);
},
{
closed = 1;
nodes = (
"431 -52 OFFCURVE",
"294 -29 OFFCURVE",
"189 62 CURVE",
"263 146 OFFCURVE",
"343 243 OFFCURVE",
"422 338 CURVE",
"427 211 OFFCURVE",
"437 77 OFFCURVE",
"525 2 CURVE"
);
},
{
closed = 1;
nodes = (
"93 153 OFFCURVE",
"31 278 OFFCURVE",
"31 444 CURVE SMOOTH",
"31 701 OFFCURVE",
"345 855 OFFCURVE",
"408 526 CURVE SMOOTH",
"416 481 OFFCURVE",
"419 429 OFFCURVE",
"421 374 CURVE",
"340 274 OFFCURVE",
"261 172 OFFCURVE",
"176 74 CURVE"
);
}
);
width = 800;
}
);
note = X;
unicode = 0058;
},
{
glyphname = Y;
lastChange = "2021-09-23 18:48:50 +0000";
layers = (
{
hints = (
{
horizontal = 1;
place = "{-446, 18}";
type = Stem;
},
{
horizontal = 1;
place = "{-187, 14}";
type = Stem;
},
{
horizontal = 1;
place = "{-7, 14}";
type = Stem;
},
{
horizontal = 1;
place = "{152, 17}";
type = Stem;
},
{
horizontal = 1;
place = "{580, 15}";
type = Stem;
},
{
horizontal = 1;
place = "{772, 13}";
type = Stem;
},
{
horizontal = 1;
place = "{828, 15}";
type = Stem;
},
{
place = "{-74, 29}";
type = Stem;
},
{
place = "{21, 54}";
type = Stem;
},
{
place = "{210, 42}";
type = Stem;
},
{
place = "{339, 13}";
type = Stem;
},
{
place = "{456, 17}";
type = Stem;
},
{
place = "{517, 20}";
type = Stem;
},
{
place = "{804, 25}";
type = Stem;
}
);
layerId = "32B14CDE-4F96-422E-BD5E-1145416534B1";
paths = (
{
closed = 1;
nodes = (
"280 -390 OFFCURVE",
"390 -311 OFFCURVE",
"498 -187 CURVE",
"529 -187 LINE SMOOTH",
"663 -182 OFFCURVE",
"823 -102 OFFCURVE",
"829 32 CURVE SMOOTH",
"831 91 OFFCURVE",
"799 137 OFFCURVE",
"728 158 CURVE",
"755 211 OFFCURVE",
"782 268 OFFCURVE",
"807 328 CURVE SMOOTH",
"882 510 OFFCURVE",
"1080 934 OFFCURVE",
"1217 708 CURVE SMOOTH",
"1222 701 OFFCURVE",
"1232 708 OFFCURVE",
"1228 716 CURVE SMOOTH",
"1198 768 OFFCURVE",
"1151 787 OFFCURVE",
"1100 785 CURVE SMOOTH",
"1023 783 OFFCURVE",
"951 716 OFFCURVE",
"889 625 CURVE",
"887 625 OFFCURVE",
"886 624 OFFCURVE",
"884 622 CURVE",
"828 535 OFFCURVE",
"691 318 OFFCURVE",
"554 166 CURVE",
"543 165 OFFCURVE",
"531 164 OFFCURVE",
"518 162 CURVE SMOOTH",
"430 148 OFFCURVE",
"338 112 OFFCURVE",
"252 63 CURVE",
"250 86 OFFCURVE",
"257 115 OFFCURVE",
"275 151 CURVE",
"422 163 OFFCURVE",
"495 315 OFFCURVE",
"468 442 CURVE",
"508 513 OFFCURVE",
"537 585 OFFCURVE",
"537 654 CURVE SMOOTH",
"537 754 OFFCURVE",
"477 843 OFFCURVE",
"368 843 CURVE SMOOTH",
"180 843 OFFCURVE",
"21 610 OFFCURVE",
"21 439 CURVE SMOOTH",
"21 280 OFFCURVE",
"115 177 OFFCURVE",
"217 155 CURVE",
"204 109 OFFCURVE",
"208 72 OFFCURVE",
"223 46 CURVE",
"201 32 OFFCURVE",
"179 18 OFFCURVE",
"158 3 CURVE SMOOTH",
"44 -80 OFFCURVE",
"-69 -199 OFFCURVE",
"-74 -310 CURVE SMOOTH",
"-81 -469 OFFCURVE",
"51 -463 OFFCURVE",
"184 -421 CURVE SMOOTH"
);
},
{
closed = 1;
nodes = (
"-64 -521 OFFCURVE",
"-169 -259 OFFCURVE",
"163 -19 CURVE SMOOTH",
"186 -2 OFFCURVE",
"210 14 OFFCURVE",
"234 29 CURVE",
"256 3 OFFCURVE",
"291 -9 OFFCURVE",
"330 -7 CURVE SMOOTH",
"396 -5 OFFCURVE",
"479 62 OFFCURVE",
"562 152 CURVE",
"597 156 OFFCURVE",
"628 157 OFFCURVE",
"655 154 CURVE",
"599 37 OFFCURVE",
"527 -75 OFFCURVE",
"453 -168 CURVE",
"398 -158 OFFCURVE",
"357 -131 OFFCURVE",
"352 -81 CURVE SMOOTH",
"351 -71 OFFCURVE",
"339 -75 OFFCURVE",
"339 -85 CURVE",
"344 -136 OFFCURVE",
"386 -167 OFFCURVE",
"444 -180 CURVE",
"358 -287 OFFCURVE",
"270 -366 OFFCURVE",
"205 -396 CURVE SMOOTH"
);
},
{
closed = 1;
nodes = (
"294 6 OFFCURVE",
"267 18 OFFCURVE",
"257 43 CURVE",
"341 94 OFFCURVE",
"430 133 OFFCURVE",
"518 147 CURVE SMOOTH",
"539 150 LINE",
"463 68 OFFCURVE",
"388 10 OFFCURVE",
"329 7 CURVE SMOOTH"
);
},
{
closed = 1;
nodes = (
"583 -88 OFFCURVE",
"654 18 OFFCURVE",
"720 142 CURVE",
"782 122 OFFCURVE",
"806 79 OFFCURVE",
"804 29 CURVE SMOOTH",
"798 -90 OFFCURVE",
"655 -168 OFFCURVE",
"531 -173 CURVE SMOOTH",
"510 -173 LINE"
);
},
{
closed = 1;
nodes = (
"292 182 OFFCURVE",
"301 197 OFFCURVE",
"313 214 CURVE SMOOTH",
"357 276 OFFCURVE",
"412 348 OFFCURVE",
"456 422 CURVE",
"471 310 OFFCURVE",
"408 183 OFFCURVE",
"284 167 CURVE"
);
},
{
closed = 1;
nodes = (
"-32 222 OFFCURVE",
"62 828 OFFCURVE",
"368 828 CURVE SMOOTH",
"465 828 OFFCURVE",
"517 750 OFFCURVE",
"517 654 CURVE SMOOTH",
"517 604 OFFCURVE",
"489 550 OFFCURVE",
"450 495 CURVE",
"413 573 OFFCURVE",
"338 623 OFFCURVE",
"261 579 CURVE SMOOTH",
"253 574 OFFCURVE",
"260 561 OFFCURVE",
"269 566 CURVE SMOOTH",
"335 604 OFFCURVE",
"407 559 OFFCURVE",
"440 481 CURVE",
"373 389 OFFCURVE",
"279 295 OFFCURVE",
"241 218 CURVE SMOOTH",
"233 201 OFFCURVE",
"226 185 OFFCURVE",
"221 169 CURVE"
);
},
{
closed = 1;
nodes = (
"652 254 OFFCURVE",
"726 356 OFFCURVE",
"786 445 CURVE",
"736 343 OFFCURVE",
"696 242 OFFCURVE",
"668 181 CURVE SMOOTH",
"663 170 LINE",
"637 172 OFFCURVE",
"608 171 OFFCURVE",
"576 169 CURVE"
);
}
);
width = 822;
}
);
note = Y;
unicode = 0059;
},
{
glyphname = Z;
lastChange = "2021-09-23 18:48:50 +0000";
layers = (
{
hints = (
{
horizontal = 1;
place = "{29, 20}";
type = Stem;
},
{
horizontal = 1;
place = "{641, 19}";
type = Stem;
}
);
layerId = "32B14CDE-4F96-422E-BD5E-1145416534B1";
paths = (
{
closed = 1;
nodes = (
"944 -160 OFFCURVE",
"1136 5 OFFCURVE",
"1078 168 CURVE SMOOTH",
"1075 177 OFFCURVE",
"1060 169 OFFCURVE",
"1063 160 CURVE SMOOTH",
"1114 17 OFFCURVE",
"896 -82 OFFCURVE",
"694 -47 CURVE SMOOTH",
"584 -28 OFFCURVE",
"479 3 OFFCURVE",
"375 34 CURVE",
"434 78 OFFCURVE",
"490 132 OFFCURVE",
"541 187 CURVE",
"572 115 OFFCURVE",
"645 82 OFFCURVE",
"713 84 CURVE SMOOTH",
"792 86 OFFCURVE",
"874 135 OFFCURVE",
"924 213 CURVE SMOOTH",
"967 279 OFFCURVE",
"990 362 OFFCURVE",
"951 436 CURVE SMOOTH",
"934 470 OFFCURVE",
"905 492 OFFCURVE",
"864 469 CURVE SMOOTH",
"855 464 OFFCURVE",
"860 451 OFFCURVE",
"870 457 CURVE SMOOTH",
"898 473 OFFCURVE",
"922 459 OFFCURVE",
"938 429 CURVE SMOOTH",
"1004 306 OFFCURVE",
"877 103 OFFCURVE",
"715 99 CURVE SMOOTH",
"651 97 OFFCURVE",
"582 129 OFFCURVE",
"554 202 CURVE",
"601 252 OFFCURVE",
"643 303 OFFCURVE",
"679 346 CURVE SMOOTH",
"767 449 OFFCURVE",
"859 555 OFFCURVE",
"965 642 CURVE",
"1013 628 OFFCURVE",
"1061 616 OFFCURVE",
"1111 609 CURVE SMOOTH",
"1210 596 OFFCURVE",
"1279 645 OFFCURVE",
"1290 702 CURVE SMOOTH",
"1305 783 OFFCURVE",
"1224 875 OFFCURVE",
"1042 834 CURVE SMOOTH",
"965 817 OFFCURVE",
"892 787 OFFCURVE",
"826 746 CURVE",
"775 771 OFFCURVE",
"722 793 OFFCURVE",
"664 803 CURVE SMOOTH",
"416 845 OFFCURVE",
"241 674 OFFCURVE",
"286 511 CURVE SMOOTH",
"289 502 OFFCURVE",
"302 511 OFFCURVE",
"300 519 CURVE SMOOTH",
"260 663 OFFCURVE",
"455 768 OFFCURVE",
"632 738 CURVE SMOOTH",
"679 730 OFFCURVE",
"724 718 OFFCURVE",
"768 705 CURVE",
"643 608 OFFCURVE",
"554 472 OFFCURVE",
"529 319 CURVE SMOOTH",
"524 291 OFFCURVE",
"524 265 OFFCURVE",
"526 243 CURVE",
"469 173 OFFCURVE",
"404 101 OFFCURVE",
"333 46 CURVE",
"271 64 OFFCURVE",
"208 81 OFFCURVE",
"146 93 CURVE SMOOTH",
"-43 130 OFFCURVE",
"-73 -65 OFFCURVE",
"109 -71 CURVE SMOOTH",
"187 -73 OFFCURVE",
"265 -41 OFFCURVE",
"339 8 CURVE",
"440 -38 OFFCURVE",
"545 -91 OFFCURVE",
"660 -111 CURVE SMOOTH"
);
},
{
closed = 1;
nodes = (
"-35 -47 OFFCURVE",
"-22 108 OFFCURVE",
"139 78 CURVE SMOOTH",
"194 68 OFFCURVE",
"248 48 OFFCURVE",
"303 24 CURVE",
"243 -17 OFFCURVE",
"180 -44 OFFCURVE",
"115 -45 CURVE SMOOTH"
);
},
{
closed = 1;
nodes = (
"542 280 OFFCURVE",
"543 299 OFFCURVE",
"546 320 CURVE SMOOTH",
"570 466 OFFCURVE",
"662 603 OFFCURVE",
"785 700 CURVE",
"830 686 OFFCURVE",
"874 670 OFFCURVE",
"918 656 CURVE",
"811 580 OFFCURVE",
"719 483 OFFCURVE",
"637 381 CURVE SMOOTH",
"609 346 OFFCURVE",
"577 305 OFFCURVE",
"542 262 CURVE"
);
},
{
closed = 1;
nodes = (
"1073 630 OFFCURVE",
"1031 644 OFFCURVE",
"990 662 CURVE",
"1017 683 OFFCURVE",
"1044 703 OFFCURVE",
"1072 721 CURVE SMOOTH",
"1123 753 OFFCURVE",
"1084 753 OFFCURVE",
"1065 744 CURVE SMOOTH",
"1026 725 OFFCURVE",
"989 704 OFFCURVE",
"953 680 CURVE",
"841 739 LINE",
"903 778 OFFCURVE",
"971 807 OFFCURVE",
"1041 823 CURVE SMOOTH",
"1211 861 OFFCURVE",
"1269 773 OFFCURVE",
"1255 702 CURVE SMOOTH",
"1246 655 OFFCURVE",
"1193 614 OFFCURVE",
"1117 624 CURVE SMOOTH"
);
}
);
width = 1100;
}
);
note = Z;
unicode = 005A;
},
{
glyphname = a;
lastChange = "2021-09-23 18:48:50 +0000";
layers = (
{
hints = (
{
horizontal = 1;
place = "{275, 18}";
type = Stem;
}
);
layerId = "32B14CDE-4F96-422E-BD5E-1145416534B1";
paths = (
{
closed = 1;
nodes = (
"116 -5 OFFCURVE",
"165 67 OFFCURVE",
"180 104 CURVE",
"169 67 OFFCURVE",
"163 -4 OFFCURVE",
"212 -4 CURVE SMOOTH",
"243 -4 OFFCURVE",
"276 26 OFFCURVE",
"297 48 CURVE SMOOTH",
"332 87 OFFCURVE",
"355 129 OFFCURVE",
"380 176 CURVE",
"381 177 OFFCURVE",
"390 195 OFFCURVE",
"390 195 CURVE",
"391 199 OFFCURVE",
"388 203 OFFCURVE",
"384 203 CURVE SMOOTH",
"382 203 OFFCURVE",
"382 202 OFFCURVE",
"381 201 CURVE",
"354 148 OFFCURVE",
"324 94 OFFCURVE",
"282 51 CURVE SMOOTH",
"272 41 OFFCURVE",
"245 17 OFFCURVE",
"230 17 CURVE SMOOTH",
"216 17 OFFCURVE",
"217 38 OFFCURVE",
"217 48 CURVE SMOOTH",
"220 81 OFFCURVE",
"236 127 OFFCURVE",
"252 158 CURVE SMOOTH",
"273 199 OFFCURVE",
"293 243 OFFCURVE",
"316 282 CURVE",
"294 272 OFFCURVE",
"271 265 OFFCURVE",
"248 260 CURVE",
"205 170 LINE SMOOTH",
"186 132 OFFCURVE",
"124 10 OFFCURVE",
"86 10 CURVE SMOOTH",
"15 10 OFFCURVE",
"97 298 OFFCURVE",
"269 298 CURVE SMOOTH",
"282 298 OFFCURVE",
"332 304 OFFCURVE",
"285 309 CURVE SMOOTH",
"274 311 OFFCURVE",
"263 311 OFFCURVE",
"252 311 CURVE SMOOTH",
"170 311 OFFCURVE",
"87 262 OFFCURVE",
"44 173 CURVE SMOOTH",
"20 122 OFFCURVE",
"-19 -5 OFFCURVE",
"74 -5 CURVE SMOOTH"
);
}
);
width = 317;
}
);
note = a;
unicode = 0061;
},
{
glyphname = ae;
lastChange = "2021-09-23 19:46:30 +0000";
layers = (
{
hints = (
{
horizontal = 1;
place = "{-5, 20}";
type = Stem;
},
{
horizontal = 1;
place = "{275, 18}";
type = Stem;
},
{
horizontal = 1;
place = "{-10, 18}";
type = Stem;
},
{
horizontal = 1;
place = "{280, 18}";
type = Stem;
}
);
layerId = "32B14CDE-4F96-422E-BD5E-1145416534B1";
paths = (
{
closed = 1;
nodes = (
"395 58 OFFCURVE",
"323 7 OFFCURVE",
"282 6 CURVE SMOOTH",
"241 5 OFFCURVE",
"238 58 OFFCURVE",
"254 121 CURVE",
"264 114 OFFCURVE",
"275 111 OFFCURVE",
"286 111 CURVE SMOOTH",
"348 111 OFFCURVE",
"403 180 OFFCURVE",
"410 235 CURVE SMOOTH",
"415 273 OFFCURVE",
"404 305 OFFCURVE",
"361 305 CURVE SMOOTH",
"331 305 OFFCURVE",
"304 290 OFFCURVE",
"281 269 CURVE",
"270 265 OFFCURVE",
"259 262 OFFCURVE",
"248 260 CURVE",
"205 170 LINE SMOOTH",
"187 132 OFFCURVE",
"124 10 OFFCURVE",
"86 10 CURVE SMOOTH",
"15 10 OFFCURVE",
"97 298 OFFCURVE",
"269 298 CURVE SMOOTH",
"282 298 OFFCURVE",
"332 304 OFFCURVE",
"285 309 CURVE SMOOTH",
"274 311 OFFCURVE",
"263 311 OFFCURVE",
"252 311 CURVE SMOOTH",
"170 311 OFFCURVE",
"87 262 OFFCURVE",
"44 173 CURVE SMOOTH",
"20 122 OFFCURVE",
"-19 -5 OFFCURVE",
"74 -5 CURVE SMOOTH",
"116 -5 OFFCURVE",
"155 50 OFFCURVE",
"204 138 CURVE SMOOTH",
"209 147 LINE",
"191 79 OFFCURVE",
"198 -10 OFFCURVE",
"279 -10 CURVE SMOOTH",
"330 -10 OFFCURVE",
"398 41 OFFCURVE",
"475 204 CURVE SMOOTH",
"477 208 OFFCURVE",
"467 214 OFFCURVE",
"465 210 CURVE SMOOTH"
);
},
{
closed = 1;
nodes = (
"394 293 OFFCURVE",
"397 260 OFFCURVE",
"389 237 CURVE SMOOTH",
"366 174 OFFCURVE",
"308 107 OFFCURVE",
"258 133 CURVE",
"260 143 OFFCURVE",
"264 153 OFFCURVE",
"268 163 CURVE SMOOTH",
"286 213 OFFCURVE",
"337 296 OFFCURVE",
"374 294 CURVE SMOOTH"
);
}
);
width = 397;
}
);
note = ae;
unicode = 00E6;
},
{
color = 11;
glyphname = aeacute;
lastChange = "2021-09-23 20:44:51 +0000";
layers = (
{
hints = (
{
horizontal = 1;
place = "{275, 18}";
type = Stem;
},
{
horizontal = 1;
place = "{-10, 18}";
type = Stem;
},
{
horizontal = 1;
place = "{280, 18}";
type = Stem;
}
);
layerId = "32B14CDE-4F96-422E-BD5E-1145416534B1";
paths = (
{
closed = 1;
nodes = (
"337 -10 OFFCURVE",
"416 57 OFFCURVE",
"482 205 CURVE SMOOTH",
"484 209 OFFCURVE",
"474 215 OFFCURVE",
"472 211 CURVE SMOOTH",
"401 56 OFFCURVE",
"330 7 OFFCURVE",
"289 6 CURVE SMOOTH",
"248 5 OFFCURVE",
"245 58 OFFCURVE",
"261 121 CURVE",
"271 114 OFFCURVE",
"282 111 OFFCURVE",
"293 111 CURVE SMOOTH",
"355 111 OFFCURVE",
"410 180 OFFCURVE",
"417 235 CURVE SMOOTH",
"422 273 OFFCURVE",
"411 305 OFFCURVE",
"368 305 CURVE SMOOTH",
"340 305 OFFCURVE",
"314 292 OFFCURVE",
"292 272 CURVE",
"280 258 OFFCURVE",
"260 255 OFFCURVE",
"248 260 CURVE",
"205 170 LINE SMOOTH",
"187 132 OFFCURVE",
"124 10 OFFCURVE",
"86 10 CURVE SMOOTH",
"15 10 OFFCURVE",
"97 298 OFFCURVE",
"269 298 CURVE SMOOTH",
"282 298 OFFCURVE",
"332 304 OFFCURVE",
"285 309 CURVE SMOOTH",
"274 311 OFFCURVE",
"263 311 OFFCURVE",
"252 311 CURVE SMOOTH",
"170 311 OFFCURVE",
"87 262 OFFCURVE",
"44 173 CURVE SMOOTH",
"20 122 OFFCURVE",
"-19 -5 OFFCURVE",
"74 -5 CURVE SMOOTH",
"130 -5 OFFCURVE",
"187 91 OFFCURVE",
"224 173 CURVE",
"197 104 OFFCURVE",
"194 -10 OFFCURVE",
"286 -10 CURVE SMOOTH"
);
},
{
closed = 1;
nodes = (
"267 143 OFFCURVE",
"271 153 OFFCURVE",
"275 163 CURVE SMOOTH",
"293 213 OFFCURVE",
"344 296 OFFCURVE",
"381 294 CURVE SMOOTH",
"401 293 OFFCURVE",
"404 260 OFFCURVE",
"396 237 CURVE SMOOTH",
"373 174 OFFCURVE",
"315 107 OFFCURVE",
"265 133 CURVE"
);
}
);
width = 404;
}
);
unicode = 01FD;
},
{
glyphname = b;
lastChange = "2021-09-23 18:48:50 +0000";
layers = (
{
hints = (
{
horizontal = 1;
place = "{-13, 17}";
type = Stem;
},
{
horizontal = 1;
place = "{37, 13}";
type = Stem;
},
{
horizontal = 1;
place = "{639, 18}";
type = Stem;
},
{
place = "{42, 38}";
type = Stem;
},
{
place = "{165, 71}";
type = Stem;
},
{
place = "{349, 22}";
type = Stem;
}
);
layerId = "32B14CDE-4F96-422E-BD5E-1145416534B1";
paths = (
{
closed = 1;
nodes = (
"144 -13 OFFCURVE",
"172 25 OFFCURVE",
"186 52 CURVE",
"249 -13 OFFCURVE",
"325 145 OFFCURVE",
"354 201 CURVE SMOOTH",
"358 208 OFFCURVE",
"349 216 OFFCURVE",
"345 209 CURVE SMOOTH",
"325 167 OFFCURVE",
"249 2 OFFCURVE",
"191 63 CURVE",
"202 77 OFFCURVE",
"237 138 OFFCURVE",
"236 191 CURVE SMOOTH",
"234 246 OFFCURVE",
"197 222 OFFCURVE",
"178 178 CURVE SMOOTH",
"156 127 OFFCURVE",
"166 79 OFFCURVE",
"178 60 CURVE",
"167 35 OFFCURVE",
"143 -1 OFFCURVE",
"111 4 CURVE SMOOTH",
"48 15 OFFCURVE",
"98 178 OFFCURVE",
"113 220 CURVE",
"162 262 OFFCURVE",
"256 383 OFFCURVE",
"315 477 CURVE SMOOTH",
"444 682 OFFCURVE",
"322 703 OFFCURVE",
"237 585 CURVE SMOOTH",
"202 536 OFFCURVE",
"127 388 OFFCURVE",
"81 251 CURVE SMOOTH",
"34 113 OFFCURVE",
"17 -13 OFFCURVE",
"98 -13 CURVE SMOOTH"
);
},
{
closed = 1;
nodes = (
"130 269 OFFCURVE",
"212 476 OFFCURVE",
"263 566 CURVE SMOOTH",
"338 700 OFFCURVE",
"392 636 OFFCURVE",
"303 490 CURVE SMOOTH",
"252 407 OFFCURVE",
"167 298 OFFCURVE",
"120 242 CURVE"
);
}
);
width = 278;
}
);
note = b;
unicode = 0062;
},
{
glyphname = c;
lastChange = "2021-09-23 18:48:50 +0000";
layers = (
{
hints = (
{
horizontal = 1;
place = "{-10, 18}";
type = Stem;
}
);
layerId = "32B14CDE-4F96-422E-BD5E-1145416534B1";
paths = (
{
closed = 1;
nodes = (
"164 -10 OFFCURVE",
"243 57 OFFCURVE",
"309 205 CURVE SMOOTH",
"311 209 OFFCURVE",
"301 215 OFFCURVE",
"299 211 CURVE SMOOTH",
"228 56 OFFCURVE",
"157 7 OFFCURVE",
"116 6 CURVE SMOOTH",
"66 5 OFFCURVE",
"72 85 OFFCURVE",
"102 163 CURVE SMOOTH",
"120 213 OFFCURVE",
"158 306 OFFCURVE",
"201 294 CURVE SMOOTH",
"223 288 OFFCURVE",
"216 255 OFFCURVE",
"202 224 CURVE SMOOTH",
"173 162 OFFCURVE",
"240 167 OFFCURVE",
"246 234 CURVE SMOOTH",
"250 273 OFFCURVE",
"232 305 OFFCURVE",
"187 305 CURVE SMOOTH",
"117 305 OFFCURVE",
"72 226 OFFCURVE",
"51 173 CURVE SMOOTH",
"24 104 OFFCURVE",
"21 -10 OFFCURVE",
"113 -10 CURVE SMOOTH"
);
}
);
width = 231;
}
);
note = c;
unicode = 0063;
},
{
glyphname = d;
lastChange = "2021-09-23 18:48:50 +0000";
layers = (
{
hints = (
{
horizontal = 1;
place = "{-5, 15}";
type = Stem;
},
{
place = "{16, 44}";
type = Stem;
},
{
place = "{173, 40}";
type = Stem;
},
{
horizontal = 1;
place = "{-4, 23}";
type = Stem;
},
{
horizontal = 1;
place = "{195, 8}";
type = Stem;
},
{
place = "{382, 9}";
type = Stem;
}
);
layerId = "32B14CDE-4F96-422E-BD5E-1145416534B1";
paths = (
{
closed = 1;
nodes = (
"116 -5 OFFCURVE",
"165 67 OFFCURVE",
"180 104 CURVE",
"169 67 OFFCURVE",
"164 -4 OFFCURVE",
"213 -4 CURVE SMOOTH",
"244 -4 OFFCURVE",
"278 26 OFFCURVE",
"298 48 CURVE SMOOTH",
"334 87 OFFCURVE",
"357 129 OFFCURVE",
"381 176 CURVE",
"382 177 OFFCURVE",
"392 195 OFFCURVE",
"392 195 CURVE",
"392 199 OFFCURVE",
"389 203 OFFCURVE",
"385 203 CURVE SMOOTH",
"384 203 OFFCURVE",
"383 202 OFFCURVE",
"383 201 CURVE",
"355 148 OFFCURVE",
"326 92 OFFCURVE",
"283 49 CURVE SMOOTH",
"251 16 OFFCURVE",
"203 -5 OFFCURVE",
"213 62 CURVE SMOOTH",
"221 115 OFFCURVE",
"258 202 OFFCURVE",
"303 293 CURVE",
"306 295 OFFCURVE",
"308 297 OFFCURVE",
"308 300 CURVE SMOOTH",
"308 302 LINE",
"382 450 OFFCURVE",
"476 608 OFFCURVE",
"504 654 CURVE",
"482 644 OFFCURVE",
"454 637 OFFCURVE",
"431 632 CURVE",
"417 602 OFFCURVE",
"336 436 OFFCURVE",
"274 311 CURVE",
"184 318 OFFCURVE",
"91 270 OFFCURVE",
"45 173 CURVE SMOOTH",
"21 122 OFFCURVE",
"-19 -5 OFFCURVE",
"74 -5 CURVE SMOOTH"
);
},
{
closed = 1;
nodes = (
"14 10 OFFCURVE",
"96 296 OFFCURVE",
"268 298 CURVE",
"205 170 LINE SMOOTH",
"186 132 OFFCURVE",
"124 10 OFFCURVE",
"86 10 CURVE SMOOTH"
);
}
);
width = 319;
}
);
note = d;
unicode = 0064;
},
{
glyphname = eth;
lastChange = "2021-09-23 20:29:21 +0000";
layers = (
{
background = {
hints = (
{
horizontal = 1;
place = "{-5, 327}";
type = Stem;
},
{
horizontal = 1;
place = "{521, 15}";
type = Stem;
},
{
horizontal = 1;
place = "{599, 23}";
type = Stem;
},
{
place = "{63, 44}";
type = Stem;
},
{
place = "{326, 36}";
type = Stem;
}
);
paths = (
{
closed = 1;
nodes = (
"303 -5 OFFCURVE",
"410 326 OFFCURVE",
"340 507 CURVE",
"373 515 OFFCURVE",
"409 521 OFFCURVE",
"448 522 CURVE SMOOTH",
"463 522 OFFCURVE",
"463 537 OFFCURVE",
"448 536 CURVE SMOOTH",
"406 536 OFFCURVE",
"368 531 OFFCURVE",
"333 523 CURVE",
"300 592 OFFCURVE",
"238 634 OFFCURVE",
"140 618 CURVE SMOOTH",
"122 615 OFFCURVE",
"109 588 OFFCURVE",
"143 595 CURVE SMOOTH",
"205 609 OFFCURVE",
"255 573 OFFCURVE",
"288 512 CURVE",
"244 499 OFFCURVE",
"202 483 OFFCURVE",
"158 465 CURVE SMOOTH",
"139 458 OFFCURVE",
"146 433 OFFCURVE",
"163 440 CURVE SMOOTH",
"210 459 OFFCURVE",
"252 478 OFFCURVE",
"296 493 CURVE",
"332 412 OFFCURVE",
"338 297 OFFCURVE",
"299 202 CURVE",
"315 251 OFFCURVE",
"322 322 OFFCURVE",
"261 322 CURVE SMOOTH",
"170 322 OFFCURVE",
"88 212 OFFCURVE",
"72 155 CURVE SMOOTH",
"46 59 OFFCURVE",
"78 -5 OFFCURVE",
"127 -5 CURVE SMOOTH"
);
},
{
closed = 1;
nodes = (
"93 4 OFFCURVE",
"108 97 OFFCURVE",
"127 153 CURVE SMOOTH",
"151 224 OFFCURVE",
"220 315 OFFCURVE",
"268 315 CURVE SMOOTH",
"321 315 OFFCURVE",
"310 222 OFFCURVE",
"275 160 CURVE SMOOTH",
"235 90 OFFCURVE",
"182 0 OFFCURVE",
"130 2 CURVE SMOOTH"
);
}
);
};
components = (
{
name = partialdiff;
},
{
name = hyphen;
transform = "{0.95106, 0.30902, -0.30902, 0.95106, 157, 234}";
}
);
layerId = "32B14CDE-4F96-422E-BD5E-1145416534B1";
width = 368;
}
);
note = eth;
unicode = 00F0;
},
{
glyphname = e;
lastChange = "2021-09-23 18:48:50 +0000";
layers = (
{
hints = (
{
horizontal = 1;
place = "{-10, 18}";
type = Stem;
},
{
horizontal = 1;
place = "{280, 18}";
type = Stem;
}
);
layerId = "32B14CDE-4F96-422E-BD5E-1145416534B1";
paths = (
{
closed = 1;
nodes = (
"163 -10 OFFCURVE",
"242 57 OFFCURVE",
"308 205 CURVE SMOOTH",
"310 209 OFFCURVE",
"300 215 OFFCURVE",
"298 211 CURVE SMOOTH",
"227 56 OFFCURVE",
"156 7 OFFCURVE",
"115 6 CURVE SMOOTH",
"74 5 OFFCURVE",
"71 58 OFFCURVE",
"87 121 CURVE",
"97 114 OFFCURVE",
"108 111 OFFCURVE",
"119 111 CURVE SMOOTH",
"181 111 OFFCURVE",
"236 180 OFFCURVE",
"243 235 CURVE SMOOTH",
"248 273 OFFCURVE",
"237 305 OFFCURVE",
"194 305 CURVE SMOOTH",
"125 305 OFFCURVE",
"71 226 OFFCURVE",
"50 173 CURVE SMOOTH",
"23 104 OFFCURVE",
"20 -10 OFFCURVE",
"112 -10 CURVE SMOOTH"
);
},
{
closed = 1;
nodes = (
"93 143 OFFCURVE",
"97 153 OFFCURVE",
"101 163 CURVE SMOOTH",
"119 213 OFFCURVE",
"170 296 OFFCURVE",
"207 294 CURVE SMOOTH",
"227 293 OFFCURVE",
"230 260 OFFCURVE",
"222 237 CURVE SMOOTH",
"199 174 OFFCURVE",
"141 107 OFFCURVE",
"91 133 CURVE"
);
}
);
width = 230;
}
);
note = e;
unicode = 0065;
},
{
glyphname = schwa;
lastChange = "2021-09-23 19:11:26 +0000";
layers = (
{
background = {
paths = (
{
closed = 1;
nodes = (
"145 310 OFFCURVE",
"66 243 OFFCURVE",
"0 95 CURVE SMOOTH",
"-2 91 OFFCURVE",
"8 85 OFFCURVE",
"10 89 CURVE SMOOTH",
"81 244 OFFCURVE",
"152 293 OFFCURVE",
"193 294 CURVE SMOOTH",
"234 295 OFFCURVE",
"237 242 OFFCURVE",
"221 179 CURVE",
"211 186 OFFCURVE",
"200 189 OFFCURVE",
"189 189 CURVE SMOOTH",
"127 189 OFFCURVE",
"72 120 OFFCURVE",
"65 65 CURVE SMOOTH",
"60 27 OFFCURVE",
"71 -5 OFFCURVE",
"114 -5 CURVE SMOOTH",
"183 -5 OFFCURVE",
"237 74 OFFCURVE",
"258 127 CURVE SMOOTH",
"285 196 OFFCURVE",
"288 310 OFFCURVE",
"196 310 CURVE SMOOTH"
);
},
{
closed = 1;
nodes = (
"215 157 OFFCURVE",
"211 147 OFFCURVE",
"207 137 CURVE SMOOTH",
"189 87 OFFCURVE",
"138 4 OFFCURVE",
"101 6 CURVE SMOOTH",
"81 7 OFFCURVE",
"78 40 OFFCURVE",
"86 63 CURVE SMOOTH",
"109 126 OFFCURVE",
"167 193 OFFCURVE",
"217 167 CURVE"
);
}
);
};
hints = (
{
horizontal = 1;
place = "{314, 13}";
type = Stem;
},
{
place = "{62, 44}";
type = Stem;
}
);
layerId = "32B14CDE-4F96-422E-BD5E-1145416534B1";
paths = (
{
closed = 1;
nodes = (
"286 304 OFFCURVE",
"181 303 CURVE SMOOTH",
"115 304 OFFCURVE",
"78 233 OFFCURVE",
"27 134 CURVE SMOOTH",
"21 123 OFFCURVE",
"32 120 OFFCURVE",
"37 129 CURVE SMOOTH",
"84 215 OFFCURVE",
"117 288 OFFCURVE",
"178 288 CURVE SMOOTH",
"225 288 OFFCURVE",
"229 223 OFFCURVE",
"218 186 CURVE",
"136 201 OFFCURVE",
"62 116 OFFCURVE",
"62 47 CURVE SMOOTH",
"62 14 OFFCURVE",
"78 0 OFFCURVE",
"101 1 CURVE SMOOTH",
"132 1 OFFCURVE",
"176 30 OFFCURVE",
"209 75 CURVE SMOOTH",
"277 170 OFFCURVE"
);
},
{
closed = 1;
nodes = (
"203 140 OFFCURVE",
"186 110 OFFCURVE",
"159 74 CURVE SMOOTH",
"111 11 OFFCURVE",
"59 -8 OFFCURVE",
"87 73 CURVE SMOOTH",
"107 126 OFFCURVE",
"160 179 OFFCURVE",
"217 179 CURVE"
);
}
);
width = 265;
}
);
unicode = 0259;
},
{
glyphname = f;
lastChange = "2021-09-23 18:48:50 +0000";
layers = (
{
hints = (
{
horizontal = 1;
place = "{-15, 14}";
type = Stem;
}
);
layerId = "32B14CDE-4F96-422E-BD5E-1145416534B1";
paths = (
{
closed = 1;
nodes = (
"57 -426 OFFCURVE",
"134 -76 OFFCURVE",
"116 41 CURVE",
"169 37 OFFCURVE",
"199 56 OFFCURVE",
"223 87 CURVE SMOOTH",
"240 110 OFFCURVE",
"254 139 OFFCURVE",
"272 171 CURVE SMOOTH",
"276 178 OFFCURVE",
"268 185 OFFCURVE",
"264 178 CURVE SMOOTH",
"205 68 OFFCURVE",
"173 42 OFFCURVE",
"115 59 CURVE",
"114 87 OFFCURVE",
"97 109 OFFCURVE",
"86 119 CURVE",
"121 220 LINE",
"170 262 OFFCURVE",
"264 383 OFFCURVE",
"323 477 CURVE SMOOTH",
"452 682 OFFCURVE",
"320 703 OFFCURVE",
"235 585 CURVE SMOOTH",
"188 519 OFFCURVE",
"106 327 OFFCURVE",
"42 130 CURVE",
"22 126 OFFCURVE",
"21 100 OFFCURVE",
"27 85 CURVE",
"-43 -140 OFFCURVE",
"-85 -358 OFFCURVE",
"-21 -389 CURVE SMOOTH"
);
},
{
closed = 1;
nodes = (
"-36 -472 OFFCURVE",
"-4 -210 OFFCURVE",
"0 -191 CURVE SMOOTH",
"9 -132 OFFCURVE",
"37 -36 OFFCURVE",
"65 52 CURVE",
"72 44 OFFCURVE",
"81 42 OFFCURVE",
"99 39 CURVE",
"114 -74 OFFCURVE",
"70 -242 OFFCURVE",
"28 -333 CURVE SMOOTH"
);
},
{
closed = 1;
nodes = (
"138 269 OFFCURVE",
"210 476 OFFCURVE",
"261 566 CURVE SMOOTH",
"336 700 OFFCURVE",
"400 636 OFFCURVE",
"311 490 CURVE SMOOTH",
"260 407 OFFCURVE",
"175 298 OFFCURVE",
"128 242 CURVE"
);
}
);
width = 212;
}
);
note = f;
unicode = 0066;
},
{
glyphname = g;
lastChange = "2021-09-23 18:48:50 +0000";
layers = (
{
hints = (
{
horizontal = 1;
place = "{309, 18}";
type = Stem;
}
);
layerId = "32B14CDE-4F96-422E-BD5E-1145416534B1";
paths = (
{
closed = 1;
nodes = (
"95 -249 OFFCURVE",
"147 -116 OFFCURVE",
"182 -25 CURVE",
"284 36 OFFCURVE",
"316 89 OFFCURVE",
"370 190 CURVE SMOOTH",
"374 197 OFFCURVE",
"364 203 OFFCURVE",
"360 196 CURVE SMOOTH",
"311 105 OFFCURVE",
"283 52 OFFCURVE",
"188 -8 CURVE",
"212 57 OFFCURVE",
"224 101 OFFCURVE",
"255 171 CURVE SMOOTH",
"274 212 OFFCURVE",
"301 259 OFFCURVE",
"323 283 CURVE",
"302 274 OFFCURVE",
"271 265 OFFCURVE",
"248 260 CURVE",
"205 170 LINE SMOOTH",
"187 132 OFFCURVE",
"124 10 OFFCURVE",
"86 10 CURVE SMOOTH",
"14 10 OFFCURVE",
"97 298 OFFCURVE",
"269 298 CURVE SMOOTH",
"282 298 OFFCURVE",
"332 304 OFFCURVE",
"285 309 CURVE SMOOTH",
"274 311 OFFCURVE",
"263 311 OFFCURVE",
"252 311 CURVE SMOOTH",
"170 311 OFFCURVE",
"87 262 OFFCURVE",
"44 173 CURVE SMOOTH",
"20 123 OFFCURVE",
"-19 -5 OFFCURVE",
"74 -5 CURVE SMOOTH",
"119 -5 OFFCURVE",
"158 60 OFFCURVE",
"186 110 CURVE",
"186 110 OFFCURVE",
"148 0 OFFCURVE",
"138 -27 CURVE",
"90 -52 OFFCURVE",
"-15 -170 OFFCURVE",
"-67 -266 CURVE SMOOTH",
"-152 -420 OFFCURVE",
"-43 -441 OFFCURVE",
"37 -329 CURVE SMOOTH"
);
},
{
closed = 1;
nodes = (
"-63 -442 OFFCURVE",
"-106 -384 OFFCURVE",
"-52 -277 CURVE SMOOTH",
"-10 -192 OFFCURVE",
"77 -81 OFFCURVE",
"132 -49 CURVE",
"121 -76 OFFCURVE",
"63 -220 OFFCURVE",
"12 -310 CURVE SMOOTH"
);
}
);
width = 299;
}
);
note = g;
unicode = 0067;
},
{
glyphname = h;
lastChange = "2021-09-23 18:48:50 +0000";
layers = (
{
hints = (
{
horizontal = 1;
place = "{276, -20}";
target = down;
type = TopGhost;
},
{
place = "{89, 59}";
type = Stem;
}
);
layerId = "32B14CDE-4F96-422E-BD5E-1145416534B1";
paths = (
{
closed = 1;
nodes = (
"263 -5 OFFCURVE",
"306 66 OFFCURVE",
"381 205 CURVE SMOOTH",
"383 209 OFFCURVE",
"373 216 OFFCURVE",
"370 211 CURVE SMOOTH",
"323 120 OFFCURVE",
"295 72 OFFCURVE",
"256 38 CURVE SMOOTH",
"192 -18 OFFCURVE",
"177 14 OFFCURVE",
"233 146 CURVE SMOOTH",
"274 244 OFFCURVE",
"293 302 OFFCURVE",
"235 302 CURVE SMOOTH",
"190 302 OFFCURVE",
"126 219 OFFCURVE",
"89 148 CURVE",
"104 199 OFFCURVE",
"126 270 OFFCURVE",
"133 284 CURVE",
"181 308 OFFCURVE",
"285 426 OFFCURVE",
"338 522 CURVE SMOOTH",
"422 676 OFFCURVE",
"314 697 OFFCURVE",
"234 585 CURVE SMOOTH",
"123 430 OFFCURVE",
"57 183 OFFCURVE",
"0 0 CURVE",
"22 7 OFFCURVE",
"44 -5 OFFCURVE",
"53 27 CURVE SMOOTH",
"68 79 OFFCURVE",
"158 276 OFFCURVE",
"219 276 CURVE SMOOTH",
"260 276 OFFCURVE",
"198 185 OFFCURVE",
"176 140 CURVE SMOOTH",
"133 49 OFFCURVE",
"140 -5 OFFCURVE",
"190 -5 CURVE SMOOTH"
);
},
{
closed = 1;
nodes = (
"149 333 OFFCURVE",
"208 476 OFFCURVE",
"259 566 CURVE SMOOTH",
"334 698 OFFCURVE",
"377 641 OFFCURVE",
"323 533 CURVE SMOOTH",
"281 448 OFFCURVE",
"194 338 OFFCURVE",
"139 305 CURVE"
);
}
);
width = 302;
}
);
note = h;
unicode = 0068;
},
{
glyphname = i;
lastChange = "2021-09-23 18:48:50 +0000";
layers = (
{
hints = (
{
place = "{141, 56}";
type = Stem;
}
);
layerId = "32B14CDE-4F96-422E-BD5E-1145416534B1";
paths = (
{
closed = 1;
nodes = (
"180 -5 OFFCURVE",
"228 68 OFFCURVE",
"299 205 CURVE SMOOTH",
"301 209 OFFCURVE",
"292 216 OFFCURVE",
"289 210 CURVE SMOOTH",
"242 120 OFFCURVE",
"213 72 OFFCURVE",
"175 38 CURVE SMOOTH",
"116 -14 OFFCURVE",
"106 24 OFFCURVE",
"127 84 CURVE SMOOTH",
"144 131 OFFCURVE",
"167 176 OFFCURVE",
"184 222 CURVE SMOOTH",
"201 270 OFFCURVE",
"201 294 OFFCURVE",
"182 302 CURVE SMOOTH",
"123 325 OFFCURVE",
"91 258 OFFCURVE",
"68 210 CURVE SMOOTH",
"49 173 OFFCURVE",
"27 130 OFFCURVE",
"2 94 CURVE",
"0 92 OFFCURVE",
"9 85 OFFCURVE",
"11 88 CURVE SMOOTH",
"35 122 OFFCURVE",
"59 166 OFFCURVE",
"79 205 CURVE SMOOTH",
"90 227 OFFCURVE",
"116 283 OFFCURVE",
"140 283 CURVE SMOOTH",
"155 283 OFFCURVE",
"148 260 OFFCURVE",
"136 230 CURVE SMOOTH",
"113 176 OFFCURVE",
"76 110 OFFCURVE",
"71 57 CURVE SMOOTH",
"66 20 OFFCURVE",
"82 -5 OFFCURVE",
"109 -5 CURVE SMOOTH"
);
},
{
closed = 1;
nodes = (
"239 370 OFFCURVE",
"257 386 OFFCURVE",
"259 406 CURVE SMOOTH",
"260 427 OFFCURVE",
"245 443 OFFCURVE",
"225 443 CURVE SMOOTH",
"205 443 OFFCURVE",
"187 427 OFFCURVE",
"186 406 CURVE SMOOTH",
"184 386 OFFCURVE",
"199 370 OFFCURVE",
"219 370 CURVE SMOOTH"
);
}
);
width = 221;
}
);
note = i;
unicode = 0069;
},
{
color = 11;
glyphname = idotless;
lastChange = "2021-09-23 20:44:51 +0000";
layers = (
{
hints = (
{
place = "{141, 56}";
type = Stem;
}
);
layerId = "32B14CDE-4F96-422E-BD5E-1145416534B1";
paths = (
{
closed = 1;
nodes = (
"180 -5 OFFCURVE",
"228 68 OFFCURVE",
"299 205 CURVE SMOOTH",
"301 209 OFFCURVE",
"292 216 OFFCURVE",
"289 210 CURVE SMOOTH",
"242 120 OFFCURVE",
"213 72 OFFCURVE",
"175 38 CURVE SMOOTH",
"116 -14 OFFCURVE",
"106 24 OFFCURVE",
"127 84 CURVE SMOOTH",
"144 131 OFFCURVE",
"167 176 OFFCURVE",
"184 222 CURVE SMOOTH",
"201 270 OFFCURVE",
"201 294 OFFCURVE",
"182 302 CURVE SMOOTH",
"123 325 OFFCURVE",
"91 258 OFFCURVE",
"68 210 CURVE SMOOTH",
"49 173 OFFCURVE",
"27 130 OFFCURVE",
"2 94 CURVE",
"0 92 OFFCURVE",
"9 85 OFFCURVE",
"11 88 CURVE SMOOTH",
"35 122 OFFCURVE",
"59 166 OFFCURVE",
"79 205 CURVE SMOOTH",
"90 227 OFFCURVE",
"116 283 OFFCURVE",
"140 283 CURVE SMOOTH",
"155 283 OFFCURVE",
"148 260 OFFCURVE",
"136 230 CURVE SMOOTH",
"113 176 OFFCURVE",
"76 110 OFFCURVE",
"71 57 CURVE SMOOTH",
"66 20 OFFCURVE",
"82 -5 OFFCURVE",
"109 -5 CURVE SMOOTH"
);
}
);
width = 221;
}
);
unicode = 0131;
},
{
glyphname = j;
lastChange = "2021-09-23 18:48:50 +0000";
layers = (
{
hints = (
{
horizontal = 1;
place = "{-400, 15}";
type = Stem;
},
{
horizontal = 1;
place = "{370, 73}";
type = Stem;
},
{
place = "{-255, 21}";
type = Stem;
},
{
place = "{138, 73}";
type = Stem;
}
);
layerId = "32B14CDE-4F96-422E-BD5E-1145416534B1";
paths = (
{
closed = 1;
nodes = (
"-64 -249 OFFCURVE",
"-12 -116 OFFCURVE",
"24 -25 CURVE",
"120 25 OFFCURVE",
"157 83 OFFCURVE",
"212 190 CURVE SMOOTH",
"216 197 OFFCURVE",
"205 198 OFFCURVE",
"201 191 CURVE SMOOTH",
"152 101 OFFCURVE",
"115 36 OFFCURVE",
"30 -8 CURVE",
"56 63 OFFCURVE",
"128 270 OFFCURVE",
"176 321 CURVE",
"154 311 OFFCURVE",
"124 302 OFFCURVE",
"101 297 CURVE",
"65 203 OFFCURVE",
"15 69 OFFCURVE",
"-19 -27 CURVE",
"-68 -52 OFFCURVE",
"-173 -170 OFFCURVE",
"-226 -267 CURVE SMOOTH",
"-309 -420 OFFCURVE",
"-201 -441 OFFCURVE",
"-121 -329 CURVE SMOOTH"
);
},
{
closed = 1;
nodes = (
"-214 -432 OFFCURVE",
"-270 -396 OFFCURVE",
"-210 -276 CURVE SMOOTH",
"-167 -191 OFFCURVE",
"-81 -81 OFFCURVE",
"-26 -49 CURVE",
"-37 -76 OFFCURVE",
"-93 -214 OFFCURVE",
"-143 -304 CURVE SMOOTH"
);
},
{
closed = 1;
nodes = (
"190 370 OFFCURVE",
"208 386 OFFCURVE",
"210 406 CURVE SMOOTH",
"211 427 OFFCURVE",
"196 443 OFFCURVE",
"176 443 CURVE SMOOTH",
"156 443 OFFCURVE",
"138 427 OFFCURVE",
"137 406 CURVE SMOOTH",
"135 386 OFFCURVE",
"150 370 OFFCURVE",
"170 370 CURVE SMOOTH"
);
}
);
width = 142;
}
);
note = j;
unicode = 006A;
},
{
color = 11;
glyphname = jdotless;
lastChange = "2021-09-23 20:44:51 +0000";
layers = (
{
hints = (
{
horizontal = 1;
place = "{-400, 15}";
type = Stem;
},
{
horizontal = 1;
place = "{370, 73}";
type = Stem;
},
{
place = "{-255, 21}";
type = Stem;
},
{
place = "{138, 73}";
type = Stem;
}
);
layerId = "32B14CDE-4F96-422E-BD5E-1145416534B1";
paths = (
{
closed = 1;
nodes = (
"-64 -249 OFFCURVE",
"-12 -116 OFFCURVE",
"24 -25 CURVE",
"120 25 OFFCURVE",
"157 83 OFFCURVE",
"212 190 CURVE SMOOTH",
"216 197 OFFCURVE",
"205 198 OFFCURVE",
"201 191 CURVE SMOOTH",
"152 101 OFFCURVE",
"115 36 OFFCURVE",
"30 -8 CURVE",
"56 63 OFFCURVE",
"128 270 OFFCURVE",
"176 321 CURVE",
"154 311 OFFCURVE",
"124 302 OFFCURVE",
"101 297 CURVE",
"65 203 OFFCURVE",
"15 69 OFFCURVE",
"-19 -27 CURVE",
"-68 -52 OFFCURVE",
"-173 -170 OFFCURVE",
"-226 -267 CURVE SMOOTH",
"-309 -420 OFFCURVE",
"-201 -441 OFFCURVE",
"-121 -329 CURVE SMOOTH"
);
},
{
closed = 1;
nodes = (
"-214 -432 OFFCURVE",
"-270 -396 OFFCURVE",
"-210 -276 CURVE SMOOTH",
"-167 -191 OFFCURVE",
"-81 -81 OFFCURVE",
"-26 -49 CURVE",
"-37 -76 OFFCURVE",
"-93 -214 OFFCURVE",
"-143 -304 CURVE SMOOTH"
);
}
);
width = 142;
}
);
unicode = 0237;
},
{
glyphname = k;
lastChange = "2021-09-23 18:48:50 +0000";
layers = (
{
hints = (
{
horizontal = 1;
place = "{16, 183}";
type = Stem;
},
{
place = "{100, 20}";
type = Stem;
},
{
place = "{165, 105}";
type = Stem;
}
);
layerId = "32B14CDE-4F96-422E-BD5E-1145416534B1";
paths = (
{
closed = 1;
nodes = (
"240 -5 OFFCURVE",
"289 66 OFFCURVE",
"366 205 CURVE SMOOTH",
"368 209 OFFCURVE",
"358 216 OFFCURVE",
"355 211 CURVE SMOOTH",
"321 146 OFFCURVE",
"280 72 OFFCURVE",
"241 38 CURVE SMOOTH",
"154 -38 OFFCURVE",
"153 100 OFFCURVE",
"184 199 CURVE",
"371 199 OFFCURVE",
"340 398 OFFCURVE",
"190 280 CURVE SMOOTH",
"157 255 OFFCURVE",
"124 219 OFFCURVE",
"100 184 CURVE",
"111 221 OFFCURVE",
"128 273 OFFCURVE",
"133 284 CURVE",
"181 308 OFFCURVE",
"285 426 OFFCURVE",
"338 522 CURVE SMOOTH",
"422 676 OFFCURVE",
"314 697 OFFCURVE",
"234 585 CURVE SMOOTH",
"123 430 OFFCURVE",
"57 183 OFFCURVE",
"0 0 CURVE",
"22 7 OFFCURVE",
"44 -5 OFFCURVE",
"53 27 CURVE SMOOTH",
"83 127 LINE",
"117 198 OFFCURVE",
"183 264 OFFCURVE",
"220 286 CURVE SMOOTH",
"276 320 OFFCURVE",
"290 257 OFFCURVE",
"239 232 CURVE SMOOTH",
"201 213 OFFCURVE",
"151 198 OFFCURVE",
"138 199 CURVE",
"117 133 OFFCURVE",
"95 -5 OFFCURVE",
"189 -5 CURVE SMOOTH"
);
},
{
closed = 1;
nodes = (
"149 333 OFFCURVE",
"208 476 OFFCURVE",
"259 566 CURVE SMOOTH",
"334 698 OFFCURVE",
"377 641 OFFCURVE",
"323 533 CURVE SMOOTH",
"281 448 OFFCURVE",
"194 338 OFFCURVE",
"139 305 CURVE"
);
}
);
width = 287;
}
);
note = k;
unicode = 006B;
},
{
glyphname = kgreenlandic;
lastChange = "2021-09-23 19:19:24 +0000";
layers = (
{
layerId = "32B14CDE-4F96-422E-BD5E-1145416534B1";
paths = (
{
closed = 1;
nodes = (
"293 463 OFFCURVE",
"242 369 OFFCURVE",
"205 320 CURVE SMOOTH",
"169 269 OFFCURVE",
"126 208 OFFCURVE",
"103 166 CURVE",
"145 306 OFFCURVE",
"188 415 OFFCURVE",
"257 505 CURVE",
"104 505 LINE",
"101 498 LINE",
"113 498 OFFCURVE",
"132 497 OFFCURVE",
"140 495 CURVE",
"180 490 OFFCURVE",
"159 451 OFFCURVE",
"140 405 CURVE SMOOTH",
"127 371 OFFCURVE",
"67 207 OFFCURVE",
"31 72 CURVE SMOOTH",
"16 17 OFFCURVE",
"14 9 OFFCURVE",
"12 -3 CURVE",
"11 -4 OFFCURVE",
"11 -8 OFFCURVE",
"13 -8 CURVE SMOOTH",
"14 -8 OFFCURVE",
"16 -6 OFFCURVE",
"20 -2 CURVE SMOOTH",
"23 2 OFFCURVE",
"27 4 OFFCURVE",
"34 4 CURVE SMOOTH",
"38 4 OFFCURVE",
"43 2 OFFCURVE",
"49 -2 CURVE",
"50 -2 OFFCURVE",
"50 -1 OFFCURVE",
"50 -1 CURVE",
"86 139 OFFCURVE",
"129 192 OFFCURVE",
"208 303 CURVE",
"177 177 OFFCURVE",
"158 -5 OFFCURVE",
"285 -5 CURVE SMOOTH",
"350 -5 OFFCURVE",
"413 113 OFFCURVE",
"455 193 CURVE SMOOTH",
"460 203 OFFCURVE",
"448 202 OFFCURVE",
"445 197 CURVE SMOOTH",
"403 122 OFFCURVE",
"350 14 OFFCURVE",
"285 15 CURVE SMOOTH",
"216 15 OFFCURVE",
"219 243 OFFCURVE",
"231 338 CURVE",
"239 349 LINE SMOOTH",
"257 373 OFFCURVE",
"342 459 OFFCURVE",
"390 414 CURVE",
"412 429 OFFCURVE",
"395 463 OFFCURVE",
"363 463 CURVE SMOOTH"
);
}
);
width = 383;
}
);
unicode = 0138;
},
{
glyphname = l;
lastChange = "2021-09-23 18:48:50 +0000";
layers = (
{
hints = (
{
horizontal = 1;
place = "{-9, 12}";
type = Stem;
},
{
horizontal = 1;
place = "{639, 18}";
type = Stem;
},
{
place = "{30, 36}";
type = Stem;
},
{
place = "{257, 9}";
type = Stem;
},
{
place = "{349, 22}";
type = Stem;
}
);
layerId = "32B14CDE-4F96-422E-BD5E-1145416534B1";
paths = (
{
closed = 1;
nodes = (
"185 56 OFFCURVE",
"217 103 OFFCURVE",
"266 204 CURVE",
"268 207 OFFCURVE",
"259 214 OFFCURVE",
"257 209 CURVE SMOOTH",
"252 198 OFFCURVE",
"216 135 OFFCURVE",
"199 107 CURVE SMOOTH",
"190 92 OFFCURVE",
"157 46 OFFCURVE",
"126 23 CURVE SMOOTH",
"-1 -76 OFFCURVE",
"113 220 OFFCURVE",
"113 220 CURVE",
"162 262 OFFCURVE",
"256 383 OFFCURVE",
"315 477 CURVE SMOOTH",
"444 682 OFFCURVE",
"322 703 OFFCURVE",
"237 585 CURVE SMOOTH",
"178 503 OFFCURVE",
"28 165 OFFCURVE",
"30 60 CURVE SMOOTH",
"31 -28 OFFCURVE",
"97 -17 OFFCURVE",
"133 13 CURVE SMOOTH"
);
},
{
closed = 1;
nodes = (
"130 269 OFFCURVE",
"212 476 OFFCURVE",
"263 566 CURVE SMOOTH",
"338 700 OFFCURVE",
"392 636 OFFCURVE",
"303 490 CURVE SMOOTH",
"252 407 OFFCURVE",
"167 298 OFFCURVE",
"120 242 CURVE"
);
}
);
width = 189;
}
);
note = l;
unicode = 006C;
},
{
glyphname = m;
lastChange = "2021-09-23 18:48:50 +0000";
layers = (
{
hints = (
{
horizontal = 1;
place = "{277, 18}";
type = Stem;
}
);
layerId = "32B14CDE-4F96-422E-BD5E-1145416534B1";
paths = (
{
closed = 1;
nodes = (
"447 -5 OFFCURVE",
"495 64 OFFCURVE",
"566 205 CURVE SMOOTH",
"568 209 OFFCURVE",
"559 216 OFFCURVE",
"557 211 CURVE SMOOTH",
"509 120 OFFCURVE",
"481 72 OFFCURVE",
"442 38 CURVE SMOOTH",
"378 -18 OFFCURVE",
"363 14 OFFCURVE",
"419 146 CURVE SMOOTH",
"461 244 OFFCURVE",
"480 302 OFFCURVE",
"422 302 CURVE SMOOTH",
"390 302 OFFCURVE",
"349 261 OFFCURVE",
"314 212 CURVE",
"339 271 OFFCURVE",
"329 302 OFFCURVE",
"289 302 CURVE SMOOTH",
"257 302 OFFCURVE",
"216 261 OFFCURVE",
"181 212 CURVE",
"199 262 OFFCURVE",
"202 294 OFFCURVE",
"182 302 CURVE SMOOTH",
"123 325 OFFCURVE",
"91 258 OFFCURVE",
"67 210 CURVE SMOOTH",
"52 180 OFFCURVE",
"32 141 OFFCURVE",
"11 108 CURVE SMOOTH",
"7 101 OFFCURVE",
"17 97 OFFCURVE",
"21 103 CURVE SMOOTH",
"41 135 OFFCURVE",
"63 174 OFFCURVE",
"79 205 CURVE SMOOTH",
"90 227 OFFCURVE",
"116 283 OFFCURVE",
"140 283 CURVE SMOOTH",
"170 283 OFFCURVE",
"127 191 OFFCURVE",
"107 145 CURVE SMOOTH",
"78 75 OFFCURVE",
"68 61 OFFCURVE",
"41 -3 CURVE",
"63 4 OFFCURVE",
"93 -7 OFFCURVE",
"105 24 CURVE SMOOTH",
"125 78 OFFCURVE",
"211 276 OFFCURVE",
"273 276 CURVE SMOOTH",
"314 276 OFFCURVE",
"260 190 OFFCURVE",
"240 145 CURVE SMOOTH",
"210 76 OFFCURVE",
"201 61 OFFCURVE",
"174 -3 CURVE",
"196 4 OFFCURVE",
"226 -7 OFFCURVE",
"238 24 CURVE SMOOTH",
"258 78 OFFCURVE",
"344 276 OFFCURVE",
"406 276 CURVE SMOOTH",
"447 276 OFFCURVE",
"384 185 OFFCURVE",
"362 140 CURVE SMOOTH",
"319 49 OFFCURVE",
"327 -5 OFFCURVE",
"376 -5 CURVE SMOOTH"
);
}
);
width = 488;
}
);
note = m;
unicode = 006D;
},
{
glyphname = n;
lastChange = "2021-09-23 18:48:50 +0000";
layers = (
{
hints = (
{
horizontal = 1;
place = "{280, 18}";
type = Stem;
}
);
layerId = "32B14CDE-4F96-422E-BD5E-1145416534B1";
paths = (
{
closed = 1;
nodes = (
"315 -5 OFFCURVE",
"360 65 OFFCURVE",
"433 205 CURVE SMOOTH",
"435 209 OFFCURVE",
"426 216 OFFCURVE",
"424 211 CURVE SMOOTH",
"377 122 OFFCURVE",
"348 72 OFFCURVE",
"309 38 CURVE SMOOTH",
"187 -70 OFFCURVE",
"296 167 OFFCURVE",
"314 212 CURVE SMOOTH",
"338 271 OFFCURVE",
"329 302 OFFCURVE",
"289 302 CURVE SMOOTH",
"257 302 OFFCURVE",
"216 261 OFFCURVE",
"181 212 CURVE",
"199 262 OFFCURVE",
"202 294 OFFCURVE",
"182 302 CURVE SMOOTH",
"123 325 OFFCURVE",
"90 256 OFFCURVE",
"66 207 CURVE SMOOTH",
"48 171 OFFCURVE",
"28 135 OFFCURVE",
"5 99 CURVE SMOOTH",
"4 97 OFFCURVE",
"13 92 OFFCURVE",
"15 94 CURVE",
"40 129 OFFCURVE",
"59 166 OFFCURVE",
"79 205 CURVE SMOOTH",
"90 227 OFFCURVE",
"116 283 OFFCURVE",
"140 283 CURVE SMOOTH",
"170 283 OFFCURVE",
"127 191 OFFCURVE",
"107 145 CURVE SMOOTH",
"78 75 OFFCURVE",
"68 61 OFFCURVE",
"41 -3 CURVE",
"63 4 OFFCURVE",
"93 -7 OFFCURVE",
"105 24 CURVE SMOOTH",
"125 78 OFFCURVE",
"211 276 OFFCURVE",
"273 276 CURVE SMOOTH",
"314 276 OFFCURVE",
"251 185 OFFCURVE",
"230 140 CURVE SMOOTH",
"186 49 OFFCURVE",
"194 -5 OFFCURVE",
"243 -5 CURVE SMOOTH"
);
}
);
width = 355;
}
);
note = n;
unicode = 006E;
},
{
color = 9;
glyphname = eng;
lastChange = "2021-09-23 18:57:20 +0000";
layers = (
{
background = {
hints = (
{
horizontal = 1;
place = "{-34, 20}";
type = Stem;
},
{
horizontal = 1;
place = "{331, -20}";
target = down;
type = TopGhost;
},
{
horizontal = 1;
place = "{355, -20}";
target = down;
type = TopGhost;
},
{
place = "{187, 31}";
type = Stem;
},
{
place = "{290, 42}";
type = Stem;
}
);
paths = (
{
closed = 1;
nodes = (
"292 223 OFFCURVE",
"181 42 OFFCURVE",
"143 -34 CURVE SMOOTH",
"133 -55 OFFCURVE",
"122 -75 OFFCURVE",
"111 -95 CURVE SMOOTH",
"71 -167 OFFCURVE",
"26 -221 OFFCURVE",
"-45 -221 CURVE SMOOTH",
"-77 -222 OFFCURVE",
"-104 -206 OFFCURVE",
"-120 -178 CURVE SMOOTH",
"-135 -150 OFFCURVE",
"-138 -103 OFFCURVE",
"-127 -88 CURVE",
"-136 -80 OFFCURVE",
"-168 -108 OFFCURVE",
"-167 -151 CURVE SMOOTH",
"-165 -214 OFFCURVE",
"-91 -238 OFFCURVE",
"-47 -236 CURVE SMOOTH",
"23 -236 OFFCURVE",
"77 -196 OFFCURVE",
"139 -105 CURVE SMOOTH",
"204 -8 OFFCURVE",
"294 175 OFFCURVE",
"290 242 CURVE"
);
}
);
};
hints = (
{
horizontal = 1;
place = "{280, 18}";
type = Stem;
}
);
layerId = "32B14CDE-4F96-422E-BD5E-1145416534B1";
paths = (
{
closed = 1;
nodes = (
"102 -236 OFFCURVE",
"239 12 OFFCURVE",
"314 212 CURVE SMOOTH",
"337 273 OFFCURVE",
"329 302 OFFCURVE",
"289 302 CURVE SMOOTH",
"257 302 OFFCURVE",
"216 261 OFFCURVE",
"181 212 CURVE",
"199 262 OFFCURVE",
"202 294 OFFCURVE",
"182 302 CURVE SMOOTH",
"123 325 OFFCURVE",
"90 256 OFFCURVE",
"66 207 CURVE SMOOTH",
"48 171 OFFCURVE",
"28 135 OFFCURVE",
"5 99 CURVE SMOOTH",
"4 97 OFFCURVE",
"13 92 OFFCURVE",
"15 94 CURVE",
"40 129 OFFCURVE",
"59 166 OFFCURVE",
"79 205 CURVE SMOOTH",
"90 227 OFFCURVE",
"116 283 OFFCURVE",
"140 283 CURVE SMOOTH",
"170 283 OFFCURVE",
"127 191 OFFCURVE",
"107 145 CURVE SMOOTH",
"78 75 OFFCURVE",
"68 61 OFFCURVE",
"41 -3 CURVE",
"63 4 OFFCURVE",
"93 -7 OFFCURVE",
"105 24 CURVE SMOOTH",
"125 78 OFFCURVE",
"211 276 OFFCURVE",
"273 276 CURVE SMOOTH",
"314 276 OFFCURVE",
"251 149 OFFCURVE",
"230 103 CURVE SMOOTH",
"154 -65 OFFCURVE",
"76 -221 OFFCURVE",
"-32 -221 CURVE SMOOTH",
"-69 -221 OFFCURVE",
"-96 -206 OFFCURVE",
"-112 -178 CURVE SMOOTH",
"-127 -150 OFFCURVE",
"-130 -103 OFFCURVE",
"-119 -88 CURVE",
"-128 -80 OFFCURVE",
"-160 -108 OFFCURVE",
"-159 -151 CURVE SMOOTH",
"-157 -214 OFFCURVE",
"-102 -238 OFFCURVE",
"-34 -237 CURVE SMOOTH"
);
}
);
width = 355;
}
);
unicode = 014B;
},
{
glyphname = o;
lastChange = "2021-09-23 18:48:50 +0000";
layers = (
{
hints = (
{
horizontal = 1;
place = "{-5, 15}";
type = Stem;
},
{
horizontal = 1;
place = "{142, -20}";
target = down;
type = TopGhost;
},
{
horizontal = 1;
place = "{292, 15}";
type = Stem;
},
{
place = "{20, 43}";
type = Stem;
},
{
place = "{228, 14}";
type = Stem;
},
{
horizontal = 1;
place = "{35, 15}";
type = Stem;
},
{
place = "{147, 16}";
type = Stem;
}
);
layerId = "32B14CDE-4F96-422E-BD5E-1145416534B1";
paths = (
{
closed = 1;
nodes = (
"103 -5 OFFCURVE",
"130 15 OFFCURVE",
"156 48 CURVE",
"173 31 OFFCURVE",
"199 28 OFFCURVE",
"229 56 CURVE SMOOTH",
"268 92 OFFCURVE",
"300 156 OFFCURVE",
"321 201 CURVE SMOOTH",
"324 208 OFFCURVE",
"317 216 OFFCURVE",
"313 209 CURVE SMOOTH",
"291 168 OFFCURVE",
"220 12 OFFCURVE",
"163 58 CURVE",
"182 82 OFFCURVE",
"199 112 OFFCURVE",
"215 145 CURVE SMOOTH",
"240 195 OFFCURVE",
"270 307 OFFCURVE",
"192 307 CURVE SMOOTH",
"147 307 OFFCURVE",
"85 257 OFFCURVE",
"49 173 CURVE SMOOTH",
"27 122 OFFCURVE",
"-15 -5 OFFCURVE",
"78 -5 CURVE SMOOTH"
);
},
{
closed = 1;
nodes = (
"5 10 OFFCURVE",
"138 292 OFFCURVE",
"199 292 CURVE SMOOTH",
"246 292 OFFCURVE",
"230 216 OFFCURVE",
"196 142 CURVE",
"204 184 OFFCURVE",
"160 191 OFFCURVE",
"142 136 CURVE SMOOTH",
"125 84 OFFCURVE",
"147 59 OFFCURVE",
"147 59 CURVE",
"126 30 OFFCURVE",
"105 10 OFFCURVE",
"90 10 CURVE SMOOTH"
);
}
);
width = 245;
}
);
note = o;
unicode = 006F;
},
{
glyphname = oslash;
lastChange = "2021-09-23 18:48:50 +0000";
layers = (
{
hints = (
{
horizontal = 1;
place = "{-9, 20}";
type = Stem;
},
{
horizontal = 1;
place = "{328, -20}";
target = down;
type = TopGhost;
}
);
layerId = "32B14CDE-4F96-422E-BD5E-1145416534B1";
paths = (
{
closed = 1;
nodes = (
"94 -81 LINE",
"135 -5 LINE",
"143 -8 OFFCURVE",
"152 -9 OFFCURVE",
"161 -9 CURVE SMOOTH",
"211 -9 OFFCURVE",
"258 40 OFFCURVE",
"280 82 CURVE",
"287 75 OFFCURVE",
"302 72 OFFCURVE",
"311 72 CURVE SMOOTH",
"359 72 OFFCURVE",
"393 122 OFFCURVE",
"410 161 CURVE",
"409 163 LINE",
"403 163 LINE",
"388 126 OFFCURVE",
"355 79 OFFCURVE",
"310 79 CURVE SMOOTH",
"302 79 OFFCURVE",
"293 81 OFFCURVE",
"286 86 CURVE",
"284 89 LINE",
"315 124 OFFCURVE",
"335 189 OFFCURVE",
"335 235 CURVE SMOOTH",
"335 264 OFFCURVE",
"327 293 OFFCURVE",
"304 312 CURVE",
"349 397 LINE",
"328 397 LINE",
"288 322 LINE",
"277 326 OFFCURVE",
"266 328 OFFCURVE",
"255 328 CURVE SMOOTH",
"147 328 OFFCURVE",
"73 205 OFFCURVE",
"73 107 CURVE SMOOTH",
"73 69 OFFCURVE",
"85 25 OFFCURVE",
"119 3 CURVE",
"74 -81 LINE"
);
},
{
closed = 1;
nodes = (
"121 44 OFFCURVE",
"119 67 OFFCURVE",
"119 88 CURVE SMOOTH",
"119 110 OFFCURVE",
"122 132 OFFCURVE",
"128 153 CURVE SMOOTH",
"143 211 OFFCURVE",
"198 315 OFFCURVE",
"269 315 CURVE SMOOTH",
"273 315 OFFCURVE",
"278 314 OFFCURVE",
"283 313 CURVE",
"130 25 LINE"
);
},
{
closed = 1;
nodes = (
"159 -1 OFFCURVE",
"148 1 OFFCURVE",
"141 8 CURVE",
"300 305 LINE",
"325 286 OFFCURVE",
"326 252 OFFCURVE",
"326 224 CURVE",
"320 224 OFFCURVE",
"314 225 OFFCURVE",
"308 225 CURVE SMOOTH",
"277 225 OFFCURVE",
"259 183 OFFCURVE",
"258 157 CURVE SMOOTH",
"258 152 OFFCURVE",
"257 148 OFFCURVE",
"257 143 CURVE SMOOTH",
"257 119 OFFCURVE",
"263 106 OFFCURVE",
"275 86 CURVE",
"273 84 OFFCURVE",
"272 82 OFFCURVE",
"272 80 CURVE",
"251 46 OFFCURVE",
"212 -1 OFFCURVE",
"168 -1 CURVE SMOOTH"
);
}
);
width = 323;
}
);
note = oslash;
unicode = 00F8;
},
{
glyphname = oe;
lastChange = "2021-09-23 18:48:50 +0000";
layers = (
{
hints = (
{
horizontal = 1;
place = "{-14, 14}";
type = Stem;
},
{
horizontal = 1;
place = "{314, 19}";
type = Stem;
},
{
place = "{41, 56}";
type = Stem;
},
{
place = "{225, 54}";
type = Stem;
},
{
place = "{460, 19}";
type = Stem;
}
);
layerId = "32B14CDE-4F96-422E-BD5E-1145416534B1";
paths = (
{
closed = 1;
nodes = (
"176 -14 OFFCURVE",
"210 15 OFFCURVE",
"234 45 CURVE",
"250 6 OFFCURVE",
"286 -10 OFFCURVE",
"327 -10 CURVE SMOOTH",
"417 -10 OFFCURVE",
"478 86 OFFCURVE",
"523 165 CURVE",
"526 175 OFFCURVE",
"517 173 OFFCURVE",
"514 168 CURVE SMOOTH",
"465 82 OFFCURVE",
"407 4 OFFCURVE",
"336 4 CURVE SMOOTH",
"298 4 OFFCURVE",
"279 35 OFFCURVE",
"279 72 CURVE SMOOTH",
"279 90 OFFCURVE",
"283 111 OFFCURVE",
"290 129 CURVE",
"342 130 OFFCURVE",
"396 163 OFFCURVE",
"431 198 CURVE SMOOTH",
"451 219 OFFCURVE",
"479 261 OFFCURVE",
"479 292 CURVE SMOOTH",
"479 323 OFFCURVE",
"445 332 OFFCURVE",
"424 332 CURVE SMOOTH",
"380 332 OFFCURVE",
"337 302 OFFCURVE",
"308 273 CURVE",
"297 309 OFFCURVE",
"268 333 OFFCURVE",
"228 333 CURVE SMOOTH",
"116 333 OFFCURVE",
"41 206 OFFCURVE",
"41 107 CURVE SMOOTH",
"41 53 OFFCURVE",
"67 -14 OFFCURVE",
"134 -14 CURVE SMOOTH"
);
},
{
closed = 1;
nodes = (
"100 -1 OFFCURVE",
"97 57 OFFCURVE",
"97 88 CURVE SMOOTH",
"97 109 OFFCURVE",
"100 131 OFFCURVE",
"106 152 CURVE SMOOTH",
"122 211 OFFCURVE",
"175 314 OFFCURVE",
"242 314 CURVE SMOOTH",
"275 314 OFFCURVE",
"293 291 OFFCURVE",
"297 261 CURVE",
"261 218 OFFCURVE",
"225 153 OFFCURVE",
"225 95 CURVE SMOOTH",
"225 72 OFFCURVE",
"231 57 OFFCURVE",
"231 57 CURVE",
"211 28 OFFCURVE",
"176 -1 OFFCURVE",
"141 -1 CURVE SMOOTH"
);
},
{
closed = 1;
nodes = (
"296 145 OFFCURVE",
"297 148 OFFCURVE",
"299 151 CURVE",
"317 196 OFFCURVE",
"394 309 OFFCURVE",
"442 309 CURVE SMOOTH",
"453 309 OFFCURVE",
"461 305 OFFCURVE",
"461 298 CURVE SMOOTH",
"461 230 OFFCURVE",
"356 147 OFFCURVE",
"295 142 CURVE"
);
}
);
width = 468;
}
);
note = oe;
unicode = 0153;
},
{
glyphname = p;
lastChange = "2021-09-23 18:48:50 +0000";
layers = (
{
hints = (
{
horizontal = 1;
place = "{-62, 14}";
type = Stem;
}
);
layerId = "32B14CDE-4F96-422E-BD5E-1145416534B1";
paths = (
{
closed = 1;
nodes = (
"-123 -390 OFFCURVE",
"-103 -390 OFFCURVE",
"-80 -385 CURVE",
"-67 -358 OFFCURVE",
"42 -108 OFFCURVE",
"89 -16 CURVE SMOOTH",
"96 -4 LINE",
"105 15 LINE",
"122 -1 OFFCURVE",
"151 -11 OFFCURVE",
"198 -10 CURVE SMOOTH",
"332 -8 OFFCURVE",
"387 103 OFFCURVE",
"440 207 CURVE SMOOTH",
"444 214 OFFCURVE",
"433 218 OFFCURVE",
"429 211 CURVE SMOOTH",
"378 112 OFFCURVE",
"317 -5 OFFCURVE",
"190 3 CURVE",
"244 23 OFFCURVE",
"292 65 OFFCURVE",
"321 127 CURVE SMOOTH",
"345 177 OFFCURVE",
"385 305 OFFCURVE",
"292 305 CURVE SMOOTH",
"249 305 OFFCURVE",
"201 232 OFFCURVE",
"186 195 CURVE",
"197 232 OFFCURVE",
"202 304 OFFCURVE",
"153 304 CURVE SMOOTH",
"106 304 OFFCURVE",
"60 189 OFFCURVE",
"10 105 CURVE",
"8 100 OFFCURVE",
"17 98 OFFCURVE",
"20 102 CURVE SMOOTH",
"58 163 OFFCURVE",
"73 197 OFFCURVE",
"108 249 CURVE SMOOTH",
"135 288 OFFCURVE",
"168 303 OFFCURVE",
"153 238 CURVE SMOOTH",
"148 213 OFFCURVE",
"136 179 OFFCURVE",
"121 140 CURVE",
"118 139 LINE",
"95 127 OFFCURVE",
"79 90 OFFCURVE",
"84 54 CURVE",
"6 -123 OFFCURVE",
"-112 -347 OFFCURVE",
"-144 -400 CURVE"
);
},
{
closed = 1;
nodes = (
"130 15 OFFCURVE",
"119 20 OFFCURVE",
"114 32 CURVE",
"158 123 LINE",
"163 123 OFFCURVE",
"168 123 OFFCURVE",
"174 121 CURVE",
"175 124 OFFCURVE",
"173 133 OFFCURVE",
"166 140 CURVE",
"189 186 OFFCURVE",
"245 289 OFFCURVE",
"280 289 CURVE SMOOTH",
"334 289 OFFCURVE",
"291 174 OFFCURVE",
"279 146 CURVE SMOOTH",
"256 95 OFFCURVE",
"205 15 OFFCURVE",
"144 15 CURVE SMOOTH"
);
}
);
width = 360;
}
);
note = p;
unicode = 0070;
},
{
glyphname = thorn;
lastChange = "2021-09-23 19:35:52 +0000";
layers = (
{
hints = (
{
horizontal = 1;
place = "{-258, 13}";
type = Stem;
},
{
horizontal = 1;
place = "{-12, 14}";
type = Stem;
},
{
place = "{279, 41}";
type = Stem;
},
{
horizontal = 1;
place = "{-62, 14}";
type = Stem;
}
);
layerId = "32B14CDE-4F96-422E-BD5E-1145416534B1";
paths = (
{
closed = 1;
nodes = (
"-106 -258 OFFCURVE",
"-23 -165 OFFCURVE",
"23 -44 CURVE SMOOTH",
"47 20 OFFCURVE",
"130 233 OFFCURVE",
"144 264 CURVE SMOOTH",
"224 442 OFFCURVE",
"291 503 OFFCURVE",
"321 527 CURVE SMOOTH",
"335 539 OFFCURVE",
"351 546 OFFCURVE",
"369 548 CURVE SMOOTH",
"378 550 OFFCURVE",
"385 551 OFFCURVE",
"390 551 CURVE",
"402 554 OFFCURVE",
"409 562 OFFCURVE",
"409 573 CURVE SMOOTH",
"409 585 OFFCURVE",
"402 591 OFFCURVE",
"389 591 CURVE SMOOTH",
"328 591 OFFCURVE",
"243 496 OFFCURVE",
"188 390 CURVE SMOOTH",
"113 247 OFFCURVE",
"65 146 OFFCURVE",
"28 71 CURVE SMOOTH",
"-36 -59 OFFCURVE",
"-141 -245 OFFCURVE",
"-225 -245 CURVE SMOOTH",
"-247 -245 OFFCURVE",
"-262 -230 OFFCURVE",
"-270 -199 CURVE SMOOTH",
"-272 -189 OFFCURVE",
"-281 -194 OFFCURVE",
"-278 -203 CURVE SMOOTH",
"-270 -234 OFFCURVE",
"-247 -258 OFFCURVE",
"-209 -258 CURVE SMOOTH"
);
},
{
closed = 1;
nodes = (
"-4 60 OFFCURVE",
"39 15 CURVE SMOOTH",
"56 -2 OFFCURVE",
"85 -11 OFFCURVE",
"132 -10 CURVE SMOOTH",
"266 -8 OFFCURVE",
"321 103 OFFCURVE",
"374 207 CURVE SMOOTH",
"378 214 OFFCURVE",
"367 218 OFFCURVE",
"363 211 CURVE SMOOTH",
"312 112 OFFCURVE",
"251 -5 OFFCURVE",
"124 3 CURVE",
"178 23 OFFCURVE",
"226 65 OFFCURVE",
"255 127 CURVE SMOOTH",
"279 177 OFFCURVE",
"319 305 OFFCURVE",
"226 305 CURVE SMOOTH",
"183 305 OFFCURVE",
"135 232 OFFCURVE",
"120 195 CURVE",
"87 146 OFFCURVE",
"77 153 OFFCURVE",
"52 139 CURVE",
"8 116 OFFCURVE"
);
},
{
closed = 1;
nodes = (
"64 15 OFFCURVE",
"53 20 OFFCURVE",
"48 32 CURVE",
"92 123 LINE",
"97 123 OFFCURVE",
"102 123 OFFCURVE",
"108 121 CURVE",
"109 124 OFFCURVE",
"107 133 OFFCURVE",
"100 140 CURVE",
"123 186 OFFCURVE",
"179 289 OFFCURVE",
"214 289 CURVE SMOOTH",
"268 289 OFFCURVE",
"225 174 OFFCURVE",
"213 146 CURVE SMOOTH",
"190 95 OFFCURVE",
"139 15 OFFCURVE",
"78 15 CURVE SMOOTH"
);
}
);
width = 294;
}
);
note = thorn;
unicode = 00FE;
},
{
glyphname = q;
lastChange = "2021-09-23 18:48:50 +0000";
layers = (
{
hints = (
{
horizontal = 1;
place = "{285, 18}";
type = Stem;
}
);
layerId = "32B14CDE-4F96-422E-BD5E-1145416534B1";
paths = (
{
closed = 1;
nodes = (
"168 -426 OFFCURVE",
"239 -117 OFFCURVE",
"212 2 CURVE",
"277 -19 OFFCURVE",
"354 128 OFFCURVE",
"378 173 CURVE SMOOTH",
"382 180 OFFCURVE",
"376 187 OFFCURVE",
"372 180 CURVE SMOOTH",
"320 85 OFFCURVE",
"254 0 OFFCURVE",
"210 15 CURVE",
"209 21 OFFCURVE",
"207 47 OFFCURVE",
"206 55 CURVE",
"236 131 OFFCURVE",
"274 211 OFFCURVE",
"316 282 CURVE",
"294 272 OFFCURVE",
"271 265 OFFCURVE",
"248 260 CURVE",
"205 170 LINE SMOOTH",
"187 132 OFFCURVE",
"124 10 OFFCURVE",
"86 10 CURVE SMOOTH",
"15 10 OFFCURVE",
"97 298 OFFCURVE",
"269 298 CURVE SMOOTH",
"282 298 OFFCURVE",
"332 304 OFFCURVE",
"285 309 CURVE SMOOTH",
"274 311 OFFCURVE",
"263 311 OFFCURVE",
"252 311 CURVE SMOOTH",
"170 311 OFFCURVE",
"87 262 OFFCURVE",
"44 173 CURVE SMOOTH",
"20 123 OFFCURVE",
"-19 -5 OFFCURVE",
"74 -5 CURVE SMOOTH",
"119 -5 OFFCURVE",
"160 50 OFFCURVE",
"172 85 CURVE SMOOTH",
"102 -140 OFFCURVE",
"31 -358 OFFCURVE",
"93 -389 CURVE SMOOTH"
);
},
{
closed = 1;
nodes = (
"72 -472 OFFCURVE",
"123 -210 OFFCURVE",
"128 -191 CURVE SMOOTH",
"142 -132 OFFCURVE",
"160 -83 OFFCURVE",
"195 6 CURVE",
"215 -55 OFFCURVE",
"194 -242 OFFCURVE",
"146 -333 CURVE SMOOTH"
);
}
);
width = 318;
}
);
note = q;
unicode = 0071;
},
{
glyphname = r;
layers = (
{
hints = (
{
horizontal = 1;
place = "{-4, 18}";
type = Stem;
}
);
layerId = "32B14CDE-4F96-422E-BD5E-1145416534B1";
paths = (
{
closed = 1;
nodes = (
"324 209 OFFCURVE",
"314 216 OFFCURVE",
"312 210 CURVE",
"264 120 OFFCURVE",
"236 72 OFFCURVE",
"198 38 CURVE SMOOTH",
"134 -18 OFFCURVE",
"119 14 OFFCURVE",
"174 146 CURVE SMOOTH",
"216 244 OFFCURVE",
"235 304 OFFCURVE",
"177 302 CURVE SMOOTH",
"154 301 OFFCURVE",
"117 295 OFFCURVE",
"117 295 CURVE",
"124 326 OFFCURVE",
"128 381 OFFCURVE",
"101 381 CURVE SMOOTH",
"53 381 OFFCURVE",
"64 293 OFFCURVE",
"101 279 CURVE",
"97 268 OFFCURVE",
"40 148 OFFCURVE",
"-2 88 CURVE",
"-4 86 OFFCURVE",
"7 83 OFFCURVE",
"9 85 CURVE",
"47 138 OFFCURVE",
"96 237 OFFCURVE",
"113 277 CURVE",
"140 285 OFFCURVE",
"153 290 OFFCURVE",
"164 289 CURVE SMOOTH",
"204 286 OFFCURVE",
"139 185 OFFCURVE",
"118 140 CURVE SMOOTH",
"74 49 OFFCURVE",
"82 -5 OFFCURVE",
"131 -5 CURVE SMOOTH",
"203 -5 OFFCURVE",
"249 66 OFFCURVE",
"322 205 CURVE SMOOTH"
);
}
);
width = 244;
}
);
note = r;
unicode = 0072;
},
{
glyphname = s;
lastChange = "2021-09-23 18:48:50 +0000";
layers = (
{
hints = (
{
horizontal = 1;
place = "{-25, 14}";
type = Stem;
}
);
layerId = "32B14CDE-4F96-422E-BD5E-1145416534B1";
paths = (
{
closed = 1;
nodes = (
"137 -10 OFFCURVE",
"168 -2 OFFCURVE",
"193 12 CURVE SMOOTH",
"265 51 OFFCURVE",
"303 133 OFFCURVE",
"343 207 CURVE SMOOTH",
"347 214 OFFCURVE",
"336 218 OFFCURVE",
"332 211 CURVE SMOOTH",
"300 151 OFFCURVE",
"257 61 OFFCURVE",
"192 23 CURVE SMOOTH",
"167 8 OFFCURVE",
"128 0 OFFCURVE",
"96 2 CURVE",
"138 15 OFFCURVE",
"169 42 OFFCURVE",
"186 92 CURVE SMOOTH",
"202 144 OFFCURVE",
"184 212 OFFCURVE",
"173 257 CURVE SMOOTH",
"163 300 OFFCURVE",
"191 333 OFFCURVE",
"219 326 CURVE SMOOTH",
"231 323 OFFCURVE",
"241 336 OFFCURVE",
"219 345 CURVE SMOOTH",
"155 371 OFFCURVE",
"108 292 OFFCURVE",
"68 209 CURVE SMOOTH",
"56 185 OFFCURVE",
"41 158 OFFCURVE",
"29 137 CURVE",
"-6 127 OFFCURVE",
"-64 -10 OFFCURVE",
"101 -10 CURVE SMOOTH"
);
},
{
closed = 1;
nodes = (
"105 -11 OFFCURVE",
"-5 -15 OFFCURVE",
"20 78 CURVE SMOOTH",
"28 105 OFFCURVE",
"50 129 OFFCURVE",
"77 121 CURVE",
"80 127 OFFCURVE",
"74 147 OFFCURVE",
"45 142 CURVE",
"75 196 LINE SMOOTH",
"96 234 OFFCURVE",
"112 270 OFFCURVE",
"131 296 CURVE SMOOTH",
"146 316 OFFCURVE",
"182 350 OFFCURVE",
"207 334 CURVE",
"165 327 OFFCURVE",
"150 289 OFFCURVE",
"148 252 CURVE SMOOTH",
"145 216 OFFCURVE",
"153 120 OFFCURVE",
"131 58 CURVE SMOOTH"
);
}
);
width = 263;
}
);
note = s;
unicode = 0073;
},
{
glyphname = germandbls;
lastChange = "2021-09-23 18:48:50 +0000";
layers = (
{
hints = (
{
horizontal = 1;
place = "{-14, 19}";
type = Stem;
},
{
horizontal = 1;
place = "{50, 12}";
type = Stem;
},
{
horizontal = 1;
place = "{559, 13}";
type = Stem;
},
{
place = "{321, 38}";
type = Stem;
},
{
place = "{684, 39}";
type = Stem;
},
{
horizontal = 1;
place = "{-12, 21}";
type = Stem;
},
{
place = "{196, 12}";
type = Stem;
},
{
place = "{363, 44}";
type = Stem;
},
{
horizontal = 1;
place = "{-25, 14}";
type = Stem;
}
);
layerId = "32B14CDE-4F96-422E-BD5E-1145416534B1";
paths = (
{
closed = 1;
nodes = (
"-262 -115 OFFCURVE",
"-279 -106 OFFCURVE",
"-279 -141 CURVE SMOOTH",
"-279 -234 OFFCURVE",
"-94 -276 OFFCURVE",
"76 -4 CURVE SMOOTH",
"107 44 OFFCURVE",
"197 232 OFFCURVE",
"238 337 CURVE SMOOTH",
"286 462 OFFCURVE",
"342 606 OFFCURVE",
"428 606 CURVE SMOOTH",
"536 606 OFFCURVE",
"519 425 OFFCURVE",
"411 351 CURVE SMOOTH",
"407 348 LINE",
"349 362 OFFCURVE",
"305 287 OFFCURVE",
"267 209 CURVE SMOOTH",
"255 185 OFFCURVE",
"240 158 OFFCURVE",
"228 137 CURVE",
"193 127 OFFCURVE",
"135 -10 OFFCURVE",
"300 -10 CURVE SMOOTH",
"336 -10 OFFCURVE",
"367 -2 OFFCURVE",
"392 12 CURVE SMOOTH",
"464 51 OFFCURVE",
"502 133 OFFCURVE",
"542 207 CURVE SMOOTH",
"546 214 OFFCURVE",
"535 218 OFFCURVE",
"531 211 CURVE SMOOTH",
"499 151 OFFCURVE",
"456 61 OFFCURVE",
"391 23 CURVE SMOOTH",
"366 8 OFFCURVE",
"327 0 OFFCURVE",
"295 2 CURVE",
"337 15 OFFCURVE",
"368 42 OFFCURVE",
"385 92 CURVE SMOOTH",
"401 144 OFFCURVE",
"383 212 OFFCURVE",
"372 257 CURVE SMOOTH",
"362 300 OFFCURVE",
"390 333 OFFCURVE",
"418 326 CURVE SMOOTH",
"430 323 OFFCURVE",
"440 336 OFFCURVE",
"418 345 CURVE",
"423 348 OFFCURVE",
"435 354 OFFCURVE",
"455 370 CURVE SMOOTH",
"559 455 OFFCURVE",
"558 622 OFFCURVE",
"428 621 CURVE SMOOTH",
"304 621 OFFCURVE",
"251 481 OFFCURVE",
"190 346 CURVE SMOOTH",
"136 222 OFFCURVE",
"23 -37 OFFCURVE",
"-48 -121 CURVE SMOOTH",
"-130 -219 OFFCURVE",
"-262 -213 OFFCURVE",
"-262 -142 CURVE SMOOTH"
);
},
{
closed = 1;
nodes = (
"304 -11 OFFCURVE",
"194 -15 OFFCURVE",
"219 78 CURVE SMOOTH",
"227 105 OFFCURVE",
"249 129 OFFCURVE",
"276 121 CURVE",
"279 127 OFFCURVE",
"273 147 OFFCURVE",
"244 142 CURVE",
"274 196 LINE SMOOTH",
"295 234 OFFCURVE",
"311 270 OFFCURVE",
"330 296 CURVE SMOOTH",
"345 316 OFFCURVE",
"381 350 OFFCURVE",
"406 334 CURVE",
"364 327 OFFCURVE",
"349 289 OFFCURVE",
"347 252 CURVE SMOOTH",
"344 216 OFFCURVE",
"352 120 OFFCURVE",
"330 58 CURVE SMOOTH"
);
}
);
width = 462;
}
);
note = germandbls;
unicode = 00DF;
},
{
glyphname = t;
lastChange = "2021-09-23 18:48:50 +0000";
layers = (
{
hints = (
{
horizontal = 1;
place = "{-4, 23}";
type = Stem;
},
{
horizontal = 1;
place = "{287, 15}";
type = Stem;
},
{
place = "{15, 44}";
type = Stem;
},
{
place = "{74, 157}";
type = Stem;
}
);
layerId = "32B14CDE-4F96-422E-BD5E-1145416534B1";
paths = (
{
closed = 1;
nodes = (
"90 -4 OFFCURVE",
"123 26 OFFCURVE",
"143 48 CURVE SMOOTH",
"179 87 OFFCURVE",
"202 129 OFFCURVE",
"226 176 CURVE",
"227 177 OFFCURVE",
"236 195 OFFCURVE",
"237 195 CURVE",
"237 201 OFFCURVE",
"230 206 OFFCURVE",
"227 201 CURVE SMOOTH",
"200 148 OFFCURVE",
"170 94 OFFCURVE",
"128 51 CURVE SMOOTH",
"96 18 OFFCURVE",
"49 -5 OFFCURVE",
"59 62 CURVE SMOOTH",
"69 131 OFFCURVE",
"106 213 OFFCURVE",
"147 287 CURVE",
"221 287 LINE SMOOTH",
"229 287 OFFCURVE",
"235 302 OFFCURVE",
"227 302 CURVE SMOOTH",
"156 302 LINE",
"195 371 OFFCURVE",
"236 432 OFFCURVE",
"257 468 CURVE",
"236 458 OFFCURVE",
"207 451 OFFCURVE",
"185 446 CURVE",
"113 302 LINE",
"84 302 LINE SMOOTH",
"76 302 OFFCURVE",
"70 287 OFFCURVE",
"78 287 CURVE SMOOTH",
"105 287 LINE",
"80 238 OFFCURVE",
"56 188 OFFCURVE",
"28 115 CURVE SMOOTH",
"8 66 OFFCURVE",
"7 -4 OFFCURVE",
"58 -4 CURVE SMOOTH"
);
}
);
width = 164;
}
);
note = t;
unicode = 0074;
},
{
glyphname = u;
lastChange = "2021-09-23 18:48:50 +0000";
layers = (
{
hints = (
{
horizontal = 1;
place = "{-5, 16}";
type = Stem;
},
{
horizontal = 1;
place = "{283, 24}";
type = Stem;
},
{
place = "{70, 47}";
type = Stem;
},
{
place = "{150, 46}";
type = Stem;
},
{
place = "{239, 37}";
type = Stem;
},
{
place = "{450, 10}";
type = Stem;
}
);
layerId = "32B14CDE-4F96-422E-BD5E-1145416534B1";
paths = (
{
closed = 1;
nodes = (
"164 -5 OFFCURVE",
"205 38 OFFCURVE",
"255 124 CURVE",
"233 54 OFFCURVE",
"230 -5 OFFCURVE",
"276 -5 CURVE SMOOTH",
"340 -5 OFFCURVE",
"388 65 OFFCURVE",
"460 206 CURVE SMOOTH",
"462 210 OFFCURVE",
"452 216 OFFCURVE",
"450 210 CURVE",
"423 158 OFFCURVE",
"402 120 OFFCURVE",
"382 91 CURVE SMOOTH",
"367 69 OFFCURVE",
"352 49 OFFCURVE",
"335 34 CURVE SMOOTH",
"267 -26 OFFCURVE",
"266 29 OFFCURVE",
"294 110 CURVE SMOOTH",
"322 193 OFFCURVE",
"374 300 OFFCURVE",
"394 321 CURVE",
"372 311 OFFCURVE",
"342 302 OFFCURVE",
"319 297 CURVE",
"319 297 OFFCURVE",
"296 226 OFFCURVE",
"281 194 CURVE SMOOTH",
"242 112 OFFCURVE",
"211 70 OFFCURVE",
"175 38 CURVE SMOOTH",
"111 -18 OFFCURVE",
"96 14 OFFCURVE",
"152 146 CURVE SMOOTH",
"193 244 OFFCURVE",
"210 291 OFFCURVE",
"182 302 CURVE SMOOTH",
"123 325 OFFCURVE",
"91 258 OFFCURVE",
"67 210 CURVE SMOOTH",
"49 173 OFFCURVE",
"23 123 OFFCURVE",
"-2 88 CURVE",
"-4 86 OFFCURVE",
"5 80 OFFCURVE",
"7 82 CURVE",
"32 117 OFFCURVE",
"59 166 OFFCURVE",
"79 205 CURVE SMOOTH",
"90 227 OFFCURVE",
"116 283 OFFCURVE",
"140 283 CURVE SMOOTH",
"170 283 OFFCURVE",
"123 184 OFFCURVE",
"101 139 CURVE SMOOTH",
"58 48 OFFCURVE",
"59 -5 OFFCURVE",
"109 -5 CURVE SMOOTH"
);
}
);
width = 382;
}
);
note = u;
unicode = 0075;
},
{
glyphname = v;
lastChange = "2021-09-23 18:48:50 +0000";
layers = (
{
background = {
paths = (
{
closed = 0;
nodes = (
"241 101 LINE",
"244 87 OFFCURVE",
"258 59 OFFCURVE",
"283 59 CURVE SMOOTH",
"325 59 OFFCURVE",
"345 110 OFFCURVE",
"375 163 CURVE SMOOTH",
"379 170 OFFCURVE",
"371 176 OFFCURVE",
"366 169 CURVE",
"346 132 OFFCURVE",
"315 70 OFFCURVE",
"286 70 CURVE SMOOTH",
"260 70 OFFCURVE",
"251 116 OFFCURVE",
"251 116 CURVE",
"261 130 OFFCURVE",
"320 237 OFFCURVE",
"319 280 CURVE SMOOTH",
"317 335 OFFCURVE",
"243 305 OFFCURVE",
"234 202 CURVE SMOOTH",
"231 177 OFFCURVE",
"232 133 OFFCURVE",
"236 119 CURVE"
);
}
);
};
hints = (
{
horizontal = 1;
place = "{-7, 14}";
type = Stem;
},
{
horizontal = 1;
place = "{291, 18}";
type = Stem;
}
);
layerId = "32B14CDE-4F96-422E-BD5E-1145416534B1";
paths = (
{
closed = 1;
nodes = (
"164 -5 OFFCURVE",
"221 62 OFFCURVE",
"241 101 CURVE",
"244 87 OFFCURVE",
"258 60 OFFCURVE",
"283 60 CURVE SMOOTH",
"325 60 OFFCURVE",
"345 110 OFFCURVE",
"375 163 CURVE SMOOTH",
"379 170 OFFCURVE",
"371 176 OFFCURVE",
"366 169 CURVE",
"346 132 OFFCURVE",
"315 71 OFFCURVE",
"286 71 CURVE SMOOTH",
"260 71 OFFCURVE",
"251 116 OFFCURVE",
"251 116 CURVE",
"261 130 OFFCURVE",
"320 237 OFFCURVE",
"319 280 CURVE SMOOTH",
"317 335 OFFCURVE",
"243 305 OFFCURVE",
"234 202 CURVE SMOOTH",
"231 177 OFFCURVE",
"231 133 OFFCURVE",
"235 119 CURVE",
"229 106 OFFCURVE",
"211 70 OFFCURVE",
"175 38 CURVE SMOOTH",
"111 -18 OFFCURVE",
"96 14 OFFCURVE",
"152 146 CURVE SMOOTH",
"173 196 OFFCURVE",
"185 233 OFFCURVE",
"191 258 CURVE SMOOTH",
"203 311 OFFCURVE",
"158 323 OFFCURVE",
"121 292 CURVE SMOOTH",
"98 272 OFFCURVE",
"82 239 OFFCURVE",
"68 211 CURVE SMOOTH",
"50 174 OFFCURVE",
"24 126 OFFCURVE",
"-1 88 CURVE",
"-3 86 OFFCURVE",
"5 80 OFFCURVE",
"7 82 CURVE",
"30 116 OFFCURVE",
"59 168 OFFCURVE",
"79 207 CURVE SMOOTH",
"90 229 OFFCURVE",
"116 283 OFFCURVE",
"140 283 CURVE SMOOTH",
"170 283 OFFCURVE",
"123 184 OFFCURVE",
"101 139 CURVE SMOOTH",
"58 48 OFFCURVE",
"59 -5 OFFCURVE",
"109 -5 CURVE SMOOTH"
);
}
);
width = 319;
}
);
note = v;
unicode = 0076;
},
{
glyphname = w;
lastChange = "2021-09-23 18:48:50 +0000";
layers = (
{
hints = (
{
horizontal = 1;
place = "{-10, 14}";
type = Stem;
},
{
horizontal = 1;
place = "{291, 18}";
type = Stem;
}
);
layerId = "32B14CDE-4F96-422E-BD5E-1145416534B1";
paths = (
{
closed = 1;
nodes = (
"164 -5 OFFCURVE",
"215 41 OFFCURVE",
"257 106 CURVE",
"237 43 OFFCURVE",
"240 -5 OFFCURVE",
"286 -5 CURVE SMOOTH",
"356 -5 OFFCURVE",
"411 67 OFFCURVE",
"433 101 CURVE",
"436 87 OFFCURVE",
"450 59 OFFCURVE",
"475 59 CURVE SMOOTH",
"517 59 OFFCURVE",
"537 110 OFFCURVE",
"567 163 CURVE SMOOTH",
"571 170 OFFCURVE",
"563 176 OFFCURVE",
"558 169 CURVE",
"538 132 OFFCURVE",
"507 70 OFFCURVE",
"478 70 CURVE SMOOTH",
"452 70 OFFCURVE",
"443 116 OFFCURVE",
"443 116 CURVE",
"453 130 OFFCURVE",
"512 237 OFFCURVE",
"511 280 CURVE SMOOTH",
"509 335 OFFCURVE",
"435 305 OFFCURVE",
"426 202 CURVE SMOOTH",
"423 177 OFFCURVE",
"424 133 OFFCURVE",
"428 119 CURVE",
"421 106 OFFCURVE",
"402 70 OFFCURVE",
"360 38 CURVE SMOOTH",
"285 -18 OFFCURVE",
"261 14 OFFCURVE",
"318 146 CURVE SMOOTH",
"339 196 OFFCURVE",
"355 233 OFFCURVE",
"360 258 CURVE SMOOTH",
"369 309 OFFCURVE",
"304 339 OFFCURVE",
"286 184 CURVE",
"250 109 OFFCURVE",
"219 68 OFFCURVE",
"185 38 CURVE SMOOTH",
"121 -18 OFFCURVE",
"106 14 OFFCURVE",
"162 146 CURVE SMOOTH",
"203 244 OFFCURVE",
"210 291 OFFCURVE",
"182 302 CURVE SMOOTH",
"123 325 OFFCURVE",
"91 260 OFFCURVE",
"68 212 CURVE SMOOTH",
"49 175 OFFCURVE",
"23 125 OFFCURVE",
"-2 88 CURVE",
"-4 86 OFFCURVE",
"7 83 OFFCURVE",
"9 85 CURVE",
"33 120 OFFCURVE",
"59 167 OFFCURVE",
"79 206 CURVE SMOOTH",
"90 228 OFFCURVE",
"116 283 OFFCURVE",
"140 283 CURVE SMOOTH",
"170 283 OFFCURVE",
"133 184 OFFCURVE",
"111 139 CURVE SMOOTH",
"68 48 OFFCURVE",
"69 -5 OFFCURVE",
"119 -5 CURVE SMOOTH"
);
}
);
width = 511;
}
);
note = w;
unicode = 0077;
},
{
glyphname = x;
lastChange = "2021-09-23 18:48:50 +0000";
layers = (
{
hints = (
{
horizontal = 1;
place = "{300, 18}";
type = Stem;
},
{
place = "{192, 43}";
type = Stem;
}
);
layerId = "32B14CDE-4F96-422E-BD5E-1145416534B1";
paths = (
{
closed = 1;
nodes = (
"-28 -87 OFFCURVE",
"-11 -85 OFFCURVE",
"0 -62 CURVE SMOOTH",
"30 0 OFFCURVE",
"134 121 OFFCURVE",
"146 132 CURVE",
"144 99 OFFCURVE",
"146 64 OFFCURVE",
"154 38 CURVE SMOOTH",
"162 9 OFFCURVE",
"178 -2 OFFCURVE",
"197 -2 CURVE SMOOTH",
"231 -2 OFFCURVE",
"253 21 OFFCURVE",
"271 45 CURVE SMOOTH",
"295 77 OFFCURVE",
"324 124 OFFCURVE",
"359 192 CURVE",
"363 198 OFFCURVE",
"353 203 OFFCURVE",
"350 196 CURVE",
"324 150 OFFCURVE",
"286 85 OFFCURVE",
"258 49 CURVE SMOOTH",
"243 31 OFFCURVE",
"229 20 OFFCURVE",
"218 20 CURVE SMOOTH",
"206 21 OFFCURVE",
"196 33 OFFCURVE",
"191 60 CURVE SMOOTH",
"186 88 OFFCURVE",
"188 152 OFFCURVE",
"190 163 CURVE",
"224 191 OFFCURVE",
"288 258 OFFCURVE",
"300 302 CURVE SMOOTH",
"304 313 OFFCURVE",
"293 325 OFFCURVE",
"285 315 CURVE SMOOTH",
"277 303 OFFCURVE",
"279 295 OFFCURVE",
"275 283 CURVE SMOOTH",
"264 248 OFFCURVE",
"220 205 OFFCURVE",
"191 180 CURVE",
"191 200 OFFCURVE",
"205 269 OFFCURVE",
"179 285 CURVE SMOOTH",
"167 292 OFFCURVE",
"142 292 OFFCURVE",
"120 280 CURVE SMOOTH",
"95 266 OFFCURVE",
"73 220 OFFCURVE",
"57 190 CURVE SMOOTH",
"46 168 OFFCURVE",
"31 142 OFFCURVE",
"12 110 CURVE",
"8 105 OFFCURVE",
"18 98 OFFCURVE",
"25 110 CURVE SMOOTH",
"38 131 OFFCURVE",
"53 157 OFFCURVE",
"66 183 CURVE SMOOTH",
"77 204 OFFCURVE",
"105 249 OFFCURVE",
"123 260 CURVE SMOOTH",
"136 268 OFFCURVE",
"147 265 OFFCURVE",
"148 252 CURVE SMOOTH",
"150 237 OFFCURVE",
"151 204 OFFCURVE",
"147 147 CURVE",
"118 122 OFFCURVE",
"13 13 OFFCURVE",
"-20 -68 CURVE SMOOTH"
);
}
);
width = 287;
}
);
note = x;
unicode = 0078;
},
{
glyphname = y;
lastChange = "2021-09-23 18:48:50 +0000";
layers = (
{
hints = (
{
horizontal = 1;
place = "{277, 18}";
type = Stem;
}
);
layerId = "32B14CDE-4F96-422E-BD5E-1145416534B1";
paths = (
{
closed = 1;
nodes = (
"151 -249 OFFCURVE",
"203 -116 OFFCURVE",
"239 -25 CURVE",
"341 36 OFFCURVE",
"367 77 OFFCURVE",
"425 186 CURVE SMOOTH",
"429 193 OFFCURVE",
"420 198 OFFCURVE",
"416 191 CURVE SMOOTH",
"363 93 OFFCURVE",
"339 52 OFFCURVE",
"245 -8 CURVE",
"269 57 OFFCURVE",
"279 100 OFFCURVE",
"307 171 CURVE SMOOTH",
"324 213 OFFCURVE",
"359 296 OFFCURVE",
"382 320 CURVE",
"360 311 OFFCURVE",
"329 302 OFFCURVE",
"307 297 CURVE",
"293 252 OFFCURVE",
"229 91 OFFCURVE",
"173 41 CURVE SMOOTH",
"109 -15 OFFCURVE",
"96 14 OFFCURVE",
"152 146 CURVE SMOOTH",
"173 196 OFFCURVE",
"185 233 OFFCURVE",
"191 258 CURVE SMOOTH",
"203 311 OFFCURVE",
"158 323 OFFCURVE",
"121 292 CURVE SMOOTH",
"98 272 OFFCURVE",
"81 238 OFFCURVE",
"68 210 CURVE SMOOTH",
"49 173 OFFCURVE",
"23 123 OFFCURVE",
"-3 88 CURVE SMOOTH",
"-4 86 OFFCURVE",
"5 79 OFFCURVE",
"7 81 CURVE",
"32 116 OFFCURVE",
"59 166 OFFCURVE",
"79 205 CURVE SMOOTH",
"90 227 OFFCURVE",
"116 283 OFFCURVE",
"140 283 CURVE SMOOTH",
"170 283 OFFCURVE",
"123 184 OFFCURVE",
"101 139 CURVE SMOOTH",
"58 48 OFFCURVE",
"59 -5 OFFCURVE",
"109 -5 CURVE SMOOTH",
"172 -5 OFFCURVE",
"232 94 OFFCURVE",
"242 110 CURVE",
"242 110 OFFCURVE",
"205 0 OFFCURVE",
"195 -27 CURVE",
"146 -52 OFFCURVE",
"42 -170 OFFCURVE",
"-10 -266 CURVE SMOOTH",
"-95 -420 OFFCURVE",
"14 -441 OFFCURVE",
"94 -329 CURVE SMOOTH"
);
},
{
closed = 1;
nodes = (
"-6 -442 OFFCURVE",
"-49 -384 OFFCURVE",
"4 -277 CURVE SMOOTH",
"47 -192 OFFCURVE",
"134 -81 OFFCURVE",
"189 -49 CURVE",
"178 -76 OFFCURVE",
"120 -220 OFFCURVE",
"69 -310 CURVE SMOOTH"
);
}
);
width = 357;
}
);
note = y;
unicode = 0079;
},
{
glyphname = z;
lastChange = "2021-09-23 18:48:50 +0000";
layers = (
{
hints = (
{
horizontal = 1;
place = "{287, 18}";
type = Stem;
},
{
place = "{35, 12}";
type = Stem;
}
);
layerId = "32B14CDE-4F96-422E-BD5E-1145416534B1";
paths = (
{
closed = 1;
nodes = (
"11 -389 OFFCURVE",
"121 -274 OFFCURVE",
"166 -200 CURVE SMOOTH",
"204 -136 OFFCURVE",
"230 -64 OFFCURVE",
"237 -14 CURVE",
"291 9 OFFCURVE",
"359 143 OFFCURVE",
"383 183 CURVE SMOOTH",
"388 190 OFFCURVE",
"379 195 OFFCURVE",
"374 187 CURVE SMOOTH",
"318 90 OFFCURVE",
"280 23 OFFCURVE",
"239 -2 CURVE",
"241 29 OFFCURVE",
"239 78 OFFCURVE",
"186 88 CURVE",
"208 109 OFFCURVE",
"226 134 OFFCURVE",
"241 161 CURVE SMOOTH",
"321 305 OFFCURVE",
"150 362 OFFCURVE",
"68 210 CURVE SMOOTH",
"46 170 OFFCURVE",
"30 139 OFFCURVE",
"20 123 CURVE",
"18 121 OFFCURVE",
"27 114 OFFCURVE",
"29 116 CURVE",
"78 205 LINE SMOOTH",
"134 307 OFFCURVE",
"240 310 OFFCURVE",
"210 175 CURVE SMOOTH",
"202 142 OFFCURVE",
"184 110 OFFCURVE",
"159 89 CURVE",
"134 88 OFFCURVE",
"112 85 OFFCURVE",
"88 72 CURVE SMOOTH",
"58 55 OFFCURVE",
"70 30 OFFCURVE",
"98 37 CURVE SMOOTH",
"122 44 OFFCURVE",
"145 55 OFFCURVE",
"166 71 CURVE",
"206 57 OFFCURVE",
"200 8 OFFCURVE",
"193 -28 CURVE",
"141 -56 OFFCURVE",
"24 -133 OFFCURVE",
"-44 -202 CURVE SMOOTH",
"-86 -245 OFFCURVE",
"-110 -287 OFFCURVE",
"-118 -321 CURVE SMOOTH",
"-130 -375 OFFCURVE",
"-108 -392 OFFCURVE",
"-78 -391 CURVE SMOOTH"
);
},
{
closed = 1;
nodes = (
"-63 -451 OFFCURVE",
"-216 -392 OFFCURVE",
"-6 -189 CURVE SMOOTH",
"79 -107 OFFCURVE",
"147 -65 OFFCURVE",
"189 -42 CURVE",
"172 -112 OFFCURVE",
"134 -197 OFFCURVE",
"82 -264 CURVE SMOOTH"
);
}
);
width = 318;
}
);
note = z;
unicode = 007A;
},
{
color = 9;
glyphname = fi;
lastChange = "2021-09-23 18:57:20 +0000";
layers = (
{
hints = (
{
horizontal = 1;
place = "{-306, 10}";
type = Stem;
},
{
horizontal = 1;
place = "{-8, 326}";
type = Stem;
},
{
horizontal = 1;
place = "{419, 64}";
type = Stem;
},
{
place = "{-2, 37}";
type = Stem;
},
{
place = "{316, 35}";
type = Stem;
},
{
place = "{472, 63}";
type = Stem;
}
);
layerId = "32B14CDE-4F96-422E-BD5E-1145416534B1";
paths = (
{
closed = 1;
nodes = (
"85 -306 OFFCURVE",
"98 -300 OFFCURVE",
"108 -292 CURVE SMOOTH",
"154 -259 OFFCURVE",
"180 -193 OFFCURVE",
"189 -139 CURVE SMOOTH",
"192 -123 OFFCURVE",
"194 -106 OFFCURVE",
"194 -89 CURVE SMOOTH",
"194 -55 OFFCURVE",
"186 -12 OFFCURVE",
"167 17 CURVE",
"234 14 OFFCURVE",
"286 57 OFFCURVE",
"323 110 CURVE",
"319 93 OFFCURVE",
"317 77 OFFCURVE",
"317 63 CURVE SMOOTH",
"317 18 OFFCURVE",
"342 -8 OFFCURVE",
"387 -8 CURVE SMOOTH",
"466 -8 OFFCURVE",
"519 101 OFFCURVE",
"544 162 CURVE",
"543 164 LINE",
"540 166 LINE",
"538 166 LINE",
"516 112 OFFCURVE",
"461 -2 OFFCURVE",
"390 -2 CURVE SMOOTH",
"366 -2 OFFCURVE",
"351 7 OFFCURVE",
"351 33 CURVE SMOOTH",
"351 75 OFFCURVE",
"385 136 OFFCURVE",
"405 174 CURVE SMOOTH",
"490 339 LINE",
"488 341 LINE",
"475 332 OFFCURVE",
"455 318 OFFCURVE",
"438 318 CURVE SMOOTH",
"435 318 OFFCURVE",
"428 319 OFFCURVE",
"426 322 CURVE",
"423 322 LINE",
"347 175 LINE SMOOTH",
"341 162 OFFCURVE",
"334 146 OFFCURVE",
"329 130 CURVE",
"295 73 OFFCURVE",
"237 20 OFFCURVE",
"170 23 CURVE SMOOTH",
"162 23 LINE",
"155 36 OFFCURVE",
"137 55 OFFCURVE",
"122 55 CURVE SMOOTH",
"114 55 OFFCURVE",
"108 52 OFFCURVE",
"108 43 CURVE SMOOTH",
"108 23 OFFCURVE",
"141 18 OFFCURVE",
"157 17 CURVE",
"178 -11 OFFCURVE",
"187 -46 OFFCURVE",
"187 -81 CURVE SMOOTH",
"187 -101 OFFCURVE",
"184 -121 OFFCURVE",
"180 -140 CURVE SMOOTH",
"170 -184 OFFCURVE",
"134 -296 OFFCURVE",
"74 -296 CURVE SMOOTH",
"40 -296 OFFCURVE",
"35 -250 OFFCURVE",
"35 -225 CURVE SMOOTH",
"35 -126 OFFCURVE",
"95 54 OFFCURVE",
"133 150 CURVE",
"132 150 LINE",
"220 231 OFFCURVE",
"463 456 OFFCURVE",
"463 578 CURVE SMOOTH",
"463 609 OFFCURVE",
"446 621 OFFCURVE",
"417 621 CURVE SMOOTH",
"388 621 OFFCURVE",
"360 607 OFFCURVE",
"337 590 CURVE SMOOTH",
"223 509 OFFCURVE",
"136 319 OFFCURVE",
"87 194 CURVE SMOOTH",
"47 89 OFFCURVE",
"-2 -64 OFFCURVE",
"-2 -177 CURVE SMOOTH",
"-2 -227 OFFCURVE",
"7 -293 OFFCURVE",
"65 -305 CURVE",
"67 -306 OFFCURVE",
"69 -306 OFFCURVE",
"72 -306 CURVE SMOOTH"
);
},
{
closed = 1;
nodes = (
"174 261 OFFCURVE",
"315 612 OFFCURVE",
"423 612 CURVE SMOOTH",
"444 612 OFFCURVE",
"453 602 OFFCURVE",
"453 580 CURVE SMOOTH",
"453 470 OFFCURVE",
"223 245 OFFCURVE",
"140 167 CURVE"
);
},
{
closed = 1;
nodes = (
"523 419 OFFCURVE",
"535 435 OFFCURVE",
"535 453 CURVE SMOOTH",
"535 471 OFFCURVE",
"521 483 OFFCURVE",
"503 483 CURVE SMOOTH",
"485 483 OFFCURVE",
"472 467 OFFCURVE",
"472 450 CURVE SMOOTH",
"472 432 OFFCURVE",
"487 419 OFFCURVE",
"505 419 CURVE SMOOTH"
);
}
);
width = 456;
}
);
note = fi;
unicode = FB01;
},
{
color = 9;
glyphname = fl;
lastChange = "2021-09-23 18:57:20 +0000";
layers = (
{
hints = (
{
horizontal = 1;
place = "{-306, 10}";
type = Stem;
},
{
place = "{-2, 37}";
type = Stem;
},
{
place = "{333, 41}";
type = Stem;
},
{
place = "{454, 211}";
type = Stem;
}
);
layerId = "32B14CDE-4F96-422E-BD5E-1145416534B1";
paths = (
{
closed = 1;
nodes = (
"86 -306 OFFCURVE",
"99 -299 OFFCURVE",
"110 -291 CURVE SMOOTH",
"155 -258 OFFCURVE",
"180 -192 OFFCURVE",
"189 -139 CURVE SMOOTH",
"192 -123 OFFCURVE",
"194 -106 OFFCURVE",
"194 -89 CURVE SMOOTH",
"194 -55 OFFCURVE",
"186 -12 OFFCURVE",
"167 17 CURVE",
"241 14 OFFCURVE",
"298 68 OFFCURVE",
"335 127 CURVE",
"334 118 OFFCURVE",
"334 108 OFFCURVE",
"334 99 CURVE SMOOTH",
"334 46 OFFCURVE",
"351 -7 OFFCURVE",
"413 -7 CURVE SMOOTH",
"486 -7 OFFCURVE",
"544 106 OFFCURVE",
"573 161 CURVE",
"573 163 LINE",
"568 164 LINE",
"566 163 LINE",
"544 117 OFFCURVE",
"479 0 OFFCURVE",
"417 0 CURVE SMOOTH",
"382 0 OFFCURVE",
"374 37 OFFCURVE",
"374 65 CURVE SMOOTH",
"374 99 OFFCURVE",
"383 134 OFFCURVE",
"392 166 CURVE",
"493 258 OFFCURVE",
"590 387 OFFCURVE",
"642 514 CURVE SMOOTH",
"651 537 OFFCURVE",
"665 575 OFFCURVE",
"665 600 CURVE SMOOTH",
"665 616 OFFCURVE",
"658 621 OFFCURVE",
"643 621 CURVE SMOOTH",
"562 621 OFFCURVE",
"455 449 OFFCURVE",
"422 390 CURVE SMOOTH",
"384 321 OFFCURVE",
"348 222 OFFCURVE",
"337 144 CURVE",
"303 84 OFFCURVE",
"245 20 OFFCURVE",
"170 23 CURVE SMOOTH",
"162 23 LINE",
"155 36 OFFCURVE",
"137 55 OFFCURVE",
"122 55 CURVE SMOOTH",
"114 55 OFFCURVE",
"108 52 OFFCURVE",
"108 43 CURVE SMOOTH",
"108 23 OFFCURVE",
"141 18 OFFCURVE",
"157 17 CURVE",
"178 -11 OFFCURVE",
"187 -46 OFFCURVE",
"187 -81 CURVE SMOOTH",
"187 -101 OFFCURVE",
"184 -121 OFFCURVE",
"180 -140 CURVE SMOOTH",
"170 -184 OFFCURVE",
"134 -296 OFFCURVE",
"74 -296 CURVE SMOOTH",
"40 -296 OFFCURVE",
"35 -250 OFFCURVE",
"35 -225 CURVE SMOOTH",
"35 -126 OFFCURVE",
"95 54 OFFCURVE",
"133 150 CURVE",
"132 150 LINE",
"221 232 OFFCURVE",
"463 456 OFFCURVE",
"463 578 CURVE SMOOTH",
"463 609 OFFCURVE",
"446 621 OFFCURVE",
"417 621 CURVE SMOOTH",
"388 621 OFFCURVE",
"360 607 OFFCURVE",
"337 590 CURVE SMOOTH",
"223 509 OFFCURVE",
"136 319 OFFCURVE",
"87 194 CURVE SMOOTH",
"47 89 OFFCURVE",
"-2 -64 OFFCURVE",
"-2 -177 CURVE SMOOTH",
"-2 -228 OFFCURVE",
"7 -293 OFFCURVE",
"65 -305 CURVE",
"67 -306 OFFCURVE",
"69 -306 OFFCURVE",
"72 -306 CURVE SMOOTH"
);
},
{
closed = 1;
nodes = (
"174 261 OFFCURVE",
"315 612 OFFCURVE",
"423 612 CURVE SMOOTH",
"444 612 OFFCURVE",
"453 602 OFFCURVE",
"453 580 CURVE SMOOTH",
"453 470 OFFCURVE",
"223 245 OFFCURVE",
"140 167 CURVE"
);
},
{
closed = 1;
nodes = (
"414 241 OFFCURVE",
"440 305 OFFCURVE",
"469 367 CURVE SMOOTH",
"482 397 OFFCURVE",
"497 425 OFFCURVE",
"514 454 CURVE SMOOTH",
"530 480 OFFCURVE",
"612 613 OFFCURVE",
"645 613 CURVE SMOOTH",
"654 613 OFFCURVE",
"657 604 OFFCURVE",
"657 596 CURVE SMOOTH",
"657 525 OFFCURVE",
"528 332 OFFCURVE",
"484 275 CURVE SMOOTH",
"457 240 OFFCURVE",
"428 205 OFFCURVE",
"395 176 CURVE"
);
}
);
width = 484;
}
);
note = fl;
unicode = FB02;
},
{
glyphname = ordfeminine;
lastChange = "2021-09-23 18:48:50 +0000";
layers = (
{
hints = (
{
horizontal = 1;
place = "{420, 8}";
type = Stem;
},
{
horizontal = 1;
place = "{511, 13}";
type = Stem;
},
{
place = "{47, 23}";
type = Stem;
},
{
place = "{125, 23}";
type = Stem;
},
{
horizontal = 1;
place = "{421, 11}";
type = Stem;
},
{
horizontal = 1;
place = "{581, 10.8}";
type = Stem;
}
);
layerId = "32B14CDE-4F96-422E-BD5E-1145416534B1";
paths = (
{
closed = 1;
nodes = (
"114 411 OFFCURVE",
"144 455 OFFCURVE",
"153 478 CURVE",
"149 479 LINE",
"142 457 OFFCURVE",
"139 412 OFFCURVE",
"170 412 CURVE SMOOTH",
"185 412 OFFCURVE",
"203 422 OFFCURVE",
"223 443 CURVE SMOOTH",
"244 467 OFFCURVE",
"257 490 OFFCURVE",
"272 518 CURVE SMOOTH",
"273 520 OFFCURVE",
"276 527 OFFCURVE",
"279 532 CURVE",
"280 536 OFFCURVE",
"277 540 OFFCURVE",
"273 540 CURVE SMOOTH",
"272 540 OFFCURVE",
"271 539 OFFCURVE",
"270 538 CURVE",
"254 506 OFFCURVE",
"236 474 OFFCURVE",
"211 448 CURVE SMOOTH",
"200 437 OFFCURVE",
"187 428 OFFCURVE",
"181 428 CURVE SMOOTH",
"175 428 OFFCURVE",
"175 439 OFFCURVE",
"175 445 CURVE SMOOTH",
"177 464 OFFCURVE",
"186 491 OFFCURVE",
"196 510 CURVE SMOOTH",
"200 518 OFFCURVE",
"204 525 OFFCURVE",
"208 533 CURVE SMOOTH",
"216 551 OFFCURVE",
"225 568 OFFCURVE",
"234 584 CURVE",
"232 587 LINE",
"218 581 OFFCURVE",
"204 577 OFFCURVE",
"190 574 CURVE",
"164 519 LINE SMOOTH",
"153 496 OFFCURVE",
"116 424 OFFCURVE",
"95 424 CURVE SMOOTH",
"56 424 OFFCURVE",
"103 593 OFFCURVE",
"204 593 CURVE SMOOTH",
"229 593 OFFCURVE",
"237 601 OFFCURVE",
"214 603 CURVE",
"208 605 OFFCURVE",
"201 605 OFFCURVE",
"194 605 CURVE SMOOTH",
"142 605 OFFCURVE",
"93 572 OFFCURVE",
"68 521 CURVE SMOOTH",
"53 490 OFFCURVE",
"29 411 OFFCURVE",
"87 411 CURVE SMOOTH"
);
}
);
width = 329;
}
);
note = ordfeminine;
unicode = 00AA;
},
{
glyphname = ordmasculine;
lastChange = "2021-09-23 18:48:50 +0000";
layers = (
{
hints = (
{
horizontal = 1;
place = "{444, 8}";
type = Stem;
},
{
horizontal = 1;
place = "{572, 8}";
type = Stem;
},
{
place = "{54, 21}";
type = Stem;
},
{
place = "{111, 10}";
type = Stem;
},
{
place = "{157, 7}";
type = Stem;
},
{
place = "{117, 8}";
type = Stem;
},
{
horizontal = 1;
place = "{424, 8}";
type = Stem;
},
{
horizontal = 1;
place = "{422, 9}";
type = Stem;
},
{
horizontal = 1;
place = "{510.2, -20}";
target = down;
type = TopGhost;
},
{
horizontal = 1;
place = "{600.2, 9}";
type = Stem;
},
{
place = "{49, 25.8}";
type = Stem;
},
{
place = "{173.8, 8.4}";
type = Stem;
},
{
horizontal = 1;
place = "{446, 9}";
type = Stem;
},
{
place = "{125.2, 9.6}";
type = Stem;
}
);
layerId = "32B14CDE-4F96-422E-BD5E-1145416534B1";
paths = (
{
closed = 1;
nodes = (
"102 420 OFFCURVE",
"118 431 OFFCURVE",
"134 451 CURVE",
"146 440 OFFCURVE",
"163 442 OFFCURVE",
"179 457 CURVE SMOOTH",
"202 479 OFFCURVE",
"222 518 OFFCURVE",
"234 545 CURVE SMOOTH",
"237 552 OFFCURVE",
"230 558 OFFCURVE",
"226 551 CURVE SMOOTH",
"213 527 OFFCURVE",
"173 438 OFFCURVE",
"141 460 CURVE",
"152 474 OFFCURVE",
"162 492 OFFCURVE",
"171 511 CURVE SMOOTH",
"186 541 OFFCURVE",
"205 611 OFFCURVE",
"155 611 CURVE SMOOTH",
"125 611 OFFCURVE",
"88 577 OFFCURVE",
"68 530 CURVE SMOOTH",
"54 499 OFFCURVE",
"28 420 OFFCURVE",
"87 420 CURVE SMOOTH"
);
},
{
closed = 1;
nodes = (
"47 433 OFFCURVE",
"124 598 OFFCURVE",
"159 598 CURVE SMOOTH",
"185 598 OFFCURVE",
"176 555 OFFCURVE",
"156 511 CURVE",
"160 510 LINE",
"165 537 OFFCURVE",
"135 542 OFFCURVE",
"123 507 CURVE SMOOTH",
"117 489 OFFCURVE",
"118 471 OFFCURVE",
"126 460 CURVE",
"113 443 OFFCURVE",
"102 433 OFFCURVE",
"94 433 CURVE SMOOTH"
);
}
);
width = 285;
}
);
note = ordmasculine;
unicode = 00BA;
},
{
glyphname = Omega;
lastChange = "2021-09-23 20:14:37 +0000";
layers = (
{
layerId = "32B14CDE-4F96-422E-BD5E-1145416534B1";
paths = (
{
closed = 1;
nodes = (
"259 28 OFFCURVE",
"278 16 OFFCURVE",
"286 10 CURVE",
"71 16 LINE",
"67 0 LINE",
"298 0 LINE",
"305 13 LINE",
"239 59 OFFCURVE",
"146 213 OFFCURVE",
"189 403 CURVE SMOOTH",
"221 553 OFFCURVE",
"320 722 OFFCURVE",
"542 722 CURVE SMOOTH",
"782 722 OFFCURVE",
"790 526 OFFCURVE",
"741 376 CURVE SMOOTH",
"673 176 OFFCURVE",
"537 59 OFFCURVE",
"453 13 CURVE",
"449 0 LINE",
"691 0 LINE",
"695 16 LINE",
"474 10 LINE",
"484 18 OFFCURVE",
"508 31 OFFCURVE",
"519 39 CURVE SMOOTH",
"595 89 OFFCURVE",
"742 161 OFFCURVE",
"815 374 CURVE SMOOTH",
"883 579 OFFCURVE",
"750 736 OFFCURVE",
"542 736 CURVE SMOOTH",
"331 736 OFFCURVE",
"165 623 OFFCURVE",
"121 412 CURVE SMOOTH",
"81 229 OFFCURVE",
"180 98 OFFCURVE",
"247 39 CURVE SMOOTH"
);
}
);
width = 879;
}
);
unicode = 03A9;
},
{
glyphname = pi;
lastChange = "2021-09-23 18:48:50 +0000";
layers = (
{
hints = (
{
horizontal = 1;
place = "{-3, 21}";
target = up;
type = BottomGhost;
},
{
horizontal = 1;
place = "{270, 44}";
type = Stem;
},
{
place = "{61, 345}";
type = Stem;
},
{
horizontal = 1;
place = "{322, 45}";
type = Stem;
}
);
layerId = "32B14CDE-4F96-422E-BD5E-1145416534B1";
paths = (
{
closed = 1;
nodes = (
"97 -6 LINE",
"165 316 LINE",
"207 304 OFFCURVE",
"247 281 OFFCURVE",
"290 272 CURVE",
"231 -3 LINE",
"249 -3 LINE",
"307 270 LINE",
"316 270 OFFCURVE",
"326 271 OFFCURVE",
"335 274 CURVE",
"334 274 LINE",
"358 284 OFFCURVE",
"408 332 OFFCURVE",
"406 360 CURVE SMOOTH",
"406 362 LINE SMOOTH",
"406 363 OFFCURVE",
"404 364 OFFCURVE",
"403 364 CURVE SMOOTH",
"391 364 OFFCURVE",
"388 314 OFFCURVE",
"332 314 CURVE SMOOTH",
"269 314 OFFCURVE",
"206 367 OFFCURVE",
"146 367 CURVE SMOOTH",
"139 367 OFFCURVE",
"132 366 OFFCURVE",
"125 363 CURVE SMOOTH",
"101 352 OFFCURVE",
"61 308 OFFCURVE",
"61 280 CURVE SMOOTH",
"61 277 OFFCURVE",
"62 275 OFFCURVE",
"66 275 CURVE SMOOTH",
"79 275 OFFCURVE",
"74 315 OFFCURVE",
"115 321 CURVE SMOOTH",
"119 322 OFFCURVE",
"123 322 OFFCURVE",
"127 322 CURVE SMOOTH",
"134 322 OFFCURVE",
"141 321 OFFCURVE",
"148 320 CURVE",
"79 -6 LINE"
);
}
);
width = 422;
}
);
note = pi;
unicode = 03C0;
},
{
glyphname = zero;
lastChange = "2021-09-23 18:48:50 +0000";
layers = (
{
hints = (
{
horizontal = 1;
place = "{-52, 16}";
type = Stem;
},
{
horizontal = 1;
place = "{397, 16}";
type = Stem;
},
{
horizontal = 1;
place = "{515, 18}";
type = Stem;
},
{
place = "{22, 43}";
type = Stem;
},
{
place = "{192, 23}";
type = Stem;
},
{
place = "{468, 46}";
type = Stem;
}
);
layerId = "32B14CDE-4F96-422E-BD5E-1145416534B1";
paths = (
{
closed = 1;
nodes = (
"338 -52 OFFCURVE",
"513 206 OFFCURVE",
"514 365 CURVE SMOOTH",
"514 470 OFFCURVE",
"449 533 OFFCURVE",
"363 533 CURVE SMOOTH",
"263 533 OFFCURVE",
"187 442 OFFCURVE",
"192 371 CURVE",
"97 307 OFFCURVE",
"22 180 OFFCURVE",
"22 82 CURVE SMOOTH",
"22 -6 OFFCURVE",
"78 -52 OFFCURVE",
"160 -52 CURVE SMOOTH"
);
},
{
closed = 1;
nodes = (
"99 -36 OFFCURVE",
"65 17 OFFCURVE",
"65 69 CURVE SMOOTH",
"65 165 OFFCURVE",
"128 283 OFFCURVE",
"199 345 CURVE",
"207 326 OFFCURVE",
"224 309 OFFCURVE",
"249 303 CURVE SMOOTH",
"265 300 OFFCURVE",
"264 309 OFFCURVE",
"254 314 CURVE SMOOTH",
"241 320 OFFCURVE",
"226 332 OFFCURVE",
"217 359 CURVE",
"238 374 OFFCURVE",
"259 385 OFFCURVE",
"281 391 CURVE SMOOTH",
"318 401 OFFCURVE",
"362 401 OFFCURVE",
"380 368 CURVE SMOOTH",
"390 351 OFFCURVE",
"385 336 OFFCURVE",
"391 336 CURVE SMOOTH",
"402 337 OFFCURVE",
"396 366 OFFCURVE",
"394 374 CURVE SMOOTH",
"377 423 OFFCURVE",
"300 414 OFFCURVE",
"283 410 CURVE SMOOTH",
"259 406 OFFCURVE",
"236 398 OFFCURVE",
"215 386 CURVE",
"219 445 OFFCURVE",
"288 522 OFFCURVE",
"363 515 CURVE SMOOTH",
"443 508 OFFCURVE",
"468 456 OFFCURVE",
"468 396 CURVE SMOOTH",
"468 237 OFFCURVE",
"350 -36 OFFCURVE",
"148 -36 CURVE SMOOTH"
);
}
);
width = 483;
}
);
note = zero;
unicode = 0030;
},
{
glyphname = one;
lastChange = "2021-09-23 18:48:50 +0000";
layers = (
{
hints = (
{
horizontal = 1;
place = "{14, -20}";
target = down;
type = TopGhost;
},
{
horizontal = 1;
place = "{643, -20}";
target = down;
type = TopGhost;
}
);
layerId = "32B14CDE-4F96-422E-BD5E-1145416534B1";
paths = (
{
closed = 1;
nodes = (
"21 -7 OFFCURVE",
"122 0 OFFCURVE",
"182 -6 CURVE",
"189 -5 OFFCURVE",
"187 0 OFFCURVE",
"182 4 CURVE",
"182 5 OFFCURVE",
"142 12 OFFCURVE",
"138 34 CURVE",
"138 41 OFFCURVE",
"363 400 OFFCURVE",
"383 437 CURVE SMOOTH",
"406 479 OFFCURVE",
"414 512 OFFCURVE",
"406 517 CURVE",
"399 517 OFFCURVE",
"215 378 OFFCURVE",
"174 360 CURVE SMOOTH",
"148 349 OFFCURVE",
"195 332 OFFCURVE",
"213 346 CURVE SMOOTH",
"238 366 OFFCURVE",
"253 382 OFFCURVE",
"275 398 CURVE SMOOTH",
"329 436 LINE",
"213 239 OFFCURVE",
"93 50 OFFCURVE",
"80 38 CURVE SMOOTH",
"58 20 OFFCURVE",
"35 13 OFFCURVE",
"9 5 CURVE",
"4 2 OFFCURVE",
"-2 -3 OFFCURVE",
"5 -7 CURVE"
);
}
);
width = 324;
}
);
note = one;
unicode = 0031;
},
{
glyphname = two;
lastChange = "2021-09-23 20:27:44 +0000";
layers = (
{
hints = (
{
horizontal = 1;
place = "{-12, 24}";
type = Stem;
},
{
horizontal = 1;
place = "{234, 23}";
type = Stem;
},
{
place = "{143, 41}";
type = Stem;
},
{
place = "{483, 65}";
type = Stem;
},
{
horizontal = 1;
place = "{32, 13}";
type = Stem;
},
{
place = "{-7, 31}";
type = Stem;
},
{
horizontal = 1;
place = "{-4, 21}";
target = up;
type = BottomGhost;
},
{
horizontal = 1;
place = "{-82, 50}";
type = Stem;
},
{
place = "{449, 13}";
type = Stem;
}
);
layerId = "32B14CDE-4F96-422E-BD5E-1145416534B1";
paths = (
{
closed = 1;
nodes = (
"375 -82 OFFCURVE",
"428 -57 OFFCURVE",
"453 -21 CURVE SMOOTH",
"462 -8 OFFCURVE",
"466 11 OFFCURVE",
"462 23 CURVE SMOOTH",
"456 40 OFFCURVE",
"443 41 OFFCURVE",
"449 22 CURVE SMOOTH",
"452 14 OFFCURVE",
"447 -6 OFFCURVE",
"430 -16 CURVE SMOOTH",
"341 -67 OFFCURVE",
"218 -7 OFFCURVE",
"171 15 CURVE",
"285 58 OFFCURVE",
"528 220 OFFCURVE",
"545 377 CURVE SMOOTH",
"556 477 OFFCURVE",
"490 542 OFFCURVE",
"397 542 CURVE SMOOTH",
"320 542 OFFCURVE",
"231 499 OFFCURVE",
"182 430 CURVE SMOOTH",
"144 376 OFFCURVE",
"125 293 OFFCURVE",
"166 255 CURVE SMOOTH",
"220 206 OFFCURVE",
"314 250 OFFCURVE",
"334 310 CURVE SMOOTH",
"341 330 OFFCURVE",
"328 327 OFFCURVE",
"324 314 CURVE",
"280 220 OFFCURVE",
"161 247 OFFCURVE",
"188 352 CURVE SMOOTH",
"216 458 OFFCURVE",
"307 535 OFFCURVE",
"410 518 CURVE SMOOTH",
"525 499 OFFCURVE",
"498 344 OFFCURVE",
"418 222 CURVE SMOOTH",
"362 137 OFFCURVE",
"251 66 OFFCURVE",
"211 45 CURVE SMOOTH",
"191 34 OFFCURVE",
"170 26 OFFCURVE",
"150 21 CURVE",
"113 34 OFFCURVE",
"78 45 OFFCURVE",
"48 45 CURVE SMOOTH",
"31 45 OFFCURVE",
"-7 43 OFFCURVE",
"-7 20 CURVE SMOOTH",
"-7 -10 OFFCURVE",
"35 -12 OFFCURVE",
"64 -12 CURVE SMOOTH",
"89 -12 OFFCURVE",
"108 -4 OFFCURVE",
"125 0 CURVE",
"150 -16 OFFCURVE",
"185 -39 OFFCURVE",
"215 -54 CURVE SMOOTH",
"246 -70 OFFCURVE",
"280 -82 OFFCURVE",
"318 -82 CURVE SMOOTH"
);
},
{
closed = 1;
nodes = (
"33 10 OFFCURVE",
"24 16 OFFCURVE",
"24 22 CURVE SMOOTH",
"24 27 OFFCURVE",
"29 32 OFFCURVE",
"43 32 CURVE SMOOTH",
"70 33 OFFCURVE",
"89 21 OFFCURVE",
"106 12 CURVE",
"89 8 OFFCURVE",
"57 7 OFFCURVE",
"42 9 CURVE SMOOTH"
);
}
);
width = 505;
}
);
note = two;
unicode = 0032;
},
